<svg width="320" height="568" viewBox="0 0 320 568" version="1.1" xmlns="http://www.w3.org/2000/svg" xmlns:xlink="http://www.w3.org/1999/xlink">
<title>dance</title>
<desc>Created using Figma</desc>
<g id="Canvas" transform="translate(-479 -3738)">
<rect x="479" y="3738" width="320" height="568" fill="#E5E5E5"/>
<clipPath id="clip-0" clip-rule="evenodd">
<path d="M 799 3738L 799 4306L 479 4306L 479 3738L 799 3738Z" fill="#FFFFFF"/>
</clipPath>
<g id="dance" clip-path="url(#clip-0)">
<path d="M 799 3738L 799 4306L 479 4306L 479 3738L 799 3738Z" fill="#FFFFFF"/>
<g id="background">
<g id="hint /for=image /style=&#34;width: auto; height: 100%;&#34; /positioner-style=&#34;display: block; height: 100%; width: 2000vw; margin-left: calc(50% - 1000vw); text-align: center;&#34;">
<use xlink:href="#path0_fill" transform="matrix(1 1.39128e-16 -1.39128e-16 1 479 3738)" fill="url(#paint0_linear)"/>
</g>
</g>
<g id="dance">
<g id="hint /for=image /style=&#34;width: auto; height: 100%;&#34; /positioner-style=&#34;display: block; height: 100%; width: 2000vw; margin-left: calc(50% - 1000vw); text-align: center;&#34;">
<use xlink:href="#path0_fill" transform="matrix(1 1.39128e-16 -1.39128e-16 1 479 3738)" fill="url(#paint1_linear)"/>
</g>
</g>
<g id="back /action=nav">
<g id="click-area-hint">
<use xlink:href="#path1_fill" transform="translate(483 3748)" fill="url(#paint2_linear)"/>
</g>
<g id="Vector" filter="url(#filter0_d)">
<use xlink:href="#path2_fill" transform="translate(495 3755)" fill="#FFFFFF" fill-opacity="0.9"/>
</g>
</g>
</g>
</g>
<defs>
<filter id="filter0_d" filterUnits="userSpaceOnUse" x="491" y="3753" width="23" height="34" color-interpolation-filters="sRGB">
<feFlood flood-opacity="0" result="BackgroundImageFix"/>
<feColorMatrix in="SourceAlpha" type="matrix" values="0 0 0 0 0 0 0 0 0 0 0 0 0 0 0 0 0 0 255 0"/>
<feOffset dx="0" dy="2"/>
<feGaussianBlur stdDeviation="2"/>
<feColorMatrix type="matrix" values="0 0 0 0 0 0 0 0 0 0 0 0 0 0 0 0 0 0 0.7 0"/>
<feBlend mode="normal" in2="BackgroundImageFix" result="effect1_dropShadow"/>
<feBlend mode="normal" in="SourceGraphic" in2="effect1_dropShadow" result="shape"/>
</filter>
<linearGradient id="paint0_linear" x1="0" y1="0" x2="1" y2="0" gradientUnits="userSpaceOnUse" gradientTransform="matrix(6.5966e-06 568 -320 3.89059e-06 320 -1.9453e-06)">
<stop offset="0" stop-color="#E0E0E0"/>
<stop offset="1" stop-color="#E3E3E3"/>
</linearGradient>
<linearGradient id="paint1_linear" x1="0" y1="0" x2="1" y2="0" gradientUnits="userSpaceOnUse" gradientTransform="matrix(6.5966e-06 568 -320 3.89059e-06 320 -1.9453e-06)">
<stop offset="0" stop-color="#E0E0E0"/>
<stop offset="1" stop-color="#E3E3E3"/>
</linearGradient>
<linearGradient id="paint2_linear" x1="0" y1="0" x2="1" y2="0" gradientUnits="userSpaceOnUse" gradientTransform="matrix(2.44929e-15 40 -40 2.44929e-15 40 -2.44929e-15)">
<stop offset="0.0276243" stop-color="#FFFFFF" stop-opacity="0.01"/>
<stop offset="0.933702" stop-color="#FFFFFF" stop-opacity="0"/>
</linearGradient>
<path id="path0_fill" d="M 0 0L 320 0L 320 568L 0 568L 0 0Z"/>
<path id="path1_fill" d="M 0 0L 40 0L 40 40L 0 40L 0 0Z"/>
<path id="path2_fill" d="M 15 3.055L 12.1457 0L 0 13L 12.1457 26L 15 22.945L 5.72874 13L 15 3.055Z"/>
</defs>
</svg>
