<svg width="320" height="568" viewBox="0 0 320 568" version="1.1" xmlns="http://www.w3.org/2000/svg" xmlns:xlink="http://www.w3.org/1999/xlink">
<title>dashboard-stack</title>
<desc>Created using Figma</desc>
<g id="Canvas" transform="translate(-1199 270)">
<rect x="1199" y="-270" width="320" height="568" fill="#E5E5E5"/>
<clipPath id="clip-0" clip-rule="evenodd">
<path d="M 1199 -270L 1519 -270L 1519 298L 1199 298L 1199 -270Z" fill="#FFFFFF"/>
</clipPath>
<g id="dashboard-stack" clip-path="url(#clip-0)">
<path d="M 1199 -270L 1519 -270L 1519 298L 1199 298L 1199 -270Z" fill="#FFFFFF"/>
<g id="template">
<clipPath id="clip-1" clip-rule="evenodd">
<path d="M 1199 230L 1519 230L 1519 320L 1199 320L 1199 230Z" fill="#FFFFFF"/>
</clipPath>
<g id="item /example" clip-path="url(#clip-1)">
<g id="Rectangle">
<use xlink:href="#path0_fill" transform="translate(1199 230)" fill="#B3B27D"/>
</g>
<g id="Die Beste, Immer" filter="url(#filter0_d)">
<use xlink:href="#path1_fill" transform="translate(1292 265)" fill="#FFFFFF"/>
</g>
</g>
<clipPath id="clip-2" clip-rule="evenodd">
<path d="M 1199 140L 1519 140L 1519 230L 1199 230L 1199 140Z" fill="#FFFFFF"/>
</clipPath>
<g id="item /example" clip-path="url(#clip-2)">
<g id="Rectangle">
<use xlink:href="#path0_fill" transform="translate(1199 140)" fill="#A1B3A9"/>
</g>
<g id="Die Beste, Immer" filter="url(#filter1_d)">
<use xlink:href="#path1_fill" transform="translate(1292 175)" fill="#FFFFFF"/>
</g>
</g>
<clipPath id="clip-3" clip-rule="evenodd">
<path d="M 1199 50L 1519 50L 1519 140L 1199 140L 1199 50Z" fill="#FFFFFF"/>
</clipPath>
<g id="item /minor /template /hint=clip" clip-path="url(#clip-3)">
<g id="background">
<g id="hint /for=image">
<use xlink:href="#path2_fill" transform="translate(1199 -65)" fill="url(#paint4_linear)"/>
</g>
<g id="/example">
<use xlink:href="#path0_fill" transform="translate(1199 50)" fill="#7D97B3"/>
</g>
</g>
<g id="title" filter="url(#filter2_d)">
<g id="hint /for=text /style=&#34;font-size: 16;&#34;">
<use xlink:href="#path3_fill" transform="translate(1199 85)" fill="url(#paint6_linear)"/>
</g>
<g id="Die Beste, Immer">
<use xlink:href="#path1_fill" transform="translate(1292 85)" fill="#FFFFFF"/>
</g>
</g>
</g>
<clipPath id="clip-4" clip-rule="evenodd">
<path d="M 1199 -270L 1666 -270L 1666 50L 1199 50L 1199 -270Z" fill="#FFFFFF"/>
</clipPath>
<g id="item /major /template /hint=clip" clip-path="url(#clip-4)">
<g id="background">
<g id="hint /for=image /positioner-style=&#34;display: block; height: 100%; width: 10000vw; margin-left: calc(50% - 5000vw); text-align: center;&#34; /style=&#34;width: auto%; height: 100%;&#34;">
<use xlink:href="#path2_fill" transform="translate(1199 -270)" fill="url(#paint8_linear)"/>
</g>
<g id="/example">
<g id="color">
<use xlink:href="#path2_fill" transform="translate(1199 -270)" fill="#9AB38F"/>
</g>
<g id="swish">
<use xlink:href="#path4_stroke" transform="translate(1199 -222)"/>
</g>
</g>
</g>
<g id="title" filter="url(#filter3_d)">
<g id="hint /for=text /style=&#34;text-shadow: -1px -1px 0 rgba(0,0,0,0.2), 1px -1px 0 rgba(0,0,0,0.2), -1px 1px 0 rgba(0,0,0,0.2), 1px 1px 0 rgba(0,0,0,0.2); font-size: 30; width: 100%; text-align: center; display: block; color: white;&#34;">
<use xlink:href="#path5_fill" transform="translate(1199 -14)" fill="url(#paint11_linear)"/>
</g>
<g id="/example">
<use xlink:href="#path6_fill" transform="translate(1234 -14)" fill="#FFFFFF"/>
</g>
</g>
</g>
<g id="/action=close-menu">
<g id="hint /for=click">
<use xlink:href="#path7_fill" transform="translate(1199 -270)" fill="url(#paint13_linear)" fill-opacity="0.01"/>
</g>
</g>
<g id="menu">
<g id="background">
<use xlink:href="#path8_fill" transform="translate(1199 -40)" fill="#2892BF"/>
</g>
<g id="contact /action=menu-select">
<g id="hint /for=click">
<use xlink:href="#path9_fill" transform="translate(1199 154)" fill="url(#paint15_linear)" fill-opacity="0.01"/>
</g>
<g id="&#232;&#129;&#175;&#231;&#181;&#161;">
<use xlink:href="#path10_fill" transform="translate(1337 172)" fill="#FFFFFF" fill-opacity="0.7"/>
</g>
</g>
<g id="herbal-life /action=menu-select">
<g id="hint /for=click">
<use xlink:href="#path9_fill" transform="translate(1199 95)" fill="url(#paint17_linear)" fill-opacity="0.8"/>
</g>
<g id="Herbalife Nutrition">
<use xlink:href="#path11_fill" transform="translate(1199 110)" fill="#FFFFFF" fill-opacity="0.91"/>
</g>
</g>
<g id="center /action=menu-select">
<g id="hint /for=click">
<use xlink:href="#path9_fill" transform="translate(1199 40)" fill="url(#paint19_linear)" fill-opacity="0.01"/>
</g>
<g id="&#228;&#191;&#157;&#232;&#137;&#175;&#229;&#177;&#128;&#233;&#149;&#183;&#229;&#186;&#183;&#233;&#157;&#146;&#229;&#176;&#145;&#229;&#185;&#180;&#231;&#153;&#188;&#229;&#177;&#149;&#228;&#184;&#173;&#229;&#191;&#131;">
<use xlink:href="#path12_fill" transform="translate(1260 62)" fill="#FFFFFF" fill-opacity="0.7"/>
</g>
</g>
<g id="po-leung-kuk /action=menu-select">
<g id="hint /for=click">
<use xlink:href="#path9_fill" transform="translate(1199 -19)" fill="url(#paint21_linear)" fill-opacity="0.8"/>
</g>
<g id="&#228;&#191;&#157;&#232;&#137;&#175;&#229;&#177;&#128;">
<use xlink:href="#path13_fill" transform="translate(1329 -1)" fill="#FFFFFF" fill-opacity="0.7"/>
</g>
</g>
</g>
<g id="menu-trigger">
<g id="hint /for=click">
<use xlink:href="#path14_fill" transform="translate(1470 -270)" fill="url(#paint23_linear)"/>
</g>
<g id="/action=menu" filter="url(#filter4_d)">
<use xlink:href="#path15_fill" transform="translate(1488 -255)" fill="#FFFFFF"/>
<mask id="mask0_outline_out">
<rect id="mask0_outline_inv" fill="white" x="-1" y="-1" width="20" height="17" transform="translate(1488 -255)"/>
<use xlink:href="#path15_fill" fill="black" transform="translate(1488 -255)"/>
</mask>
<g mask="url(#mask0_outline_out)">
<use xlink:href="#path16_stroke_2x" transform="translate(1488 -255)" fill="#000000" fill-opacity="0.2"/>
</g>
</g>
</g>
<g id="back /action=nav">
<g id="click-area-hint">
<use xlink:href="#path17_fill" transform="translate(1203 -260)" fill="url(#paint26_linear)" fill-opacity="0.01"/>
</g>
<g id="Vector" filter="url(#filter5_d)">
<use xlink:href="#path18_fill" transform="translate(1215 -253)" fill="#FFFFFF" fill-opacity="0.7"/>
</g>
</g>
</g>
</g>
</g>
<defs>
<filter id="filter0_d" filterUnits="userSpaceOnUse" x="1290" y="268" width="138" height="23" color-interpolation-filters="sRGB">
<feFlood flood-opacity="0" result="BackgroundImageFix"/>
<feColorMatrix in="SourceAlpha" type="matrix" values="0 0 0 0 0 0 0 0 0 0 0 0 0 0 0 0 0 0 255 0"/>
<feOffset dx="0" dy="3"/>
<feGaussianBlur stdDeviation="1.5"/>
<feColorMatrix type="matrix" values="0 0 0 0 0 0 0 0 0 0 0 0 0 0 0 0 0 0 0.35 0"/>
<feBlend mode="normal" in2="BackgroundImageFix" result="effect1_dropShadow"/>
<feBlend mode="normal" in="SourceGraphic" in2="effect1_dropShadow" result="shape"/>
</filter>
<filter id="filter1_d" filterUnits="userSpaceOnUse" x="1290" y="178" width="138" height="23" color-interpolation-filters="sRGB">
<feFlood flood-opacity="0" result="BackgroundImageFix"/>
<feColorMatrix in="SourceAlpha" type="matrix" values="0 0 0 0 0 0 0 0 0 0 0 0 0 0 0 0 0 0 255 0"/>
<feOffset dx="0" dy="3"/>
<feGaussianBlur stdDeviation="1.5"/>
<feColorMatrix type="matrix" values="0 0 0 0 0 0 0 0 0 0 0 0 0 0 0 0 0 0 0.35 0"/>
<feBlend mode="normal" in2="BackgroundImageFix" result="effect1_dropShadow"/>
<feBlend mode="normal" in="SourceGraphic" in2="effect1_dropShadow" result="shape"/>
</filter>
<filter id="filter2_d" filterUnits="userSpaceOnUse" x="1196" y="85" width="326" height="26" color-interpolation-filters="sRGB">
<feFlood flood-opacity="0" result="BackgroundImageFix"/>
<feColorMatrix in="SourceAlpha" type="matrix" values="0 0 0 0 0 0 0 0 0 0 0 0 0 0 0 0 0 0 255 0"/>
<feOffset dx="0" dy="3"/>
<feGaussianBlur stdDeviation="1.5"/>
<feColorMatrix type="matrix" values="0 0 0 0 0 0 0 0 0 0 0 0 0 0 0 0 0 0 0.35 0"/>
<feBlend mode="normal" in2="BackgroundImageFix" result="effect1_dropShadow"/>
<feBlend mode="normal" in="SourceGraphic" in2="effect1_dropShadow" result="shape"/>
</filter>
<filter id="filter3_d" filterUnits="userSpaceOnUse" x="1196" y="-14" width="326" height="44" color-interpolation-filters="sRGB">
<feFlood flood-opacity="0" result="BackgroundImageFix"/>
<feColorMatrix in="SourceAlpha" type="matrix" values="0 0 0 0 0 0 0 0 0 0 0 0 0 0 0 0 0 0 255 0"/>
<feOffset dx="0" dy="3"/>
<feGaussianBlur stdDeviation="1.5"/>
<feColorMatrix type="matrix" values="0 0 0 0 0 0 0 0 0 0 0 0 0 0 0 0 0 0 0.35 0"/>
<feBlend mode="normal" in2="BackgroundImageFix" result="effect1_dropShadow"/>
<feBlend mode="normal" in="SourceGraphic" in2="effect1_dropShadow" result="shape"/>
</filter>
<filter id="filter4_d" filterUnits="userSpaceOnUse" x="1483" y="-258" width="28" height="25" color-interpolation-filters="sRGB">
<feFlood flood-opacity="0" result="BackgroundImageFix"/>
<feColorMatrix in="SourceAlpha" type="matrix" values="0 0 0 0 0 0 0 0 0 0 0 0 0 0 0 0 0 0 255 0"/>
<feOffset dx="0" dy="2"/>
<feGaussianBlur stdDeviation="2"/>
<feColorMatrix type="matrix" values="0 0 0 0 0 0 0 0 0 0 0 0 0 0 0 0 0 0 0.25 0"/>
<feBlend mode="normal" in2="BackgroundImageFix" result="effect1_dropShadow"/>
<feBlend mode="normal" in="SourceGraphic" in2="effect1_dropShadow" result="shape"/>
</filter>
<filter id="filter5_d" filterUnits="userSpaceOnUse" x="1211" y="-255" width="23" height="34" color-interpolation-filters="sRGB">
<feFlood flood-opacity="0" result="BackgroundImageFix"/>
<feColorMatrix in="SourceAlpha" type="matrix" values="0 0 0 0 0 0 0 0 0 0 0 0 0 0 0 0 0 0 255 0"/>
<feOffset dx="0" dy="2"/>
<feGaussianBlur stdDeviation="2"/>
<feColorMatrix type="matrix" values="0 0 0 0 0 0 0 0 0 0 0 0 0 0 0 0 0 0 0.2 0"/>
<feBlend mode="normal" in2="BackgroundImageFix" result="effect1_dropShadow"/>
<feBlend mode="normal" in="SourceGraphic" in2="effect1_dropShadow" result="shape"/>
</filter>
<linearGradient id="paint4_linear" x1="0" y1="0" x2="1" y2="0" gradientUnits="userSpaceOnUse" gradientTransform="matrix(1.95943e-14 320 -320 1.95943e-14 320 -1.95943e-14)">
<stop offset="0" stop-color="#000000" stop-opacity="0.01"/>
<stop offset="1" stop-color="#000000" stop-opacity="0"/>
</linearGradient>
<linearGradient id="paint6_linear" x1="0" y1="0" x2="1" y2="0" gradientUnits="userSpaceOnUse" gradientTransform="matrix(1.95943e-14 20 -320 1.22465e-15 320 -1.22465e-15)">
<stop offset="0" stop-color="#000000" stop-opacity="0.01"/>
<stop offset="1" stop-color="#000000" stop-opacity="0"/>
</linearGradient>
<linearGradient id="paint8_linear" x1="0" y1="0" x2="1" y2="0" gradientUnits="userSpaceOnUse" gradientTransform="matrix(1.95943e-14 320 -320 1.95943e-14 320 -1.95943e-14)">
<stop offset="0" stop-color="#000000" stop-opacity="0.01"/>
<stop offset="1" stop-color="#000000" stop-opacity="0"/>
</linearGradient>
<linearGradient id="paint11_linear" x1="0" y1="0" x2="1" y2="0" gradientUnits="userSpaceOnUse" gradientTransform="matrix(1.95943e-14 38 -320 2.32683e-15 320 -2.32683e-15)">
<stop offset="0" stop-color="#000000" stop-opacity="0.01"/>
<stop offset="1" stop-color="#000000" stop-opacity="0"/>
</linearGradient>
<linearGradient id="paint13_linear" x1="0" y1="0" x2="1" y2="0" gradientUnits="userSpaceOnUse" gradientTransform="matrix(1.95943e-14 230 -320 1.40834e-14 320 -1.40834e-14)">
<stop offset="0" stop-color="#000000" stop-opacity="0"/>
<stop offset="0.779006" stop-color="#000000" stop-opacity="0.01"/>
</linearGradient>
<linearGradient id="paint15_linear" x1="0" y1="0" x2="1" y2="0" gradientUnits="userSpaceOnUse" gradientTransform="matrix(1.95943e-14 59 -320 3.61271e-15 320 -3.61271e-15)">
<stop offset="0" stop-color="#000000" stop-opacity="0.01"/>
<stop offset="1" stop-color="#000000" stop-opacity="0"/>
</linearGradient>
<linearGradient id="paint17_linear" x1="0" y1="0" x2="1" y2="0" gradientUnits="userSpaceOnUse" gradientTransform="matrix(1.95943e-14 59 -320 3.61271e-15 320 -3.61271e-15)">
<stop offset="0" stop-color="#FFFFFF" stop-opacity="0.01"/>
<stop offset="0.552486" stop-color="#000000" stop-opacity="0"/>
</linearGradient>
<linearGradient id="paint19_linear" x1="0" y1="0" x2="1" y2="0" gradientUnits="userSpaceOnUse" gradientTransform="matrix(1.95943e-14 59 -320 3.61271e-15 320 -3.61271e-15)">
<stop offset="0" stop-color="#000000" stop-opacity="0.01"/>
<stop offset="1" stop-color="#000000" stop-opacity="0"/>
</linearGradient>
<linearGradient id="paint21_linear" x1="0" y1="0" x2="1" y2="0" gradientUnits="userSpaceOnUse" gradientTransform="matrix(1.95943e-14 59 -320 3.61271e-15 320 -3.61271e-15)">
<stop offset="0" stop-color="#FFFFFF" stop-opacity="0.01"/>
<stop offset="0.552486" stop-color="#000000" stop-opacity="0"/>
</linearGradient>
<linearGradient id="paint23_linear" x1="0" y1="0" x2="1" y2="0" gradientUnits="userSpaceOnUse" gradientTransform="matrix(3.00038e-15 48 -49 2.93915e-15 49 -2.93915e-15)">
<stop offset="0" stop-color="#000000" stop-opacity="0"/>
<stop offset="0.872928" stop-color="#000000" stop-opacity="0.01"/>
</linearGradient>
<linearGradient id="paint26_linear" x1="0" y1="0" x2="1" y2="0" gradientUnits="userSpaceOnUse" gradientTransform="matrix(2.44929e-15 40 -40 2.44929e-15 40 -2.44929e-15)">
<stop offset="0.0276243" stop-color="#FFFFFF" stop-opacity="0.01"/>
<stop offset="0.933702" stop-color="#FFFFFF" stop-opacity="0"/>
</linearGradient>
<path id="path0_fill" d="M 0 0L 320 0L 320 90L 0 90L 0 0Z"/>
<path id="path1_fill" d="M 2.38964 4.11426C 2.68639 4.11426 3.09508 4.09604 3.6157 4.0596C 3.68859 4.05439 3.89423 4.04138 4.23263 4.02055C 4.57624 3.99973 4.89903 3.98932 5.20099 3.98932C 7.08042 3.98932 8.4887 4.4839 9.42581 5.47308C 10.3681 6.46226 10.8393 7.87834 10.8393 9.72133C 10.8393 11.0437 10.6102 12.1865 10.1521 13.1496C 9.69393 14.1075 9.03795 14.8442 8.18413 15.3596C 7.33032 15.8698 6.32292 16.1249 5.16194 16.1249C 4.92245 16.1249 4.46431 16.1041 3.7875 16.0625C 3.03781 16.0208 2.50158 16 2.17879 16L 1.515 16L 1.515 4.11426L 2.38964 4.11426ZM 5.28689 14.8364C 6.44266 14.8104 7.35375 14.4043 8.02014 13.6182C 8.69174 12.8268 9.02754 11.6138 9.02754 9.97904C 9.02754 8.82326 8.87135 7.89917 8.55898 7.20674C 8.24661 6.51432 7.78065 6.01452 7.16112 5.70736C 6.54158 5.40019 5.75284 5.24661 4.7949 5.24661C 4.18057 5.24661 3.67037 5.28826 3.26428 5.37156L 3.26428 14.688C 3.50897 14.7453 3.81354 14.787 4.17797 14.813C 4.54761 14.8338 4.91725 14.8416 5.28689 14.8364ZM 14.7205 7.11303L 14.7205 16L 13.0025 16L 13.0025 7.11303L 14.7205 7.11303ZM 12.6745 4.42664C 12.6745 4.20798 12.7343 4.00493 12.8541 3.81751C 12.979 3.63009 13.1404 3.48171 13.3383 3.37238C 13.5361 3.26305 13.7365 3.20839 13.9396 3.20839C 14.2936 3.20839 14.5643 3.3073 14.7517 3.50514C 14.9444 3.70298 15.0407 3.95548 15.0407 4.26264C 15.0407 4.49171 14.9808 4.69996 14.8611 4.88738C 14.7413 5.07481 14.5851 5.22058 14.3925 5.3247C 14.1999 5.42883 13.9942 5.48089 13.7756 5.48089C 13.5777 5.48089 13.3955 5.43924 13.2289 5.35594C 13.0623 5.26744 12.927 5.14249 12.8228 4.9811C 12.7239 4.8197 12.6745 4.63488 12.6745 4.42664ZM 24.24 10.3305C 24.24 10.7522 24.2348 11.0801 24.2244 11.3144C 24.214 11.5435 24.1906 11.7465 24.1541 11.9236L 18.6642 11.9236C 18.6694 11.96 18.672 12.0121 18.672 12.0797C 18.7605 13.9123 19.6664 14.8286 21.3896 14.8286C 21.702 14.8286 22.0977 14.7791 22.5766 14.6802C 23.0556 14.5813 23.3992 14.4694 23.6075 14.3444L 23.9355 15.3284C 23.6491 15.5627 23.2144 15.7553 22.6313 15.9063C 22.0482 16.0521 21.4807 16.1249 20.9289 16.1249C 20.0907 16.1249 19.3774 15.9453 18.7891 15.5861C 18.2008 15.2217 17.7531 14.6958 17.4459 14.0086C 17.1388 13.3214 16.9852 12.4962 16.9852 11.5331C 16.9852 10.6584 17.1362 9.88012 17.4381 9.19811C 17.7453 8.5161 18.1956 7.97986 18.7891 7.5894C 19.3879 7.19373 20.1115 6.98808 20.9601 6.97246C 21.5588 6.96205 22.1029 7.0844 22.5923 7.3395C 23.0817 7.5946 23.4721 7.97726 23.7637 8.48747C 24.0604 8.99767 24.2192 9.612 24.24 10.3305ZM 22.6313 10.7834C 22.6417 10.6168 22.6469 10.4945 22.6469 10.4164C 22.6469 9.75517 22.5116 9.21894 22.2409 8.80765C 21.9753 8.39636 21.5172 8.19071 20.8664 8.19071C 20.2885 8.19071 19.807 8.39636 19.4217 8.80765C 19.0416 9.21373 18.8048 9.87231 18.7111 10.7834L 22.6313 10.7834ZM 32.4554 4.11426C 32.6689 4.11426 33.0307 4.09865 33.5409 4.06741C 34.2541 4.02055 34.8034 3.99713 35.1886 3.99713C 36.485 3.99713 37.4533 4.24702 38.0937 4.74682C 38.7393 5.24141 39.0621 5.92862 39.0621 6.80847C 39.0621 7.19373 38.997 7.57898 38.8668 7.96424C 38.7419 8.3443 38.544 8.68009 38.2733 8.97164C 38.0078 9.26319 37.6694 9.46363 37.2581 9.57296C 37.7319 9.59378 38.1666 9.73955 38.5623 10.0103C 38.9631 10.281 39.2807 10.635 39.515 11.0723C 39.7493 11.5045 39.8664 11.96 39.8664 12.439C 39.8664 13.6052 39.502 14.5084 38.7731 15.1488C 38.0442 15.7891 36.8078 16.1093 35.0637 16.1093C 34.3973 16.1093 33.5461 16.0729 32.5101 16L 31.6432 16L 31.6432 4.10646L 32.4554 4.11426ZM 35.5401 9.26839C 35.8837 9.26839 36.1934 9.1851 36.4694 9.0185C 36.7505 8.8519 36.9718 8.602 37.1332 8.26881C 37.2946 7.93561 37.3752 7.53213 37.3752 7.05837C 37.3752 6.44404 37.1618 5.98589 36.7349 5.68393C 36.308 5.37677 35.6858 5.22318 34.8685 5.22318C 34.629 5.22318 34.3426 5.23099 34.0094 5.24661C 33.6815 5.26223 33.4706 5.28826 33.3769 5.3247L 33.3769 9.22935C 33.6008 9.26579 33.9314 9.28401 34.3687 9.28401L 35.009 9.2762C 35.134 9.271 35.311 9.26839 35.5401 9.26839ZM 35.2667 14.8442C 36.1987 14.8442 36.9041 14.6776 37.3831 14.3444C 37.862 14.006 38.1015 13.4386 38.1015 12.642C 38.1015 11.9027 37.8776 11.3639 37.4299 11.0255C 36.9874 10.6819 36.2924 10.5101 35.3448 10.5101L 34.4546 10.5023C 33.9548 10.5023 33.5956 10.5179 33.3769 10.5491L 33.3769 14.6646C 33.4966 14.7375 33.7309 14.787 34.0797 14.813C 34.4285 14.8338 34.8242 14.8442 35.2667 14.8442ZM 48.605 10.3305C 48.605 10.7522 48.5998 11.0801 48.5894 11.3144C 48.579 11.5435 48.5555 11.7465 48.5191 11.9236L 43.0292 11.9236C 43.0344 11.96 43.037 12.0121 43.037 12.0797C 43.1255 13.9123 44.0314 14.8286 45.7546 14.8286C 46.067 14.8286 46.4627 14.7791 46.9416 14.6802C 47.4206 14.5813 47.7642 14.4694 47.9725 14.3444L 48.3004 15.3284C 48.0141 15.5627 47.5794 15.7553 46.9963 15.9063C 46.4132 16.0521 45.8457 16.1249 45.2939 16.1249C 44.4557 16.1249 43.7424 15.9453 43.1541 15.5861C 42.5658 15.2217 42.1181 14.6958 41.8109 14.0086C 41.5038 13.3214 41.3502 12.4962 41.3502 11.5331C 41.3502 10.6584 41.5012 9.88012 41.8031 9.19811C 42.1103 8.5161 42.5606 7.97986 43.1541 7.5894C 43.7528 7.19373 44.4765 6.98808 45.3251 6.97246C 45.9238 6.96205 46.4679 7.0844 46.9572 7.3395C 47.4466 7.5946 47.8371 7.97726 48.1286 8.48747C 48.4254 8.99767 48.5842 9.612 48.605 10.3305ZM 46.9963 10.7834C 47.0067 10.6168 47.0119 10.4945 47.0119 10.4164C 47.0119 9.75517 46.8765 9.21894 46.6058 8.80765C 46.3403 8.39636 45.8822 8.19071 45.2314 8.19071C 44.6535 8.19071 44.1719 8.39636 43.7867 8.80765C 43.4066 9.21373 43.1697 9.87231 43.076 10.7834L 46.9963 10.7834ZM 50.5027 14.2117C 50.6016 14.2794 50.7838 14.3653 51.0493 14.4694C 51.3148 14.5683 51.6246 14.6568 51.9786 14.7349C 52.3326 14.813 52.6841 14.852 53.0329 14.852C 53.5431 14.852 53.9335 14.7557 54.2043 14.5631C 54.4802 14.3705 54.6182 14.1023 54.6182 13.7587C 54.6182 13.4307 54.462 13.1496 54.1496 12.9153C 53.8424 12.6811 53.3869 12.4364 52.783 12.1813C 51.9968 11.8481 51.3851 11.4576 50.9478 11.0099C 50.5157 10.5621 50.2996 9.99726 50.2996 9.31525C 50.2996 8.81025 50.4402 8.38334 50.7213 8.03453C 51.0077 7.68051 51.3929 7.41499 51.8771 7.23798C 52.3613 7.06097 52.9079 6.97246 53.517 6.97246C 53.996 6.97246 54.4464 7.02453 54.8681 7.12865C 55.2898 7.23277 55.5917 7.33429 55.7739 7.43321L 55.4928 8.72955C 55.347 8.6046 55.0893 8.49267 54.7197 8.39375C 54.35 8.28963 53.9674 8.23757 53.5717 8.23757C 53.0251 8.23757 52.606 8.32607 52.3144 8.50308C 52.0281 8.68009 51.8849 8.92218 51.8849 9.22935C 51.8849 9.48966 51.95 9.71352 52.0801 9.90095C 52.2155 10.0884 52.4055 10.2524 52.6502 10.3929C 52.8949 10.5335 53.2151 10.6845 53.6108 10.8459C 54.3709 11.153 54.9956 11.5253 55.485 11.9626C 55.9744 12.3947 56.2191 12.9518 56.2191 13.6338C 56.2191 14.1648 56.0915 14.6178 55.8364 14.9926C 55.5865 15.3622 55.2247 15.6434 54.7509 15.836C 54.2824 16.0286 53.7253 16.1249 53.0797 16.1249C 52.5018 16.1249 51.9396 16.0599 51.3929 15.9297C 50.8515 15.7996 50.4688 15.6538 50.245 15.4924L 50.5027 14.2117ZM 58.7883 8.39375L 57.6325 8.39375L 57.6325 7.46445L 57.9137 7.38636C 58.1532 7.31868 58.3302 7.26401 58.4447 7.22236C 58.5592 7.17551 58.6582 7.11303 58.7415 7.03494C 58.83 6.95164 58.9002 6.83971 58.9523 6.69914C 59.0304 6.5013 59.1449 6.14468 59.2959 5.62927L 59.4677 5.067L 60.4985 5.067L 60.4985 7.09741L 63.0131 7.09741L 63.0131 8.39375L 60.4985 8.39375L 60.4985 12.8997C 60.4985 13.4932 60.522 13.9149 60.5688 14.1648C 60.6157 14.4095 60.7016 14.5683 60.8265 14.6412C 60.9567 14.7141 61.1754 14.7505 61.4825 14.7505C 61.7064 14.7505 61.9771 14.7141 62.2947 14.6412C 62.6175 14.5683 62.8544 14.4928 63.0053 14.4147L 63.3021 15.3987C 63.047 15.5861 62.6799 15.7553 62.201 15.9063C 61.7272 16.0521 61.2743 16.1249 60.8422 16.1249C 60.1914 16.1249 59.6864 15.9636 59.3272 15.6408C 58.9679 15.3128 58.7883 14.7219 58.7883 13.8681L 58.7883 8.39375ZM 71.658 10.3305C 71.658 10.7522 71.6528 11.0801 71.6424 11.3144C 71.632 11.5435 71.6086 11.7465 71.5721 11.9236L 66.0822 11.9236C 66.0874 11.96 66.09 12.0121 66.09 12.0797C 66.1785 13.9123 67.0844 14.8286 68.8076 14.8286C 69.12 14.8286 69.5157 14.7791 69.9946 14.6802C 70.4736 14.5813 70.8172 14.4694 71.0255 14.3444L 71.3535 15.3284C 71.0671 15.5627 70.6324 15.7553 70.0493 15.9063C 69.4662 16.0521 68.8987 16.1249 68.3469 16.1249C 67.5087 16.1249 66.7954 15.9453 66.2071 15.5861C 65.6188 15.2217 65.1711 14.6958 64.8639 14.0086C 64.5568 13.3214 64.4032 12.4962 64.4032 11.5331C 64.4032 10.6584 64.5542 9.88012 64.8561 9.19811C 65.1633 8.5161 65.6136 7.97986 66.2071 7.5894C 66.8058 7.19373 67.5295 6.98808 68.3781 6.97246C 68.9768 6.96205 69.5209 7.0844 70.0103 7.3395C 70.4996 7.5946 70.8901 7.97726 71.1817 8.48747C 71.4784 8.99767 71.6372 9.612 71.658 10.3305ZM 70.0493 10.7834C 70.0597 10.6168 70.0649 10.4945 70.0649 10.4164C 70.0649 9.75517 69.9296 9.21894 69.6588 8.80765C 69.3933 8.39636 68.9352 8.19071 68.2844 8.19071C 67.7065 8.19071 67.2249 8.39636 66.8397 8.80765C 66.4596 9.21373 66.2228 9.87231 66.129 10.7834L 70.0493 10.7834ZM 73.6025 18.9831C 73.8941 18.8374 74.1362 18.5745 74.3288 18.1944C 74.5266 17.8196 74.6256 17.4109 74.6256 16.9684C 74.6256 16.7497 74.5787 16.5206 74.485 16.2811C 74.3965 16.0416 74.2767 15.8386 74.1258 15.672C 73.98 15.5054 73.829 15.4143 73.6728 15.3987L 73.6728 14.9067L 74.7583 13.8837C 75.1019 14.0086 75.3857 14.2117 75.6095 14.4928C 75.8334 14.7687 75.9948 15.0785 76.0937 15.4221C 76.1978 15.7605 76.2499 16.0937 76.2499 16.4217C 76.2499 16.9736 76.1562 17.489 75.9687 17.9679C 75.7813 18.4469 75.5288 18.853 75.2112 19.1862C 74.8989 19.5246 74.5553 19.7641 74.1804 19.9046L 73.6025 19.1862L 73.6025 18.9831ZM 85.6288 4.11426L 85.6288 16L 83.8639 16L 83.8639 4.11426L 85.6288 4.11426ZM 98.7563 6.96465C 99.3758 6.96465 99.8704 7.07659 100.24 7.30045C 100.61 7.52432 100.88 7.88875 101.052 8.39375C 101.229 8.89355 101.318 9.57035 101.318 10.4242L 101.318 16L 99.5997 16L 99.5997 10.4476C 99.5997 9.92698 99.558 9.52089 99.4747 9.22935C 99.3914 8.93259 99.2326 8.71654 98.9983 8.58118C 98.7641 8.44061 98.4231 8.38074 97.9753 8.40156C 97.6577 8.41198 97.2985 8.49007 96.8976 8.63584C 96.4968 8.77641 96.1297 8.96383 95.7965 9.19811C 95.8434 9.55734 95.8668 9.96602 95.8668 10.4242L 95.8668 16L 94.1488 16L 94.1488 10.4476C 94.1488 9.92698 94.1045 9.52089 94.016 9.22935C 93.9327 8.93259 93.7739 8.71654 93.5396 8.58118C 93.3054 8.44061 92.967 8.38074 92.5244 8.40156C 92.2173 8.41198 91.858 8.49007 91.4468 8.63584C 91.0407 8.77641 90.671 8.96904 90.3378 9.21373L 90.3378 16L 88.6198 16L 88.6198 7.11303L 90.1504 7.11303L 90.1582 8.05015C 90.5591 7.77942 91.0355 7.53473 91.5873 7.31607C 92.1444 7.09741 92.6884 6.98027 93.2195 6.96465C 93.8078 6.94904 94.2841 7.02973 94.6486 7.20674C 95.0182 7.37855 95.2993 7.66749 95.492 8.07357C 95.8876 7.77682 96.3874 7.51911 96.9914 7.30045C 97.6005 7.07659 98.1888 6.96465 98.7563 6.96465ZM 114.156 6.96465C 114.776 6.96465 115.27 7.07659 115.64 7.30045C 116.01 7.52432 116.28 7.88875 116.452 8.39375C 116.629 8.89355 116.718 9.57035 116.718 10.4242L 116.718 16L 115 16L 115 10.4476C 115 9.92698 114.958 9.52089 114.875 9.22935C 114.791 8.93259 114.633 8.71654 114.398 8.58118C 114.164 8.44061 113.823 8.38074 113.375 8.40156C 113.058 8.41198 112.698 8.49007 112.298 8.63584C 111.897 8.77641 111.53 8.96383 111.196 9.19811C 111.243 9.55734 111.267 9.96602 111.267 10.4242L 111.267 16L 109.549 16L 109.549 10.4476C 109.549 9.92698 109.504 9.52089 109.416 9.22935C 109.333 8.93259 109.174 8.71654 108.94 8.58118C 108.705 8.44061 108.367 8.38074 107.924 8.40156C 107.617 8.41198 107.258 8.49007 106.847 8.63584C 106.441 8.77641 106.071 8.96904 105.738 9.21373L 105.738 16L 104.02 16L 104.02 7.11303L 105.55 7.11303L 105.558 8.05015C 105.959 7.77942 106.435 7.53473 106.987 7.31607C 107.544 7.09741 108.088 6.98027 108.619 6.96465C 109.208 6.94904 109.684 7.02973 110.048 7.20674C 110.418 7.37855 110.699 7.66749 110.892 8.07357C 111.288 7.77682 111.787 7.51911 112.391 7.30045C 113 7.07659 113.589 6.96465 114.156 6.96465ZM 126.058 10.3305C 126.058 10.7522 126.052 11.0801 126.042 11.3144C 126.031 11.5435 126.008 11.7465 125.972 11.9236L 120.482 11.9236C 120.487 11.96 120.489 12.0121 120.489 12.0797C 120.578 13.9123 121.484 14.8286 123.207 14.8286C 123.519 14.8286 123.915 14.7791 124.394 14.6802C 124.873 14.5813 125.217 14.4694 125.425 14.3444L 125.753 15.3284C 125.467 15.5627 125.032 15.7553 124.449 15.9063C 123.866 16.0521 123.298 16.1249 122.746 16.1249C 121.908 16.1249 121.195 15.9453 120.607 15.5861C 120.018 15.2217 119.571 14.6958 119.263 14.0086C 118.956 13.3214 118.803 12.4962 118.803 11.5331C 118.803 10.6584 118.954 9.88012 119.256 9.19811C 119.563 8.5161 120.013 7.97986 120.607 7.5894C 121.205 7.19373 121.929 6.98808 122.778 6.97246C 123.376 6.96205 123.92 7.0844 124.41 7.3395C 124.899 7.5946 125.29 7.97726 125.581 8.48747C 125.878 8.99767 126.037 9.612 126.058 10.3305ZM 124.449 10.7834C 124.459 10.6168 124.464 10.4945 124.464 10.4164C 124.464 9.75517 124.329 9.21894 124.058 8.80765C 123.793 8.39636 123.335 8.19071 122.684 8.19071C 122.106 8.19071 121.624 8.39636 121.239 8.80765C 120.859 9.21373 120.622 9.87231 120.529 10.7834L 124.449 10.7834ZM 132.102 6.96465C 132.518 6.96465 132.807 7.0011 132.969 7.07398L 132.969 8.6827C 132.859 8.62022 132.716 8.57076 132.539 8.53432C 132.367 8.49267 132.12 8.47185 131.797 8.47185C 131.402 8.47185 131.035 8.54473 130.696 8.69051C 130.363 8.83107 130.082 9.00288 129.853 9.20592L 129.853 16L 128.135 16L 128.135 7.11303L 129.58 7.11303L 129.697 8.097C 129.811 7.94082 129.996 7.77422 130.251 7.59721C 130.511 7.4202 130.806 7.27182 131.134 7.15208C 131.467 7.02713 131.79 6.96465 132.102 6.96465Z"/>
<path id="path2_fill" d="M 0 0L 320 0L 320 320L 0 320L 0 0Z"/>
<path id="path3_fill" d="M 0 0L 320 0L 320 20L 0 20L 0 0Z"/>
<path id="path4_stroke" d="M 2.05169 9.23896C 1.26277 8.10584 -0.295358 7.82682 -1.42848 8.61574C -2.5616 9.40467 -2.84062 10.9628 -2.05169 12.0959L 2.05169 9.23896ZM 37.5878 58.6831L 35.7734 60.403L 37.5878 58.6831ZM 139.467 125.576L 138.379 127.826L 139.467 125.576ZM 227.362 148.57L 227.22 146.074L 227.362 148.57ZM 278.175 114.554L 280.31 115.855L 278.175 114.554ZM 276.783 36.0055L 274.606 37.2354L 276.783 36.0055ZM 261.469 15.8617L 259.617 17.5403L 261.469 15.8617ZM 249.32 3.82616L 250.317 1.53386L 249.32 3.82616ZM 209.96 5.47313L 208.531 3.42198L 209.96 5.47313ZM 177.118 39.6795L 174.962 38.4147L 177.118 39.6795ZM 182.117 110.119L 180.055 111.532L 182.117 110.119ZM 245.966 163.583L 245.128 165.938L 245.966 163.583ZM 359.552 155.348L 360.74 157.547L 359.552 155.348ZM 452.446 88.3287L 450.764 86.479L 452.446 88.3287ZM 469.372 71.8886C 469.808 70.5786 469.1 69.163 467.79 68.7268C 466.48 68.2906 465.064 68.999 464.628 70.3089L 469.372 71.8886ZM -2.05169 12.0959C 9.6975 28.9709 21.4474 45.2809 35.7734 60.403L 39.4022 56.9633C 25.2994 42.0931 13.7782 26.0816 2.05169 9.23896L -2.05169 12.0959ZM 35.7734 60.403C 64.5986 90.7633 101.408 109.942 138.379 127.826L 140.556 123.325C 103.65 105.473 67.6079 86.7702 39.4022 56.9633L 35.7734 60.403ZM 138.379 127.826C 165.708 141.047 195.907 152.856 227.503 151.066L 227.22 146.074C 196.978 147.788 167.764 136.487 140.556 123.325L 138.379 127.826ZM 227.503 151.066C 249.399 149.825 269.45 133.666 280.31 115.855L 276.041 113.252C 265.727 130.169 246.959 144.956 227.22 146.074L 227.503 151.066ZM 280.31 115.855C 295.884 90.3105 292.737 59.1584 278.959 34.7756L 274.606 37.2354C 287.717 60.4381 290.455 89.6096 276.041 113.252L 280.31 115.855ZM 278.959 34.7756C 274.649 27.1701 269.045 20.5003 263.322 14.1832L 259.617 17.5403C 265.28 23.79 270.543 30.0228 274.606 37.2354L 278.959 34.7756ZM 263.322 14.1832C 261.72 12.42 259.886 9.94244 257.796 7.57494C 255.736 5.24447 253.237 2.80437 250.317 1.53386L 248.322 6.11845C 250.177 6.92586 252.07 8.64705 254.05 10.8866C 256.001 13.0892 257.854 15.5904 259.617 17.5403L 263.322 14.1832ZM 250.317 1.53386C 238.232 -3.72621 220.001 -4.57075 208.531 3.42198L 211.389 7.52429C 220.964 0.852639 237.219 1.28599 248.322 6.11845L 250.317 1.53386ZM 208.531 3.42198C 195.541 12.4838 183.091 24.6008 174.962 38.4147L 179.275 40.9444C 187.025 27.6866 198.722 16.3406 211.389 7.52429L 208.531 3.42198ZM 174.962 38.4147C 162.335 59.9422 166.536 91.7936 180.055 111.532L 184.18 108.707C 171.509 90.2065 167.831 60.4552 179.275 40.9444L 174.962 38.4147ZM 180.055 111.532C 195.061 133.443 219.443 156.799 245.128 165.938L 246.804 161.227C 222.471 152.569 198.847 130.122 184.18 108.707L 180.055 111.532ZM 245.128 165.938C 283.703 179.664 324.923 176.9 360.74 157.547L 358.364 153.148C 323.828 171.808 284.085 174.493 246.804 161.227L 245.128 165.938ZM 360.74 157.547C 394.374 139.368 425.908 115.834 454.128 90.1783L 450.764 86.479C 422.727 111.977 391.683 135.153 358.364 153.148L 360.74 157.547ZM 454.128 90.1783C 459.555 85.2429 466.61 80.1838 469.372 71.8886L 464.628 70.3089C 462.397 77.0101 456.852 80.9433 450.764 86.479L 454.128 90.1783Z"/>
<path id="path5_fill" d="M 0 0L 320 0L 320 38L 0 38L 0 0Z"/>
<path id="path6_fill" d="M 4.48242 7.70508C 5.03906 7.70508 5.80566 7.6709 6.78223 7.60254C 6.91895 7.59277 7.30469 7.56836 7.93945 7.5293C 8.58398 7.49023 9.18945 7.4707 9.75586 7.4707C 13.2813 7.4707 15.9229 8.39844 17.6807 10.2539C 19.4482 12.1094 20.332 14.7656 20.332 18.2227C 20.332 20.7031 19.9023 22.8467 19.043 24.6533C 18.1836 26.4502 16.9531 27.832 15.3516 28.7988C 13.75 29.7559 11.8604 30.2344 9.68262 30.2344C 9.2334 30.2344 8.37402 30.1953 7.10449 30.1172C 5.69824 30.0391 4.69238 30 4.08691 30L 2.8418 30L 2.8418 7.70508L 4.48242 7.70508ZM 9.91699 27.8174C 12.085 27.7686 13.7939 27.0068 15.0439 25.5322C 16.3037 24.0479 16.9336 21.7725 16.9336 18.7061C 16.9336 16.5381 16.6406 14.8047 16.0547 13.5059C 15.4688 12.207 14.5947 11.2695 13.4326 10.6934C 12.2705 10.1172 10.791 9.8291 8.99414 9.8291C 7.8418 9.8291 6.88477 9.90723 6.12305 10.0635L 6.12305 27.5391C 6.58203 27.6465 7.15332 27.7246 7.83691 27.7734C 8.53027 27.8125 9.22363 27.8271 9.91699 27.8174ZM 27.6123 13.3301L 27.6123 30L 24.3896 30L 24.3896 13.3301L 27.6123 13.3301ZM 23.7744 8.29102C 23.7744 7.88086 23.8867 7.5 24.1113 7.14844C 24.3457 6.79688 24.6484 6.51855 25.0195 6.31348C 25.3906 6.1084 25.7666 6.00586 26.1475 6.00586C 26.8115 6.00586 27.3193 6.19141 27.6709 6.5625C 28.0322 6.93359 28.2129 7.40723 28.2129 7.9834C 28.2129 8.41309 28.1006 8.80371 27.876 9.15527C 27.6514 9.50684 27.3584 9.78027 26.9971 9.97559C 26.6357 10.1709 26.25 10.2686 25.8398 10.2686C 25.4687 10.2686 25.127 10.1904 24.8145 10.0342C 24.502 9.86816 24.248 9.63379 24.0527 9.33105C 23.8672 9.02832 23.7744 8.68164 23.7744 8.29102ZM 45.4688 19.3652C 45.4688 20.1562 45.459 20.7715 45.4395 21.2109C 45.4199 21.6406 45.376 22.0215 45.3076 22.3535L 35.0098 22.3535C 35.0195 22.4219 35.0244 22.5195 35.0244 22.6465C 35.1904 26.084 36.8896 27.8027 40.1221 27.8027C 40.708 27.8027 41.4502 27.71 42.3486 27.5244C 43.2471 27.3389 43.8916 27.1289 44.2822 26.8945L 44.8975 28.7402C 44.3604 29.1797 43.5449 29.541 42.4512 29.8242C 41.3574 30.0977 40.293 30.2344 39.2578 30.2344C 37.6855 30.2344 36.3477 29.8975 35.2441 29.2236C 34.1406 28.54 33.3008 27.5537 32.7246 26.2646C 32.1484 24.9756 31.8604 23.4277 31.8604 21.6211C 31.8604 19.9805 32.1436 18.5205 32.71 17.2412C 33.2861 15.9619 34.1309 14.9561 35.2441 14.2236C 36.3672 13.4814 37.7246 13.0957 39.3164 13.0664C 40.4395 13.0469 41.46 13.2764 42.3779 13.7549C 43.2959 14.2334 44.0283 14.9512 44.5752 15.9082C 45.1318 16.8652 45.4297 18.0176 45.4688 19.3652ZM 42.4512 20.2148C 42.4707 19.9023 42.4805 19.6729 42.4805 19.5264C 42.4805 18.2861 42.2266 17.2803 41.7188 16.5088C 41.2207 15.7373 40.3613 15.3516 39.1406 15.3516C 38.0566 15.3516 37.1533 15.7373 36.4307 16.5088C 35.7178 17.2705 35.2734 18.5059 35.0977 20.2148L 42.4512 20.2148ZM 60.8789 7.70508C 61.2793 7.70508 61.958 7.67578 62.915 7.61719C 64.2529 7.5293 65.2832 7.48535 66.0059 7.48535C 68.4375 7.48535 70.2539 7.9541 71.4551 8.8916C 72.666 9.81934 73.2715 11.1084 73.2715 12.7588C 73.2715 13.4814 73.1494 14.2041 72.9053 14.9268C 72.6709 15.6396 72.2998 16.2695 71.792 16.8164C 71.2939 17.3633 70.6592 17.7393 69.8877 17.9443C 70.7764 17.9834 71.5918 18.2568 72.334 18.7646C 73.0859 19.2725 73.6816 19.9365 74.1211 20.7568C 74.5605 21.5674 74.7803 22.4219 74.7803 23.3203C 74.7803 25.5078 74.0967 27.2021 72.7295 28.4033C 71.3623 29.6045 69.043 30.2051 65.7715 30.2051C 64.5215 30.2051 62.9248 30.1367 60.9814 30L 59.3555 30L 59.3555 7.69043L 60.8789 7.70508ZM 66.665 17.373C 67.3096 17.373 67.8906 17.2168 68.4082 16.9043C 68.9355 16.5918 69.3506 16.123 69.6533 15.498C 69.9561 14.873 70.1074 14.1162 70.1074 13.2275C 70.1074 12.0752 69.707 11.2158 68.9062 10.6494C 68.1055 10.0732 66.9385 9.78516 65.4053 9.78516C 64.9561 9.78516 64.4189 9.7998 63.7939 9.8291C 63.1787 9.8584 62.7832 9.90723 62.6074 9.97559L 62.6074 17.2998C 63.0273 17.3682 63.6475 17.4023 64.4678 17.4023L 65.6689 17.3877C 65.9033 17.3779 66.2354 17.373 66.665 17.373ZM 66.1523 27.832C 67.9004 27.832 69.2236 27.5195 70.1221 26.8945C 71.0205 26.2598 71.4697 25.1953 71.4697 23.7012C 71.4697 22.3145 71.0498 21.3037 70.21 20.6689C 69.3799 20.0244 68.0762 19.7021 66.2988 19.7021L 64.6289 19.6875C 63.6914 19.6875 63.0176 19.7168 62.6074 19.7754L 62.6074 27.4951C 62.832 27.6318 63.2715 27.7246 63.9258 27.7734C 64.5801 27.8125 65.3223 27.832 66.1523 27.832ZM 91.1719 19.3652C 91.1719 20.1562 91.1621 20.7715 91.1426 21.2109C 91.123 21.6406 91.0791 22.0215 91.0107 22.3535L 80.7129 22.3535C 80.7227 22.4219 80.7275 22.5195 80.7275 22.6465C 80.8936 26.084 82.5928 27.8027 85.8252 27.8027C 86.4111 27.8027 87.1533 27.71 88.0518 27.5244C 88.9502 27.3389 89.5947 27.1289 89.9854 26.8945L 90.6006 28.7402C 90.0635 29.1797 89.248 29.541 88.1543 29.8242C 87.0605 30.0977 85.9961 30.2344 84.9609 30.2344C 83.3887 30.2344 82.0508 29.8975 80.9473 29.2236C 79.8438 28.54 79.0039 27.5537 78.4277 26.2646C 77.8516 24.9756 77.5635 23.4277 77.5635 21.6211C 77.5635 19.9805 77.8467 18.5205 78.4131 17.2412C 78.9893 15.9619 79.834 14.9561 80.9473 14.2236C 82.0703 13.4814 83.4277 13.0957 85.0195 13.0664C 86.1426 13.0469 87.1631 13.2764 88.0811 13.7549C 88.999 14.2334 89.7314 14.9512 90.2783 15.9082C 90.835 16.8652 91.1328 18.0176 91.1719 19.3652ZM 88.1543 20.2148C 88.1738 19.9023 88.1836 19.6729 88.1836 19.5264C 88.1836 18.2861 87.9297 17.2803 87.4219 16.5088C 86.9238 15.7373 86.0645 15.3516 84.8438 15.3516C 83.7598 15.3516 82.8564 15.7373 82.1338 16.5088C 81.4209 17.2705 80.9766 18.5059 80.8008 20.2148L 88.1543 20.2148ZM 94.7314 26.6455C 94.917 26.7725 95.2588 26.9336 95.7568 27.1289C 96.2549 27.3145 96.8359 27.4805 97.5 27.627C 98.1641 27.7734 98.8232 27.8467 99.4775 27.8467C 100.435 27.8467 101.167 27.666 101.675 27.3047C 102.192 26.9434 102.451 26.4404 102.451 25.7959C 102.451 25.1807 102.158 24.6533 101.572 24.2139C 100.996 23.7744 100.142 23.3154 99.0088 22.8369C 97.5342 22.2119 96.3867 21.4795 95.5664 20.6396C 94.7559 19.7998 94.3506 18.7402 94.3506 17.4609C 94.3506 16.5137 94.6143 15.7129 95.1416 15.0586C 95.6787 14.3945 96.4014 13.8965 97.3096 13.5645C 98.2178 13.2324 99.2432 13.0664 100.386 13.0664C 101.284 13.0664 102.129 13.1641 102.92 13.3594C 103.711 13.5547 104.277 13.7451 104.619 13.9307L 104.092 16.3623C 103.818 16.1279 103.335 15.918 102.642 15.7324C 101.948 15.5371 101.23 15.4395 100.488 15.4395C 99.4629 15.4395 98.6768 15.6055 98.1299 15.9375C 97.5928 16.2695 97.3242 16.7236 97.3242 17.2998C 97.3242 17.7881 97.4463 18.208 97.6904 18.5596C 97.9443 18.9111 98.3008 19.2188 98.7598 19.4824C 99.2188 19.7461 99.8193 20.0293 100.562 20.332C 101.987 20.9082 103.159 21.6064 104.077 22.4268C 104.995 23.2373 105.454 24.2822 105.454 25.5615C 105.454 26.5576 105.215 27.4072 104.736 28.1104C 104.268 28.8037 103.589 29.3311 102.7 29.6924C 101.821 30.0537 100.776 30.2344 99.5654 30.2344C 98.4814 30.2344 97.4268 30.1123 96.4014 29.8682C 95.3857 29.624 94.668 29.3506 94.248 29.0479L 94.7314 26.6455ZM 110.273 15.7324L 108.105 15.7324L 108.105 13.9893L 108.633 13.8428C 109.082 13.7158 109.414 13.6133 109.629 13.5352C 109.844 13.4473 110.029 13.3301 110.186 13.1836C 110.352 13.0273 110.483 12.8174 110.581 12.5537C 110.728 12.1826 110.942 11.5137 111.226 10.5469L 111.548 9.49219L 113.481 9.49219L 113.481 13.3008L 118.198 13.3008L 118.198 15.7324L 113.481 15.7324L 113.481 24.1846C 113.481 25.2979 113.525 26.0889 113.613 26.5576C 113.701 27.0166 113.862 27.3145 114.097 27.4512C 114.341 27.5879 114.751 27.6562 115.327 27.6562C 115.747 27.6562 116.255 27.5879 116.851 27.4512C 117.456 27.3145 117.9 27.1729 118.184 27.0264L 118.74 28.8721C 118.262 29.2236 117.573 29.541 116.675 29.8242C 115.786 30.0977 114.937 30.2344 114.126 30.2344C 112.905 30.2344 111.958 29.9316 111.284 29.3262C 110.61 28.7109 110.273 27.6025 110.273 26.001L 110.273 15.7324ZM 134.414 19.3652C 134.414 20.1562 134.404 20.7715 134.385 21.2109C 134.365 21.6406 134.321 22.0215 134.253 22.3535L 123.955 22.3535C 123.965 22.4219 123.97 22.5195 123.97 22.6465C 124.136 26.084 125.835 27.8027 129.067 27.8027C 129.653 27.8027 130.396 27.71 131.294 27.5244C 132.192 27.3389 132.837 27.1289 133.228 26.8945L 133.843 28.7402C 133.306 29.1797 132.49 29.541 131.396 29.8242C 130.303 30.0977 129.238 30.2344 128.203 30.2344C 126.631 30.2344 125.293 29.8975 124.189 29.2236C 123.086 28.54 122.246 27.5537 121.67 26.2646C 121.094 24.9756 120.806 23.4277 120.806 21.6211C 120.806 19.9805 121.089 18.5205 121.655 17.2412C 122.231 15.9619 123.076 14.9561 124.189 14.2236C 125.312 13.4814 126.67 13.0957 128.262 13.0664C 129.385 13.0469 130.405 13.2764 131.323 13.7549C 132.241 14.2334 132.974 14.9512 133.521 15.9082C 134.077 16.8652 134.375 18.0176 134.414 19.3652ZM 131.396 20.2148C 131.416 19.9023 131.426 19.6729 131.426 19.5264C 131.426 18.2861 131.172 17.2803 130.664 16.5088C 130.166 15.7373 129.307 15.3516 128.086 15.3516C 127.002 15.3516 126.099 15.7373 125.376 16.5088C 124.663 17.2705 124.219 18.5059 124.043 20.2148L 131.396 20.2148ZM 138.062 35.5957C 138.608 35.3223 139.062 34.8291 139.424 34.1162C 139.795 33.4131 139.98 32.6465 139.98 31.8164C 139.98 31.4062 139.893 30.9766 139.717 30.5273C 139.551 30.0781 139.326 29.6973 139.043 29.3848C 138.77 29.0723 138.486 28.9014 138.193 28.8721L 138.193 27.9492L 140.229 26.0303C 140.874 26.2646 141.406 26.6455 141.826 27.1729C 142.246 27.6904 142.549 28.2715 142.734 28.916C 142.93 29.5508 143.027 30.1758 143.027 30.791C 143.027 31.8262 142.852 32.793 142.5 33.6914C 142.148 34.5898 141.675 35.3516 141.079 35.9766C 140.493 36.6113 139.849 37.0605 139.146 37.3242L 138.062 35.9766L 138.062 35.5957ZM 160.62 7.70508L 160.62 30L 157.31 30L 157.31 7.70508L 160.62 7.70508ZM 185.244 13.0518C 186.406 13.0518 187.334 13.2617 188.027 13.6816C 188.721 14.1016 189.229 14.7852 189.551 15.7324C 189.883 16.6699 190.049 17.9395 190.049 19.541L 190.049 30L 186.826 30L 186.826 19.585C 186.826 18.6084 186.748 17.8467 186.592 17.2998C 186.436 16.7432 186.138 16.3379 185.698 16.084C 185.259 15.8203 184.619 15.708 183.779 15.7471C 183.184 15.7666 182.51 15.9131 181.758 16.1865C 181.006 16.4502 180.317 16.8018 179.692 17.2412C 179.78 17.915 179.824 18.6816 179.824 19.541L 179.824 30L 176.602 30L 176.602 19.585C 176.602 18.6084 176.519 17.8467 176.353 17.2998C 176.196 16.7432 175.898 16.3379 175.459 16.084C 175.02 15.8203 174.385 15.708 173.555 15.7471C 172.979 15.7666 172.305 15.9131 171.533 16.1865C 170.771 16.4502 170.078 16.8115 169.453 17.2705L 169.453 30L 166.23 30L 166.23 13.3301L 169.102 13.3301L 169.116 15.0879C 169.868 14.5801 170.762 14.1211 171.797 13.7109C 172.842 13.3008 173.862 13.0811 174.858 13.0518C 175.962 13.0225 176.855 13.1738 177.539 13.5059C 178.232 13.8281 178.76 14.3701 179.121 15.1318C 179.863 14.5752 180.801 14.0918 181.934 13.6816C 183.076 13.2617 184.18 13.0518 185.244 13.0518ZM 214.131 13.0518C 215.293 13.0518 216.221 13.2617 216.914 13.6816C 217.607 14.1016 218.115 14.7852 218.438 15.7324C 218.77 16.6699 218.936 17.9395 218.936 19.541L 218.936 30L 215.713 30L 215.713 19.585C 215.713 18.6084 215.635 17.8467 215.479 17.2998C 215.322 16.7432 215.024 16.3379 214.585 16.084C 214.146 15.8203 213.506 15.708 212.666 15.7471C 212.07 15.7666 211.396 15.9131 210.645 16.1865C 209.893 16.4502 209.204 16.8018 208.579 17.2412C 208.667 17.915 208.711 18.6816 208.711 19.541L 208.711 30L 205.488 30L 205.488 19.585C 205.488 18.6084 205.405 17.8467 205.239 17.2998C 205.083 16.7432 204.785 16.3379 204.346 16.084C 203.906 15.8203 203.271 15.708 202.441 15.7471C 201.865 15.7666 201.191 15.9131 200.42 16.1865C 199.658 16.4502 198.965 16.8115 198.34 17.2705L 198.34 30L 195.117 30L 195.117 13.3301L 197.988 13.3301L 198.003 15.0879C 198.755 14.5801 199.648 14.1211 200.684 13.7109C 201.729 13.3008 202.749 13.0811 203.745 13.0518C 204.849 13.0225 205.742 13.1738 206.426 13.5059C 207.119 13.8281 207.646 14.3701 208.008 15.1318C 208.75 14.5752 209.687 14.0918 210.82 13.6816C 211.963 13.2617 213.066 13.0518 214.131 13.0518ZM 236.455 19.3652C 236.455 20.1562 236.445 20.7715 236.426 21.2109C 236.406 21.6406 236.362 22.0215 236.294 22.3535L 225.996 22.3535C 226.006 22.4219 226.011 22.5195 226.011 22.6465C 226.177 26.084 227.876 27.8027 231.108 27.8027C 231.694 27.8027 232.437 27.71 233.335 27.5244C 234.233 27.3389 234.878 27.1289 235.269 26.8945L 235.884 28.7402C 235.347 29.1797 234.531 29.541 233.438 29.8242C 232.344 30.0977 231.279 30.2344 230.244 30.2344C 228.672 30.2344 227.334 29.8975 226.23 29.2236C 225.127 28.54 224.287 27.5537 223.711 26.2646C 223.135 24.9756 222.847 23.4277 222.847 21.6211C 222.847 19.9805 223.13 18.5205 223.696 17.2412C 224.272 15.9619 225.117 14.9561 226.23 14.2236C 227.354 13.4814 228.711 13.0957 230.303 13.0664C 231.426 13.0469 232.446 13.2764 233.364 13.7549C 234.282 14.2334 235.015 14.9512 235.562 15.9082C 236.118 16.8652 236.416 18.0176 236.455 19.3652ZM 233.438 20.2148C 233.457 19.9023 233.467 19.6729 233.467 19.5264C 233.467 18.2861 233.213 17.2803 232.705 16.5088C 232.207 15.7373 231.348 15.3516 230.127 15.3516C 229.043 15.3516 228.14 15.7373 227.417 16.5088C 226.704 17.2705 226.26 18.5059 226.084 20.2148L 233.438 20.2148ZM 247.793 13.0518C 248.574 13.0518 249.116 13.1201 249.419 13.2568L 249.419 16.2744C 249.214 16.1572 248.945 16.0645 248.613 15.9961C 248.291 15.918 247.827 15.8789 247.222 15.8789C 246.479 15.8789 245.791 16.0156 245.156 16.2891C 244.531 16.5527 244.004 16.875 243.574 17.2559L 243.574 30L 240.352 30L 240.352 13.3301L 243.062 13.3301L 243.281 15.1758C 243.496 14.8828 243.843 14.5703 244.321 14.2383C 244.81 13.9063 245.361 13.6279 245.977 13.4033C 246.602 13.1689 247.207 13.0518 247.793 13.0518Z"/>
<path id="path7_fill" d="M 0 0L 320 0L 320 230L 0 230L 0 0Z"/>
<path id="path8_fill" d="M 0 0L 320 0L 320 586L 0 586L 0 0Z"/>
<path id="path9_fill" d="M 0 0L 320 0L 320 59L 0 59L 0 0Z"/>
<path id="path10_fill" d="M 3.1 14.88L 5.26 14.04L 5.26 10.88L 3.06 10.88L 3.1 14.88ZM 3.06 9.72L 5.26 9.72L 5.26 6.52L 3.06 6.52L 3.06 9.72ZM 3.06 5.34L 5.26 5.34L 5.26 2.16L 3.06 2.16L 3.06 5.34ZM 4.94 15.34C 3.76667 15.8333 2.56667 16.26 1.34 16.62L 0.92 15.58L 1.94 15.3L 1.96 2.16L 0.9 2.12L 0.9 1L 7.2 1L 7.2 2.12L 6.42 2.12L 6.4 18.16L 5.3 18.16L 5.3 15.34L 4.94 15.34ZM 9.12 13.42C 9.21333 13.7267 9.66 13.88 10.46 13.88C 10.6333 13.88 10.9 13.8667 11.26 13.84L 11.28 10.54L 12.42 10.54C 12.42 13.18 12.4067 14.7467 12.38 15.24C 12.3667 15.6133 12.2333 15.98 11.98 16.34C 11.7267 16.7 11.42 17.0067 11.06 17.26C 10.7 17.5267 10.3467 17.7467 10 17.92C 9.65333 18.1067 9.33333 18.2533 9.04 18.36L 8.48 17.38C 9.01333 17.2067 9.46667 17.02 9.84 16.82C 10.2133 16.6333 10.4867 16.44 10.66 16.24C 10.8467 16.04 10.9733 15.88 11.04 15.76C 11.12 15.6267 11.1933 15.4667 11.26 15.28L 11.32 15.02L 8.28 14.94C 8.16 14.8733 8.08 14.8 8.04 14.72L 8.02 10.54L 9.12 10.54L 9.12 13.42ZM 18.62 14.9L 18.58 14.94L 15.3 14.98L 15.28 18.24L 14.1 18.24L 14.1 10.26L 15.28 10.26L 15.28 13.84L 17.22 13.86L 17.54 13.56L 17.54 10.66L 18.62 10.66L 18.62 14.9ZM 10.14 7.98C 10.2333 7.98 10.46 7.95333 10.82 7.9C 11.1933 7.83333 11.3933 7.8 11.42 7.8L 11.66 7.8L 11.62 7.56C 11.58 7.38667 11.5067 7.12 11.4 6.76L 12.4 6.5C 12.4933 6.76667 12.6333 7.32 12.82 8.16C 13.0067 9 13.1 9.46 13.1 9.54L 12.1 9.7L 11.94 8.88C 11.7267 8.90667 11.0533 8.99333 9.92 9.14C 8.8 9.28667 8.01333 9.4 7.56 9.48C 7.49333 9.2 7.38 8.88 7.22 8.52L 8.4 8.32L 9.86 6.34C 8.75333 5.26 7.87333 4.53333 7.22 4.16L 7.76 3.28C 7.94667 3.4 8.06667 3.48667 8.12 3.54L 8.32 3.8L 8.46 3.5C 8.74 2.94 9.14667 1.92 9.68 0.44L 10.7 0.859999C 10.14 2.3 9.62 3.45333 9.14 4.32L 10.4 5.46L 10.52 5.24C 10.9467 4.41333 11.2933 3.58667 11.56 2.76L 12.64 3.02C 12.6 3.7 11.8867 5.01333 10.5 6.96L 9.74 7.98L 10.14 7.98ZM 16.2 7.58C 16.3333 7.58 16.8667 7.51333 17.8 7.38L 17.8 7.2C 17.8 6.98667 17.7533 6.7 17.66 6.34C 18.1 6.26 18.42 6.2 18.62 6.16C 18.82 6.77333 18.9733 7.74667 19.08 9.08L 18.14 9.22L 18.02 8.42L 13.9 9.12C 13.8467 8.93333 13.7467 8.60667 13.6 8.14L 14.08 8.04C 14.1733 8.02667 14.2667 7.99333 14.36 7.94C 14.44 7.86 14.6267 7.63333 14.92 7.26C 15.2133 6.88667 15.44 6.58667 15.6 6.36C 14.6 5.38667 13.7333 4.69333 13 4.28L 13.52 3.38C 13.6267 3.42 13.7533 3.5 13.9 3.62L 14.1 3.76L 14.2 3.54C 14.8533 2.19333 15.32 1.14 15.6 0.38L 16.58 0.82C 16.2867 1.58 15.74 2.75333 14.94 4.34L 16.08 5.46L 16.2 5.24C 16.7733 4.32 17.18 3.32667 17.42 2.26C 17.7533 2.36667 18.1267 2.46 18.54 2.54C 18.3133 3.74 17.5867 5.18 16.36 6.86L 15.78 7.58L 16.2 7.58ZM 0.92 15.58L 0.86 15.44L 0.72 15.64L 0.92 15.58ZM 12.64 3.02L 12.8 3.06L 12.64 2.88C 12.64 2.90667 12.64 2.93333 12.64 2.96C 12.64 2.98667 12.64 3.00667 12.64 3.02ZM 22.62 11.94C 22.5 13.4067 22.26 15.1467 21.9 17.16L 20.84 16.92C 21.1867 14.92 21.4067 13.2067 21.5 11.78L 22.62 11.94ZM 24.78 1.04C 24.42 1.86667 23.8133 2.98667 22.96 4.4C 23.28 4.74667 23.72 5.13333 24.28 5.56L 24.46 5.7L 24.56 5.5C 25.3867 4.20667 25.9867 2.98667 26.36 1.84L 27.44 2.14C 27.1733 3.40667 26.1733 5.14 24.44 7.34L 23.28 8.7L 23.72 8.7C 23.8 8.7 23.92 8.68667 24.08 8.66C 24.24 8.63333 24.52 8.6 24.92 8.56C 25.32 8.50667 25.8 8.46 26.36 8.42L 26.58 8.4L 26.54 8.18C 26.5 7.94 26.3867 7.55333 26.2 7.02L 27.26 6.72C 27.5933 7.72 27.94 8.86667 28.3 10.16L 27.22 10.4L 27 9.66L 26.92 9.48L 25.24 9.68L 25.2 18.28L 24 18.28L 24 9.84L 21.12 10.1C 21.0267 9.62 20.9467 9.27333 20.88 9.06L 21.88 8.96C 22.4667 8.32 23.1067 7.54 23.8 6.62C 22.8533 5.68667 21.8867 4.93333 20.9 4.36L 21.4 3.4C 21.52 3.45333 21.6733 3.53333 21.86 3.64L 22.14 3.8L 22.24 3.62C 22.6667 2.87333 23.1933 1.84667 23.82 0.54L 24.78 1.04ZM 30.82 16.14L 36.9 16.14L 36.9 12.48L 36.62 12.2L 31.02 12.2L 30.82 12.44L 30.82 16.14ZM 30.84 17.38C 30.8 17.6733 30.78 17.96 30.78 18.24L 29.58 18.24L 29.58 11L 38.02 11C 38.0733 11.04 38.1067 11.0667 38.12 11.08L 38.12 18.24L 36.92 18.24L 36.92 17.42L 30.84 17.38ZM 34.26 5.76C 35.18 4.8 35.92 3.82667 36.48 2.84L 36.4 2.2L 31.52 2.2L 31.52 2.56C 32.2933 3.82667 33.1133 4.89333 33.98 5.76L 34.12 5.9L 34.26 5.76ZM 34.06 7.52C 32.74 8.46667 31.2 9.32 29.44 10.08L 28.74 9.1C 30.4067 8.38 31.8533 7.61333 33.08 6.8L 33.26 6.68L 33.1 6.5C 32.3133 5.64667 31.5733 4.76 30.88 3.84L 30.72 3.64L 30.56 3.84C 29.7867 4.77333 29.1933 5.42667 28.78 5.8L 27.98 4.94C 29.1 4.1 30.0667 2.74667 30.88 0.88L 31.08 0.44L 32.22 0.400001L 32 1.04L 37.34 1.1L 38.26 1.72C 37.38 3.73333 36.36 5.34667 35.2 6.56L 35.04 6.72L 35.22 6.86C 36.22 7.63333 37.5 8.36 39.06 9.04L 38.24 10.04C 36.8667 9.36 35.56 8.52 34.32 7.52L 34.06 7.52ZM 27.14 16.26L 26.44 11.92C 26.7733 11.8267 27.14 11.7467 27.54 11.68L 28.26 16.08L 27.14 16.26ZM 27.14 16.26L 26.98 16.28L 27.14 16.32L 27.14 16.26ZM 20.9 4.36L 20.88 4.36L 20.88 4.38L 20.9 4.36ZM 32.22 0.400001L 32.42 0.400001L 32.52 0.400001L 32.34 0.119999L 32.22 0.400001Z"/>
<path id="path11_fill" d="M 65.901 6.2L 65.901 23L 64.677 23L 64.677 15.008L 53.445 15.008L 53.445 23L 52.221 23L 52.221 6.2L 53.445 6.2L 53.445 13.928L 64.677 13.928L 64.677 6.2L 65.901 6.2ZM 81.9678 17.024L 71.1918 17.024C 71.2238 18 71.4718 18.872 71.9358 19.64C 72.3998 20.392 73.0238 20.976 73.8078 21.392C 74.6078 21.808 75.5038 22.016 76.4958 22.016C 77.3118 22.016 78.0638 21.872 78.7518 21.584C 79.4558 21.28 80.0398 20.84 80.5038 20.264L 81.1998 21.056C 80.6558 21.712 79.9678 22.216 79.1358 22.568C 78.3198 22.92 77.4318 23.096 76.4718 23.096C 75.2238 23.096 74.1118 22.824 73.1358 22.28C 72.1598 21.736 71.3918 20.984 70.8318 20.024C 70.2878 19.064 70.0158 17.968 70.0158 16.736C 70.0158 15.52 70.2718 14.432 70.7838 13.472C 71.3118 12.496 72.0318 11.736 72.9438 11.192C 73.8558 10.648 74.8798 10.376 76.0158 10.376C 77.1518 10.376 78.1678 10.648 79.0638 11.192C 79.9758 11.72 80.6878 12.464 81.1998 13.424C 81.7278 14.384 81.9918 15.472 81.9918 16.688L 81.9678 17.024ZM 76.0158 11.432C 75.1358 11.432 74.3438 11.632 73.6398 12.032C 72.9358 12.416 72.3678 12.968 71.9358 13.688C 71.5198 14.392 71.2798 15.192 71.2158 16.088L 80.8158 16.088C 80.7678 15.192 80.5278 14.392 80.0958 13.688C 79.6638 12.984 79.0958 12.432 78.3918 12.032C 77.6878 11.632 76.8958 11.432 76.0158 11.432ZM 86.8562 13.208C 87.2402 12.296 87.8402 11.6 88.6562 11.12C 89.4722 10.624 90.4642 10.376 91.6322 10.376L 91.6322 11.552L 91.3442 11.528C 89.9522 11.528 88.8642 11.968 88.0802 12.848C 87.2962 13.712 86.9042 14.92 86.9042 16.472L 86.9042 23L 85.7042 23L 85.7042 10.472L 86.8562 10.472L 86.8562 13.208ZM 101.227 10.376C 102.395 10.376 103.451 10.648 104.395 11.192C 105.339 11.72 106.075 12.472 106.603 13.448C 107.147 14.408 107.419 15.504 107.419 16.736C 107.419 17.968 107.147 19.064 106.603 20.024C 106.075 20.984 105.339 21.736 104.395 22.28C 103.451 22.824 102.395 23.096 101.227 23.096C 100.107 23.096 99.0905 22.832 98.1785 22.304C 97.2825 21.76 96.5865 21.008 96.0905 20.048L 96.0905 23L 94.9385 23L 94.9385 5.192L 96.1385 5.192L 96.1385 13.328C 96.6345 12.4 97.3305 11.68 98.2265 11.168C 99.1225 10.64 100.123 10.376 101.227 10.376ZM 101.155 22.016C 102.115 22.016 102.979 21.792 103.747 21.344C 104.515 20.896 105.115 20.272 105.547 19.472C 105.995 18.672 106.219 17.76 106.219 16.736C 106.219 15.712 105.995 14.8 105.547 14C 105.115 13.2 104.515 12.576 103.747 12.128C 102.979 11.68 102.115 11.456 101.155 11.456C 100.195 11.456 99.3305 11.68 98.5625 12.128C 97.8105 12.576 97.2105 13.2 96.7625 14C 96.3305 14.8 96.1145 15.712 96.1145 16.736C 96.1145 17.76 96.3305 18.672 96.7625 19.472C 97.2105 20.272 97.8105 20.896 98.5625 21.344C 99.3305 21.792 100.195 22.016 101.155 22.016ZM 115.311 10.376C 116.863 10.376 118.055 10.776 118.887 11.576C 119.719 12.36 120.135 13.52 120.135 15.056L 120.135 23L 118.983 23L 118.983 20.768C 118.583 21.504 117.999 22.08 117.231 22.496C 116.463 22.896 115.543 23.096 114.471 23.096C 113.079 23.096 111.975 22.768 111.159 22.112C 110.359 21.456 109.959 20.592 109.959 19.52C 109.959 18.48 110.327 17.64 111.063 17C 111.815 16.344 113.007 16.016 114.639 16.016L 118.935 16.016L 118.935 15.008C 118.935 13.84 118.615 12.952 117.975 12.344C 117.351 11.736 116.431 11.432 115.215 11.432C 114.383 11.432 113.583 11.576 112.815 11.864C 112.063 12.152 111.423 12.536 110.895 13.016L 110.295 12.152C 110.919 11.592 111.671 11.16 112.551 10.856C 113.431 10.536 114.351 10.376 115.311 10.376ZM 114.639 22.112C 115.679 22.112 116.559 21.872 117.279 21.392C 118.015 20.912 118.567 20.216 118.935 19.304L 118.935 16.952L 114.663 16.952C 113.431 16.952 112.535 17.176 111.975 17.624C 111.431 18.072 111.159 18.688 111.159 19.472C 111.159 20.288 111.463 20.936 112.071 21.416C 112.679 21.88 113.535 22.112 114.639 22.112ZM 125.079 5.192L 126.279 5.192L 126.279 23L 125.079 23L 125.079 5.192ZM 131.337 10.472L 132.537 10.472L 132.537 23L 131.337 23L 131.337 10.472ZM 131.937 7.424C 131.665 7.424 131.433 7.336 131.241 7.16C 131.049 6.968 130.953 6.736 130.953 6.464C 130.953 6.192 131.049 5.96 131.241 5.768C 131.433 5.576 131.665 5.48 131.937 5.48C 132.209 5.48 132.441 5.576 132.633 5.768C 132.825 5.944 132.921 6.168 132.921 6.44C 132.921 6.712 132.825 6.944 132.633 7.136C 132.441 7.328 132.209 7.424 131.937 7.424ZM 141.363 6.128C 139.795 6.128 139.011 6.968 139.011 8.648L 139.011 10.472L 143.019 10.472L 143.019 11.504L 139.035 11.504L 139.035 23L 137.835 23L 137.835 11.504L 135.531 11.504L 135.531 10.472L 137.835 10.472L 137.835 8.552C 137.835 7.496 138.139 6.656 138.747 6.032C 139.355 5.408 140.211 5.096 141.315 5.096C 141.795 5.096 142.251 5.168 142.683 5.312C 143.131 5.44 143.499 5.64 143.787 5.912L 143.307 6.824C 142.795 6.36 142.147 6.128 141.363 6.128ZM 155.843 17.024L 145.067 17.024C 145.099 18 145.347 18.872 145.811 19.64C 146.275 20.392 146.899 20.976 147.683 21.392C 148.483 21.808 149.379 22.016 150.371 22.016C 151.187 22.016 151.939 21.872 152.627 21.584C 153.331 21.28 153.915 20.84 154.379 20.264L 155.075 21.056C 154.531 21.712 153.843 22.216 153.011 22.568C 152.195 22.92 151.307 23.096 150.347 23.096C 149.099 23.096 147.987 22.824 147.011 22.28C 146.035 21.736 145.267 20.984 144.707 20.024C 144.163 19.064 143.891 17.968 143.891 16.736C 143.891 15.52 144.147 14.432 144.659 13.472C 145.187 12.496 145.907 11.736 146.819 11.192C 147.731 10.648 148.755 10.376 149.891 10.376C 151.027 10.376 152.043 10.648 152.939 11.192C 153.851 11.72 154.563 12.464 155.075 13.424C 155.603 14.384 155.867 15.472 155.867 16.688L 155.843 17.024ZM 149.891 11.432C 149.011 11.432 148.219 11.632 147.515 12.032C 146.811 12.416 146.243 12.968 145.811 13.688C 145.395 14.392 145.155 15.192 145.091 16.088L 154.691 16.088C 154.643 15.192 154.403 14.392 153.971 13.688C 153.539 12.984 152.971 12.432 152.267 12.032C 151.563 11.632 150.771 11.432 149.891 11.432ZM 179.807 6.2L 179.807 23L 178.799 23L 167.351 8.408L 167.351 23L 166.127 23L 166.127 6.2L 167.159 6.2L 178.583 20.792L 178.583 6.2L 179.807 6.2ZM 196.258 10.472L 196.258 23L 195.106 23L 195.106 20.312C 194.69 21.192 194.074 21.88 193.258 22.376C 192.442 22.856 191.482 23.096 190.378 23.096C 188.746 23.096 187.466 22.64 186.538 21.728C 185.61 20.816 185.146 19.504 185.146 17.792L 185.146 10.472L 186.346 10.472L 186.346 17.696C 186.346 19.104 186.706 20.176 187.426 20.912C 188.146 21.648 189.162 22.016 190.474 22.016C 191.882 22.016 192.994 21.576 193.81 20.696C 194.642 19.816 195.058 18.632 195.058 17.144L 195.058 10.472L 196.258 10.472ZM 207.561 22.208C 207.257 22.496 206.873 22.72 206.409 22.88C 205.961 23.024 205.489 23.096 204.993 23.096C 203.905 23.096 203.065 22.8 202.473 22.208C 201.881 21.6 201.585 20.76 201.585 19.688L 201.585 11.504L 199.281 11.504L 199.281 10.472L 201.585 10.472L 201.585 7.736L 202.785 7.736L 202.785 10.472L 206.769 10.472L 206.769 11.504L 202.785 11.504L 202.785 19.568C 202.785 20.384 202.977 21.008 203.361 21.44C 203.761 21.856 204.345 22.064 205.113 22.064C 205.897 22.064 206.545 21.832 207.057 21.368L 207.561 22.208ZM 212.059 13.208C 212.443 12.296 213.043 11.6 213.859 11.12C 214.675 10.624 215.667 10.376 216.835 10.376L 216.835 11.552L 216.547 11.528C 215.155 11.528 214.067 11.968 213.283 12.848C 212.499 13.712 212.107 14.92 212.107 16.472L 212.107 23L 210.907 23L 210.907 10.472L 212.059 10.472L 212.059 13.208ZM 220.142 10.472L 221.342 10.472L 221.342 23L 220.142 23L 220.142 10.472ZM 220.742 7.424C 220.47 7.424 220.238 7.336 220.046 7.16C 219.854 6.968 219.758 6.736 219.758 6.464C 219.758 6.192 219.854 5.96 220.046 5.768C 220.238 5.576 220.47 5.48 220.742 5.48C 221.014 5.48 221.246 5.576 221.438 5.768C 221.63 5.944 221.726 6.168 221.726 6.44C 221.726 6.712 221.63 6.944 221.438 7.136C 221.246 7.328 221.014 7.424 220.742 7.424ZM 232.615 22.208C 232.311 22.496 231.927 22.72 231.463 22.88C 231.015 23.024 230.543 23.096 230.047 23.096C 228.959 23.096 228.119 22.8 227.527 22.208C 226.935 21.6 226.639 20.76 226.639 19.688L 226.639 11.504L 224.335 11.504L 224.335 10.472L 226.639 10.472L 226.639 7.736L 227.839 7.736L 227.839 10.472L 231.823 10.472L 231.823 11.504L 227.839 11.504L 227.839 19.568C 227.839 20.384 228.031 21.008 228.415 21.44C 228.815 21.856 229.399 22.064 230.167 22.064C 230.951 22.064 231.599 21.832 232.111 21.368L 232.615 22.208ZM 235.962 10.472L 237.162 10.472L 237.162 23L 235.962 23L 235.962 10.472ZM 236.562 7.424C 236.29 7.424 236.058 7.336 235.866 7.16C 235.674 6.968 235.578 6.736 235.578 6.464C 235.578 6.192 235.674 5.96 235.866 5.768C 236.058 5.576 236.29 5.48 236.562 5.48C 236.834 5.48 237.066 5.576 237.258 5.768C 237.45 5.944 237.546 6.168 237.546 6.44C 237.546 6.712 237.45 6.944 237.258 7.136C 237.066 7.328 236.834 7.424 236.562 7.424ZM 247.116 23.096C 245.932 23.096 244.86 22.824 243.9 22.28C 242.956 21.736 242.212 20.984 241.668 20.024C 241.124 19.048 240.852 17.952 240.852 16.736C 240.852 15.52 241.124 14.432 241.668 13.472C 242.212 12.496 242.956 11.736 243.9 11.192C 244.86 10.648 245.932 10.376 247.116 10.376C 248.3 10.376 249.364 10.648 250.308 11.192C 251.268 11.736 252.02 12.496 252.564 13.472C 253.108 14.432 253.38 15.52 253.38 16.736C 253.38 17.952 253.108 19.048 252.564 20.024C 252.02 20.984 251.268 21.736 250.308 22.28C 249.364 22.824 248.3 23.096 247.116 23.096ZM 247.116 22.016C 248.076 22.016 248.932 21.792 249.684 21.344C 250.452 20.896 251.052 20.272 251.484 19.472C 251.932 18.672 252.156 17.76 252.156 16.736C 252.156 15.712 251.932 14.8 251.484 14C 251.052 13.2 250.452 12.576 249.684 12.128C 248.932 11.68 248.076 11.456 247.116 11.456C 246.156 11.456 245.292 11.68 244.524 12.128C 243.772 12.576 243.172 13.2 242.724 14C 242.292 14.8 242.076 15.712 242.076 16.736C 242.076 17.76 242.292 18.672 242.724 19.472C 243.172 20.272 243.772 20.896 244.524 21.344C 245.292 21.792 246.156 22.016 247.116 22.016ZM 263.223 10.376C 264.791 10.376 266.031 10.832 266.943 11.744C 267.855 12.656 268.311 13.968 268.311 15.68L 268.311 23L 267.111 23L 267.111 15.776C 267.111 14.368 266.751 13.296 266.031 12.56C 265.327 11.824 264.335 11.456 263.055 11.456C 261.583 11.456 260.423 11.896 259.575 12.776C 258.727 13.656 258.303 14.84 258.303 16.328L 258.303 23L 257.103 23L 257.103 10.472L 258.255 10.472L 258.255 13.184C 258.687 12.304 259.327 11.616 260.175 11.12C 261.039 10.624 262.055 10.376 263.223 10.376Z"/>
<path id="path12_fill" d="M 5.82489 0.384183C 5.70443 1.05221 5.57302 1.6381 5.43065 2.14185C 5.28828 2.64561 5.1733 3.007 5.08569 3.22603C 5.00903 3.44505 4.9707 3.58742 4.9707 3.65312L 4.9707 14.8562L 3.93581 14.8562L 3.93581 6.56068L 3.6894 6.42926L 3.14732 7.20132L 2.17813 6.77423C 3.54704 4.71539 4.42861 2.53062 4.82286 0.219914L 5.82489 0.384183ZM 8.0918 4.58945L 15.1225 4.57303L 15.0896 1.59977L 8.0918 1.59977L 8.0918 4.58945ZM 12.3956 8.72902C 12.5818 8.9809 12.7515 9.2054 12.9049 9.40252C 13.0691 9.58869 13.332 9.8789 13.6934 10.2731C 14.0657 10.6674 14.5421 11.0945 15.1225 11.5544C 15.7029 12.0034 16.3655 12.4579 17.1101 12.9179L 16.2724 13.6735C 14.8597 12.7207 13.5291 11.5161 12.2806 10.0596L 11.985 9.71463L 11.9521 14.8562L 10.9336 14.8562L 10.9336 10.2074L 10.7529 9.92818L 10.6051 10.1089C 9.32381 11.6201 8.01514 12.7591 6.67909 13.5257L 5.90703 12.7207C 7.70303 11.6694 9.2143 10.3772 10.4408 8.84401L 10.6544 8.58118L 6.16986 8.54832L 6.16986 7.49701L 10.9008 7.49701L 10.9336 5.70648L 6.95835 5.62435L 6.95835 0.548451L 6.97477 0.532024L 16.1738 0.532024L 16.1738 5.67363L 11.985 5.67363L 11.9521 7.48058L 16.8802 7.49701L 16.8802 8.54832L 12.5763 8.54832L 12.3956 8.72902ZM 2.17813 6.77423L 1.98101 6.69209L 1.93173 6.69209L 2.06315 6.95492L 2.17813 6.77423ZM 6.95835 5.62435L 6.90907 5.62435L 6.95835 5.6572L 6.95835 5.62435ZM 30.7444 7.56271C 30.9306 7.4751 31.0292 7.39297 31.0401 7.31631C 31.0401 7.30536 31.0401 7.29441 31.0401 7.28346L 31.0401 5.52579L 20.9376 5.52579L 20.9376 7.56271L 30.7444 7.56271ZM 21.2826 2.33898C 21.1402 2.33898 21.0252 2.44849 20.9376 2.66751L 20.9376 4.42519L 31.0401 4.42519L 31.0072 2.61823L 30.8101 2.33898L 21.2826 2.33898ZM 27.7219 11.8008C 29.8136 10.87 31.3851 10.0541 32.4364 9.35324L 33.077 10.2896C 32.0805 10.9247 30.7718 11.6147 29.151 12.3594L 28.8389 12.4908L 29.1346 12.655C 30.2516 13.2355 31.6807 13.6571 33.422 13.9199L 32.8799 14.9548C 30.8977 14.7467 29.1291 14.0623 27.574 12.9014C 26.0299 11.7406 24.9512 10.3115 24.3379 8.61403L 20.9376 8.61403L 20.9047 13.6242L 21.069 13.6242C 22.4379 13.5695 23.9328 13.334 25.5535 12.9179L 25.8328 13.9363C 24.1244 14.3853 21.7425 14.7029 18.6871 14.8891L 18.6378 13.8049L 19.8041 13.7556L 19.8534 1.40265L 19.952 1.32051L 25.455 1.28766L 25.4878 0.104926L 26.6377 0.104926L 26.6377 1.23838L 32.0421 1.32051C 32.0859 1.32051 32.1188 1.35337 32.1407 1.41907L 32.0914 8.5319L 32.0257 8.59761L 25.6521 8.61403L 25.6521 8.959C 26.1559 10.087 26.8458 11.0343 27.7219 11.8008ZM 18.6871 14.8891L 18.6543 14.8891L 18.5228 14.9055L 18.7035 15.0534L 18.6871 14.8891ZM 39.7956 10.9795L 45.7586 10.9466L 45.7257 8.82758L 39.7792 8.82758L 39.7956 10.9795ZM 46.7934 11.883L 46.777 11.9158L 46.777 11.9651L 46.7934 11.883ZM 37.348 2.12543C 37.348 2.27875 37.3644 2.53062 37.3973 2.88106L 45.7914 2.88106C 47.3793 2.88106 48.2609 2.85916 48.4361 2.81536C 48.5128 2.43206 48.5511 2.13638 48.5511 1.92831C 48.5511 1.53406 48.4471 1.33694 48.239 1.33694L 37.693 1.33694C 37.463 1.33694 37.348 1.59977 37.348 2.12543ZM 49.6189 3.70241C 49.6079 3.81192 49.5203 3.88858 49.356 3.93238L 37.3809 3.93238L 37.348 5.44365L 49.586 5.50936C 49.6408 5.53126 49.6791 5.59149 49.701 5.69005L 49.701 10.0103C 49.701 11.9377 49.4546 13.23 48.9618 13.887C 48.6223 14.3361 47.9598 14.5606 46.9741 14.5606C 46.5142 14.5606 45.8407 14.4839 44.9536 14.3306L 44.8058 13.0986C 45.6709 13.3066 46.3444 13.4107 46.8263 13.4107C 47.3848 13.4107 47.8119 13.2574 48.1076 12.9507C 48.4142 12.6331 48.5785 12.113 48.6004 11.3902L 48.699 7.44773C 48.688 6.93302 48.5675 6.60448 48.3376 6.46212L 37.3809 6.46212C 37.3699 8.00624 37.2933 9.41347 37.1509 10.6838C 37.0195 11.9542 36.8935 12.8248 36.7731 13.2957C 36.6636 13.7666 36.565 14.1335 36.4774 14.3963C 35.9298 14.2211 35.552 14.0842 35.3439 13.9856L 35.6232 13.115C 36.0393 11.5928 36.2584 9.55036 36.2803 6.98777L 36.3131 0.417037C 36.335 0.384183 36.4062 0.351329 36.5267 0.318475L 49.471 0.318475C 49.4929 0.329426 49.5313 0.373231 49.586 0.44989L 49.6189 3.70241ZM 46.777 7.9241L 46.777 11.9158L 38.7607 11.9158L 38.7443 11.8994L 38.7443 7.90768L 46.777 7.9241ZM 46.777 7.9241L 46.9249 7.9241L 46.7606 7.79269L 46.777 7.8584L 46.777 7.9241ZM 60.7727 11.1438C 62.1525 10.3115 63.2312 9.57226 64.0088 8.92614C 64.1511 9.11231 64.3592 9.408 64.633 9.81319L 61.8733 11.7516L 61.7255 11.9815L 61.8733 12.0637C 63.2093 12.7865 64.6768 13.3066 66.2757 13.6242L 65.7172 14.6755C 65.6296 14.6755 65.427 14.6427 65.1094 14.577C 64.8027 14.5113 64.3483 14.3634 63.746 14.1335C 63.1436 13.9035 62.5304 13.6133 61.9061 13.2628C 61.2819 12.9233 60.6084 12.4305 59.8856 11.7844C 59.1629 11.1273 58.5332 10.3936 57.9966 9.58322L 57.0602 8.15408L 54.6126 8.13765L 54.5962 13.2464L 54.7933 13.2135C 56.3265 12.9507 57.6023 12.6386 58.6208 12.2772L 59.0314 13.3121C 57.2354 13.8597 54.8371 14.3251 51.8365 14.7084C 51.727 14.3361 51.6284 13.9747 51.5408 13.6242L 53.4956 13.4271L 53.512 8.15408L 51.6229 8.13765L 51.6229 7.10276L 53.7091 7.10276L 53.7584 0.367756L 53.8077 0.334902L 65.1258 0.334902L 65.1258 1.32051L 55.0233 1.32051L 54.7933 1.4355L 54.7769 2.55253L 64.6166 2.60181L 64.6166 3.58742L 54.7933 3.58742L 54.7769 4.85228L 64.6166 4.90157L 64.6166 5.85432L 54.7933 5.85432L 54.7769 7.06991L 66.1443 7.11919L 66.1443 8.13765L 58.6372 8.13765L 58.3579 8.23621L 58.4894 8.41691C 59.3326 9.6544 60.0937 10.5634 60.7727 11.1438ZM 65.7172 14.6755L 65.6679 14.7577L 65.7993 14.6755C 65.7774 14.6755 65.75 14.6755 65.7172 14.6755ZM 74.637 12.0637C 73.509 12.7865 72.1674 13.4654 70.6124 14.1006L 70.0539 13.2628C 71.7075 12.562 72.8519 12.0199 73.4871 11.6366L 74.0456 11.2752L 74.637 12.0637ZM 69.9389 5.59149L 75.4419 5.59149L 75.4419 4.27734L 70.9738 4.22806L 71.0066 3.37387L 75.4419 3.37387L 75.4419 1.99401L 70.1031 1.99401L 69.9389 2.15828L 69.9389 5.59149ZM 80.4356 7.84197L 80.6656 7.72698L 80.6656 6.52782L 76.526 6.52782L 76.526 7.84197L 80.4356 7.84197ZM 76.526 5.59149L 80.6656 5.59149L 80.6656 4.40876L 80.4849 4.27734L 76.526 4.27734L 76.526 5.59149ZM 76.8217 9.0247C 77.4788 10.2293 78.3001 11.2369 79.2857 12.0472C 80.2714 12.8467 81.4158 13.3997 82.719 13.7064L 82.1276 14.5934C 79.7402 13.6954 77.9716 12.4196 76.8217 10.7659L 76.526 10.3553L 76.4932 13.7556C 76.4932 13.9966 76.318 14.2703 75.9675 14.577L 75.7868 14.7248C 75.5788 14.8343 75.2721 14.8891 74.8669 14.8891C 74.626 14.8891 74.3905 14.8727 74.1606 14.8398C 73.9306 14.807 73.7116 14.7686 73.5035 14.7248C 73.2954 14.692 73.164 14.6701 73.1093 14.6591L 73.06 13.5749L 74.1113 13.8213C 74.2318 13.8323 74.3467 13.8378 74.4563 13.8378C 74.741 13.8378 75.0093 13.7775 75.2612 13.6571L 75.4419 13.3614L 75.4911 8.74545L 71.6144 8.71259L 71.598 8.74545L 70.9573 8.71259L 70.9573 7.87482L 75.4419 7.87482L 75.4911 6.52782L 69.906 6.52782L 69.906 6.69209C 69.906 10.0979 69.5446 12.7153 68.8218 14.5441L 67.9019 14.232C 67.9238 14.1225 67.995 13.8651 68.1155 13.46C 68.236 13.0548 68.3455 12.655 68.444 12.2608C 68.5426 11.8665 68.6357 11.2697 68.7233 10.4703C 68.8218 9.67083 68.8766 8.79473 68.8876 7.84197L 68.9204 1.12339L 68.9533 1.09054L 75.2612 1.07411L 75.294 0.00636503L 76.3289 0.00636503L 76.3289 1.02483L 82.4397 1.07411L 82.4397 1.97759L 76.526 1.97759L 76.5096 3.37387L 81.5855 3.40672L 81.6348 3.47243L 81.6676 5.59149L 82.8339 5.59149L 82.8339 6.5114L 81.6841 6.5114L 81.6348 8.64689C 81.6019 8.70164 81.5308 8.72902 81.4212 8.72902L 81.1584 8.67974L 81.1584 8.74545L 76.8217 8.71259L 76.8217 9.0247ZM 70.0539 13.2628L 69.9553 13.115L 69.9389 13.0986L 69.9224 13.0821L 69.8732 13.345L 70.0539 13.2628ZM 71.598 9.05756L 71.9101 8.76187L 71.598 8.74545L 71.4994 8.94257L 71.598 9.05756ZM 71.598 9.05756L 73.1093 10.5853L 72.3865 11.1766L 70.8752 9.73106L 71.598 9.05756ZM 81.1584 9.04113L 81.4541 8.74545L 81.1584 8.74545L 81.1584 9.04113ZM 81.1584 9.04113L 81.8483 9.78034C 81.6184 10.0322 81.2843 10.3279 80.8463 10.6674C 80.4192 10.9959 80.1016 11.2204 79.8935 11.3409L 79.3022 10.5688C 80.2549 9.83509 80.8737 9.32586 81.1584 9.04113ZM 91.2445 2.99605C 91.2664 2.72227 91.2773 2.41016 91.2773 2.05972L 91.2773 1.89545L 85.0844 1.87903L 85.0844 0.975549L 91.2609 0.975549L 91.2773 -0.0100616L 92.3615 -0.0100616L 92.3615 0.959123L 98.4887 0.975549L 98.4887 1.87903L 92.3944 1.87903L 92.3615 2.9632L 97.9302 2.99605L 97.9302 3.71883L 92.3944 3.71883L 92.3615 4.803L 99.0965 4.83586L 99.0965 5.73933L 84.4766 5.73933L 84.4766 4.83586L 91.2445 4.83586C 91.2664 4.56208 91.2773 4.24997 91.2773 3.89953L 91.2773 3.73526L 85.8401 3.71883L 85.8401 2.99605L 91.2445 2.99605ZM 97.5688 6.88921C 97.5907 6.88921 97.6181 6.91112 97.651 6.95492L 97.6181 13.7064C 97.6181 13.8487 97.5524 13.9966 97.421 14.1499C 97.3005 14.3032 97.1801 14.4182 97.0596 14.4948C 96.7201 14.7248 96.2383 14.8398 95.614 14.8398C 95.165 14.8398 94.6503 14.7796 94.0699 14.6591L 93.6264 14.5606L 93.5935 13.3942L 94.842 13.6735C 95.0172 13.6954 95.1815 13.7064 95.3348 13.7064C 95.7947 13.7064 96.1178 13.5914 96.304 13.3614C 96.5011 13.1314 96.5996 12.8467 96.5996 12.5072L 96.5996 12.3429L 87.0228 12.3101L 86.9571 14.6591L 85.9551 14.6591L 85.9551 6.95492C 85.9879 6.91112 86.0098 6.88921 86.0208 6.88921L 97.5688 6.88921ZM 87.0228 9.2054L 96.5832 9.2054L 96.5832 7.9241L 96.4025 7.79269L 87.0228 7.79269L 87.0228 9.2054ZM 87.0228 11.5216L 96.5832 11.5216L 96.5832 10.0267L 87.0228 10.0267L 87.0228 11.5216ZM 106.965 11.0288C 106.746 11.0288 106.516 11.0178 106.275 10.9959C 106.034 10.9631 105.81 10.9247 105.602 10.8809C 105.393 10.8371 105.218 10.7988 105.076 10.7659C 104.934 10.7331 104.791 10.6948 104.649 10.651C 104.517 10.6072 104.446 10.5853 104.435 10.5853L 104.485 9.43537L 105.634 9.76391C 105.996 9.86247 106.319 9.91175 106.604 9.91175C 106.921 9.91175 107.217 9.84605 107.491 9.71463L 107.704 9.36967L 107.737 0.170633L 108.854 0.170633L 108.854 9.82962C 108.854 10.0048 108.75 10.202 108.542 10.421C 108.345 10.64 108.186 10.7769 108.066 10.8317C 107.781 10.9631 107.414 11.0288 106.965 11.0288ZM 115.638 8.2855L 114.653 8.72902L 113.864 7.11919C 113.842 7.04253 113.81 6.97682 113.766 6.92207L 113.569 6.65924L 113.01 8.56475C 112.824 9.29848 112.556 9.96651 112.205 10.5688C 111.866 11.1602 111.477 11.6694 111.039 12.0965C 110.612 12.5127 110.108 12.8795 109.528 13.1971C 108.947 13.5257 108.361 13.7885 107.77 13.9856C 107.189 14.1827 106.532 14.347 105.799 14.4784C 105.065 14.6098 104.37 14.7029 103.712 14.7577C 103.055 14.8234 102.327 14.8672 101.528 14.8891L 101.084 13.6571L 104.337 13.5421C 107.688 13.334 109.971 12.2389 111.187 10.2567C 111.756 9.32586 112.194 7.96243 112.501 6.16643C 112.523 6.02407 112.556 5.81052 112.599 5.52579C 112.643 5.28486 112.671 5.10416 112.682 4.9837L 112.665 4.93442C 112.632 4.85776 112.145 4.01452 111.203 2.40468L 111.088 2.22399L 112.041 1.71476L 112.074 1.76404C 112.128 1.82974 112.326 2.15281 112.665 2.73322C 113.016 3.31364 113.475 4.13498 114.045 5.19725C 114.625 6.24857 115.157 7.27798 115.638 8.2855ZM 104.928 2.12543C 104.074 4.80848 103.033 6.88374 101.807 8.3512L 100.805 7.84197C 102.316 5.96931 103.34 3.97071 103.877 1.84617L 104.928 2.12543ZM 132.098 11.7844L 126.529 11.7844L 126.496 14.9384L 125.396 14.9384L 125.396 11.8173L 117.396 11.7844L 117.396 10.7659L 119.63 10.7659L 119.663 5.4108L 119.679 5.39437L 125.379 5.39437L 125.396 2.50325L 120.304 2.47039C 119.636 3.60932 118.891 4.52375 118.07 5.21368L 117.265 4.45804C 118.634 3.36292 119.575 1.92831 120.09 0.154207L 121.076 0.433463L 120.764 1.40265L 131.802 1.45193L 131.802 2.47039L 126.529 2.47039L 126.496 5.36152L 131.457 5.39437L 131.457 6.44569L 126.529 6.44569L 126.496 10.7167L 132.098 10.7659L 132.098 11.7844ZM 120.764 10.7167L 125.379 10.7167L 125.379 6.44569L 120.961 6.44569L 120.764 6.60996L 120.764 10.7167ZM 137.207 3.3903C 138.149 2.72227 138.828 2.09805 139.244 1.51763L 139.079 1.22195L 136.254 1.22195L 136.254 0.334902L 140.016 0.334902L 140.624 0.811281C 140.284 1.69833 139.726 2.47587 138.948 3.14389C 138.171 3.81192 137.344 4.3102 136.468 4.63874C 136.38 4.66064 136.342 4.72087 136.353 4.81943C 136.364 4.90704 136.418 4.95085 136.517 4.95085L 139.868 5.00013L 139.917 5.06583L 139.917 8.64689L 138.981 8.64689L 138.981 8.31835L 136.27 8.31835C 136.117 8.34025 135.997 8.47167 135.909 8.71259C 135.821 8.94257 135.767 9.14517 135.745 9.32039C 135.734 9.49561 135.728 9.63797 135.728 9.74748L 135.728 9.91175L 139.769 9.96103C 139.769 9.96103 139.775 9.96103 139.786 9.96103L 139.753 12.4743C 139.72 12.8576 139.665 13.1752 139.589 13.4271C 139.523 13.6899 139.408 13.9363 139.244 14.1663C 139.09 14.3963 138.86 14.566 138.554 14.6755C 138.258 14.7851 137.886 14.8398 137.437 14.8398C 136.845 14.8398 136.073 14.7412 135.121 14.5441L 135.038 13.5092L 136.468 13.9035C 136.752 13.9582 137.004 13.9856 137.223 13.9856C 137.65 13.9856 137.995 13.8816 138.258 13.6735C 138.521 13.4654 138.669 13.2738 138.702 13.0986L 138.8 11.0288L 138.57 10.7988L 135.548 10.7988L 135.449 11.3245C 135.241 11.2807 134.956 11.204 134.595 11.0945L 135.071 7.61199C 135.082 7.53534 135.126 7.48058 135.203 7.44773L 138.932 7.44773L 138.981 6.03502L 138.767 5.82147L 135.433 5.82147L 135.433 5.03298L 135.236 5.08226C 134.589 5.23558 134.162 5.33961 133.954 5.39437C 133.768 5.01108 133.637 4.71539 133.56 4.50732C 134.732 4.27734 135.515 4.0857 135.909 3.93238L 136.188 3.83382L 135.958 3.65312C 135.356 3.18222 134.88 2.83178 134.529 2.60181C 134.584 2.52515 134.694 2.38826 134.858 2.19114C 135.033 1.98306 135.132 1.87355 135.153 1.8626L 137.207 3.3903ZM 142.053 10.5195C 142.556 11.3299 143.148 12.0089 143.827 12.5565C 144.265 12.2827 144.643 12.0144 144.96 11.7516C 145.289 11.4778 145.546 11.2204 145.732 10.9795C 145.919 10.7276 146.055 10.5195 146.143 10.3553C 146.242 10.191 146.335 10.0048 146.422 9.79677L 146.077 9.61607L 141.067 9.61607L 141.067 8.71259L 146.964 8.71259L 147.572 9.27111L 147.572 9.30396C 146.849 10.9795 145.973 12.1622 144.944 12.8522L 144.714 13L 144.96 13.1314C 145.628 13.4819 146.674 13.6954 148.098 13.7721L 148.377 13.7885L 148.098 14.7905C 146.28 14.6482 144.867 14.2375 143.86 13.5585C 142.677 14.1608 141.702 14.5879 140.936 14.8398L 140.361 13.8706C 141.281 13.6406 142.058 13.3833 142.693 13.0986L 142.94 13L 142.726 12.8193C 142.124 12.3155 141.598 11.6859 141.149 10.9302L 142.053 10.5195ZM 140.525 7.41487C 140.667 7.33821 140.799 7.25608 140.919 7.16847C 141.04 7.06991 141.138 6.98777 141.215 6.92207C 141.292 6.84541 141.352 6.74685 141.396 6.62638C 141.45 6.49497 141.494 6.39641 141.527 6.3307C 141.56 6.26499 141.582 6.15001 141.593 5.98574C 141.604 5.81052 141.609 5.69005 141.609 5.62435C 141.62 5.55864 141.626 5.41627 141.626 5.19725C 141.626 4.97822 141.626 4.83038 141.626 4.75372L 141.626 4.65516L 141.658 4.62231L 145.519 4.62231L 145.552 4.65516L 145.601 6.72495C 145.634 7.00968 145.897 7.15204 146.389 7.15204C 146.63 7.15204 146.844 7.08634 147.03 6.95492L 147.079 6.06787L 147.851 6.19929L 147.769 7.21775C 147.66 7.71056 147.249 7.95696 146.537 7.95696C 145.595 7.95696 145.037 7.82554 144.862 7.56271C 144.752 7.37654 144.697 6.74685 144.697 5.67363L 144.697 5.59149L 144.435 5.4108L 142.693 5.4108L 142.496 5.50936L 142.496 5.60792C 142.496 6.02407 142.452 6.39093 142.365 6.70852C 142.277 7.0261 142.146 7.27798 141.971 7.46415C 141.806 7.65032 141.669 7.78174 141.56 7.8584C 141.461 7.93506 141.33 8.01719 141.166 8.1048C 141.133 8.1267 141.111 8.13765 141.1 8.13765L 140.525 7.41487ZM 143.301 1.50121C 143.454 1.38074 143.586 1.26028 143.695 1.13982C 143.816 1.01935 144.123 0.685341 144.615 0.13778L 145.256 0.762L 144.008 2.09257L 144.944 2.73322L 145.141 2.81536L 146.57 1.41907L 147.211 2.05972C 146.992 2.27875 146.63 2.63466 146.127 3.12747L 145.962 3.29173L 146.176 3.3903C 146.811 3.70788 147.589 4.01452 148.508 4.3102L 147.901 5.16439L 147.851 5.16439C 145.322 4.13498 143.23 2.80988 141.576 1.1891L 142.053 0.384183L 143.301 1.50121ZM 147.26 2.04329L 147.293 1.96116L 147.211 2.05972L 147.293 2.14185L 147.26 2.04329ZM 152.237 8.13765L 155.523 8.13765L 155.523 6.5771L 153.157 6.56068C 153.157 6.12263 153.168 5.77766 153.19 5.52579L 155.523 5.52579L 155.523 3.93238L 152.237 3.93238L 152.237 8.13765ZM 156.541 8.13765L 160.303 8.13765L 160.303 6.5771L 156.541 6.5771L 156.541 8.13765ZM 156.541 5.52579L 160.303 5.52579L 160.303 3.93238L 156.541 3.93238L 156.541 5.52579ZM 163.276 2.7825C 163.287 2.48682 163.293 2.09805 163.293 1.6162L 163.293 1.56692L 163.112 1.32051L 152.451 1.32051L 152.237 1.50121L 152.237 2.91392L 163.013 2.91392L 163.276 2.7825ZM 159.991 11.4887C 161.053 11.0835 162.208 10.5469 163.457 9.8789L 163.917 10.7824C 163.479 11.0452 162.614 11.4942 161.321 12.1294L 161.026 12.2772L 161.305 12.4251C 162.378 12.9836 163.583 13.3997 164.919 13.6735L 164.475 14.7084C 162.789 14.347 161.3 13.6899 160.007 12.7372C 158.715 11.7844 157.768 10.5907 157.165 9.15612L 155.457 9.15612L 155.424 13.46L 155.605 13.4435C 156.536 13.3669 157.428 13.219 158.282 13L 158.545 14.0349C 156.815 14.451 154.805 14.6865 152.517 14.7412L 152.517 13.6899L 154.356 13.6406L 154.389 9.17255L 152.188 9.15612C 152.013 10.6674 151.832 11.7789 151.646 12.4908C 151.46 13.1916 151.241 13.794 150.989 14.2977L 150.036 13.8378C 150.803 12.1841 151.186 10.2786 151.186 8.12123C 151.186 5.75576 151.197 3.98166 151.219 2.79893L 151.186 0.630585C 151.197 0.597732 151.208 0.559402 151.219 0.515598C 151.23 0.44989 151.241 0.411561 151.252 0.400609C 151.274 0.378707 151.328 0.351329 151.416 0.318475L 164.196 0.334902C 164.229 0.345853 164.267 0.395134 164.311 0.482743L 164.344 3.70241C 164.344 3.75716 164.306 3.81192 164.229 3.86667L 161.338 3.91595L 161.321 5.52579L 164.13 5.57507L 164.13 6.56068L 161.338 6.56068L 161.321 8.13765L 164.804 8.15408L 164.804 9.15612L 158.43 9.15612L 158.43 9.4518C 158.846 10.2293 159.367 10.9083 159.991 11.4887ZM 150.036 13.8378L 149.905 13.7721L 150.003 13.9199L 150.003 13.887L 150.036 13.8378ZM 150.989 14.2977L 150.923 14.3963L 151.071 14.3141L 151.022 14.3141L 150.989 14.2977ZM 168.007 9.25468L 173.379 9.25468L 173.379 4.0638L 168.171 4.0638L 168.007 4.29377L 168.007 9.25468ZM 174.529 9.25468L 179.834 9.25468L 179.834 4.32663L 179.637 4.0638L 174.529 4.0638L 174.529 9.25468ZM 168.024 10.3881C 168.002 10.6291 167.991 10.8645 167.991 11.0945L 166.874 11.0945L 166.89 3.04533C 166.923 2.97962 166.983 2.94677 167.071 2.94677L 173.379 2.94677L 173.412 0.187061L 174.529 0.187061L 174.529 2.91392L 180.837 2.9632C 180.858 2.97415 180.897 3.01795 180.952 3.09461L 180.968 11.0945L 179.851 11.0945L 179.851 10.421L 174.529 10.3881L 174.529 14.8727L 173.412 14.8727L 173.412 10.421L 168.024 10.3881ZM 185.025 2.86464C 185.014 5.66815 184.642 9.06851 183.908 13.0657L 182.873 12.9179C 183.596 9.23825 183.963 5.87075 183.974 2.81536L 185.025 2.86464ZM 192.96 13.6899C 193.266 13.6899 193.523 13.5421 193.732 13.2464C 193.94 12.9617 194.044 12.6769 194.044 12.3922L 194.044 9.82962L 195.095 9.99389C 195.117 10.5853 195.128 11.1109 195.128 11.5709C 195.128 12.3155 195.1 12.885 195.046 13.2793C 194.991 13.6735 194.914 13.9582 194.816 14.1335C 194.717 14.3087 194.558 14.4729 194.339 14.6263L 194.109 14.7412C 193.956 14.7741 193.699 14.7905 193.337 14.7905L 188.048 14.7741C 187.665 14.7741 187.369 14.5934 187.161 14.232C 186.953 13.8706 186.849 13.4764 186.849 13.0493L 186.849 1.33694L 187.982 1.33694L 188.031 13.0493C 188.031 13.2135 188.097 13.3614 188.229 13.4928C 188.36 13.6242 188.513 13.6899 188.689 13.6899L 192.96 13.6899ZM 192.45 9.53394L 191.383 9.71463C 190.944 5.8598 190.419 2.87011 189.806 0.745573L 189.723 0.466317L 190.775 0.285622C 191.465 2.66204 192.023 5.74481 192.45 9.53394ZM 196.787 12.77C 196.36 9.68178 196.031 7.51891 195.801 6.28142C 195.571 5.03298 195.243 3.74074 194.816 2.40468L 195.851 2.19114C 196.486 4.09665 196.929 5.91455 197.181 7.64485C 197.554 10.2403 197.756 11.7789 197.789 12.2608L 197.805 12.6058L 196.787 12.77ZM 189.723 0.466317C 189.712 0.433463 189.702 0.406085 189.691 0.384183L 189.576 0.499171L 189.723 0.466317Z"/>
<path id="path13_fill" d="M 5.34 0.64C 5.19333 1.45333 5.03333 2.16667 4.86 2.78C 4.68667 3.39333 4.54667 3.83333 4.44 4.1C 4.34667 4.36667 4.3 4.54 4.3 4.62L 4.3 18.26L 3.04 18.26L 3.04 8.16L 2.74 8L 2.08 8.94L 0.9 8.42C 2.56667 5.91333 3.64 3.25333 4.12 0.44L 5.34 0.64ZM 8.1 5.76L 16.66 5.74L 16.62 2.12L 8.1 2.12L 8.1 5.76ZM 13.34 10.8C 13.5667 11.1067 13.7733 11.38 13.96 11.62C 14.16 11.8467 14.48 12.2 14.92 12.68C 15.3733 13.16 15.9533 13.68 16.66 14.24C 17.3667 14.7867 18.1733 15.34 19.08 15.9L 18.06 16.82C 16.34 15.66 14.72 14.1933 13.2 12.42L 12.84 12L 12.8 18.26L 11.56 18.26L 11.56 12.6L 11.34 12.26L 11.16 12.48C 9.6 14.32 8.00667 15.7067 6.38 16.64L 5.44 15.66C 7.62667 14.38 9.46667 12.8067 10.96 10.94L 11.22 10.62L 5.76 10.58L 5.76 9.3L 11.52 9.3L 11.56 7.12L 6.72 7.02L 6.72 0.84L 6.74 0.82L 17.94 0.82L 17.94 7.08L 12.84 7.08L 12.8 9.28L 18.8 9.3L 18.8 10.58L 13.56 10.58L 13.34 10.8ZM 0.9 8.42L 0.66 8.32L 0.6 8.32L 0.76 8.64L 0.9 8.42ZM 6.72 7.02L 6.66 7.02L 6.72 7.06L 6.72 7.02ZM 35.68 9.38C 35.9067 9.27333 36.0267 9.17333 36.04 9.08C 36.04 9.06667 36.04 9.05333 36.04 9.04L 36.04 6.9L 23.74 6.9L 23.74 9.38L 35.68 9.38ZM 24.16 3.02C 23.9867 3.02 23.8467 3.15333 23.74 3.42L 23.74 5.56L 36.04 5.56L 36 3.36L 35.76 3.02L 24.16 3.02ZM 32 14.54C 34.5467 13.4067 36.46 12.4133 37.74 11.56L 38.52 12.7C 37.3067 13.4733 35.7133 14.3133 33.74 15.22L 33.36 15.38L 33.72 15.58C 35.08 16.2867 36.82 16.8 38.94 17.12L 38.28 18.38C 35.8667 18.1267 33.7133 17.2933 31.82 15.88C 29.94 14.4667 28.6267 12.7267 27.88 10.66L 23.74 10.66L 23.7 16.76L 23.9 16.76C 25.5667 16.6933 27.3867 16.4067 29.36 15.9L 29.7 17.14C 27.62 17.6867 24.72 18.0733 21 18.3L 20.94 16.98L 22.36 16.92L 22.42 1.88L 22.54 1.78L 29.24 1.74L 29.28 0.299999L 30.68 0.299999L 30.68 1.68L 37.26 1.78C 37.3133 1.78 37.3533 1.82 37.38 1.9L 37.32 10.56L 37.24 10.64L 29.48 10.66L 29.48 11.08C 30.0933 12.4533 30.9333 13.6067 32 14.54ZM 21 18.3L 20.96 18.3L 20.8 18.32L 21.02 18.5L 21 18.3ZM 46.7 13.54L 53.96 13.5L 53.92 10.92L 46.68 10.92L 46.7 13.54ZM 55.22 14.64L 55.2 14.68L 55.2 14.74L 55.22 14.64ZM 43.72 2.76C 43.72 2.94667 43.74 3.25333 43.78 3.68L 54 3.68C 55.9333 3.68 57.0067 3.65333 57.22 3.6C 57.3133 3.13333 57.36 2.77333 57.36 2.52C 57.36 2.04 57.2333 1.8 56.98 1.8L 44.14 1.8C 43.86 1.8 43.72 2.12 43.72 2.76ZM 58.66 4.68C 58.6467 4.81333 58.54 4.90667 58.34 4.96L 43.76 4.96L 43.72 6.8L 58.62 6.88C 58.6867 6.90667 58.7333 6.98 58.76 7.1L 58.76 12.36C 58.76 14.7067 58.46 16.28 57.86 17.08C 57.4467 17.6267 56.64 17.9 55.44 17.9C 54.88 17.9 54.06 17.8067 52.98 17.62L 52.8 16.12C 53.8533 16.3733 54.6733 16.5 55.26 16.5C 55.94 16.5 56.46 16.3133 56.82 15.94C 57.1933 15.5533 57.3933 14.92 57.42 14.04L 57.54 9.24C 57.5267 8.61333 57.38 8.21333 57.1 8.04L 43.76 8.04C 43.7467 9.92 43.6533 11.6333 43.48 13.18C 43.32 14.7267 43.1667 15.7867 43.02 16.36C 42.8867 16.9333 42.7667 17.38 42.66 17.7C 41.9933 17.4867 41.5333 17.32 41.28 17.2L 41.62 16.14C 42.1267 14.2867 42.3933 11.8 42.42 8.68L 42.46 0.680001C 42.4867 0.64 42.5733 0.6 42.72 0.56L 58.48 0.56C 58.5067 0.573333 58.5533 0.626666 58.62 0.72L 58.66 4.68ZM 55.2 9.82L 55.2 14.68L 45.44 14.68L 45.42 14.66L 45.42 9.8L 55.2 9.82ZM 55.2 9.82L 55.38 9.82L 55.18 9.66L 55.2 9.74L 55.2 9.82Z"/>
<path id="path14_fill" d="M 0 0L 49 0L 49 48L 0 48L 0 0Z"/>
<path id="path15_fill" fill-rule="evenodd" d="M 17.1293 9L 0.885738 9C 0 9 0 8.385 0 7.5C 0 6.615 0 6 0.885738 6L 17.1143 6C 18 6 18 6.615 18 7.5C 18 8.385 18 9 17.1143 9L 17.1293 9ZM 17.1293 3L 0.885738 3C 0 3 0 2.385 0 1.5C 0 0.615 0 0 0.885738 0L 17.1143 0C 18 0 18 0.615 18 1.5C 18 2.385 18 3 17.1143 3L 17.1293 3ZM 0.885738 12L 17.1143 12C 18 12 18 12.615 18 13.5C 18 14.385 18 15 17.1143 15L 0.885738 15C 0 15 0 14.385 0 13.5C 0 12.615 0 12 0.885738 12Z"/>
<path id="path16_stroke_2x" d="M 17.1293 8.5L 0.885738 8.5L 0.885738 9.5L 17.1293 9.5L 17.1293 8.5ZM 0.885738 8.5C 0.717874 8.5 0.646655 8.47025 0.622551 8.45642C 0.575126 8.4395 0.596477 8.45959 0.571908 8.38873C 0.509103 8.23877 0.5 7.98458 0.5 7.5L -0.5 7.5C -0.5 7.90042 -0.509103 8.39623 -0.350473 8.77502C -0.264325 8.96853 -0.0768985 9.19769 0.124791 9.32374C 0.3498 9.45287 0.610734 9.5 0.885738 9.5L 0.885738 8.5ZM 0.5 7.5C 0.5 7.01542 0.509103 6.76123 0.571908 6.61127C 0.596477 6.54041 0.575126 6.5605 0.622551 6.54358C 0.646655 6.52975 0.717874 6.5 0.885738 6.5L 0.885738 5.5C 0.610734 5.5 0.3498 5.54713 0.124791 5.67626C -0.0768985 5.80231 -0.264325 6.03147 -0.350473 6.22498C -0.509103 6.60377 -0.5 7.09958 -0.5 7.5L 0.5 7.5ZM 0.885738 6.5L 17.1143 6.5L 17.1143 5.5L 0.885738 5.5L 0.885738 6.5ZM 17.1143 6.5C 17.2821 6.5 17.3533 6.52975 17.3774 6.54358C 17.4249 6.56051 17.4035 6.54041 17.4281 6.61127C 17.4909 6.76123 17.5 7.01542 17.5 7.5L 18.5 7.5C 18.5 7.09958 18.5091 6.60377 18.3505 6.22498C 18.2643 6.03147 18.0769 5.80231 17.8752 5.67626C 17.6502 5.54713 17.3893 5.5 17.1143 5.5L 17.1143 6.5ZM 17.5 7.5C 17.5 7.98458 17.4909 8.23877 17.4281 8.38873C 17.4035 8.45959 17.4249 8.4395 17.3774 8.45642C 17.3533 8.47025 17.2821 8.5 17.1143 8.5L 17.1143 9.5C 17.3893 9.5 17.6502 9.45287 17.8752 9.32374C 18.0769 9.19769 18.2643 8.96853 18.3505 8.77502C 18.5091 8.39623 18.5 7.90042 18.5 7.5L 17.5 7.5ZM 17.1143 9.5L 17.1293 9.5L 17.1293 8.5L 17.1143 8.5L 17.1143 9.5ZM 17.1293 2.5L 0.885738 2.5L 0.885738 3.5L 17.1293 3.5L 17.1293 2.5ZM 0.885738 2.5C 0.717874 2.5 0.646655 2.47025 0.622551 2.45642C 0.575126 2.43949 0.596477 2.45959 0.571908 2.38873C 0.509103 2.23877 0.5 1.98458 0.5 1.5L -0.5 1.5C -0.5 1.90042 -0.509103 2.39623 -0.350473 2.77502C -0.264325 2.96853 -0.0768985 3.19769 0.124791 3.32374C 0.3498 3.45287 0.610734 3.5 0.885738 3.5L 0.885738 2.5ZM 0.5 1.5C 0.5 1.01542 0.509103 0.761234 0.571908 0.611266C 0.596477 0.540407 0.575126 0.560505 0.622551 0.543579C 0.646655 0.529746 0.717874 0.5 0.885738 0.5L 0.885738 -0.5C 0.610734 -0.5 0.3498 -0.45287 0.124791 -0.323736C -0.0768985 -0.197693 -0.264325 0.0314677 -0.350473 0.224984C -0.509103 0.603766 -0.5 1.09958 -0.5 1.5L 0.5 1.5ZM 0.885738 0.5L 17.1143 0.5L 17.1143 -0.5L 0.885738 -0.5L 0.885738 0.5ZM 17.1143 0.5C 17.2821 0.5 17.3533 0.529746 17.3774 0.543579C 17.4249 0.560505 17.4035 0.540407 17.4281 0.611266C 17.4909 0.761234 17.5 1.01542 17.5 1.5L 18.5 1.5C 18.5 1.09958 18.5091 0.603766 18.3505 0.224984C 18.2643 0.0314676 18.0769 -0.197693 17.8752 -0.323736C 17.6502 -0.45287 17.3893 -0.5 17.1143 -0.5L 17.1143 0.5ZM 17.5 1.5C 17.5 1.98458 17.4909 2.23877 17.4281 2.38873C 17.4035 2.45959 17.4249 2.43949 17.3774 2.45642C 17.3533 2.47025 17.2821 2.5 17.1143 2.5L 17.1143 3.5C 17.3893 3.5 17.6502 3.45287 17.8752 3.32374C 18.0769 3.19769 18.2643 2.96853 18.3505 2.77502C 18.5091 2.39623 18.5 1.90042 18.5 1.5L 17.5 1.5ZM 17.1143 3.5L 17.1293 3.5L 17.1293 2.5L 17.1143 2.5L 17.1143 3.5ZM 0.885738 12.5L 17.1143 12.5L 17.1143 11.5L 0.885738 11.5L 0.885738 12.5ZM 17.1143 12.5C 17.2821 12.5 17.3533 12.5297 17.3774 12.5436C 17.4249 12.5605 17.4035 12.5404 17.4281 12.6113C 17.4909 12.7612 17.5 13.0154 17.5 13.5L 18.5 13.5C 18.5 13.0996 18.5091 12.6038 18.3505 12.225C 18.2643 12.0315 18.0769 11.8023 17.8752 11.6763C 17.6502 11.5471 17.3893 11.5 17.1143 11.5L 17.1143 12.5ZM 17.5 13.5C 17.5 13.9846 17.4909 14.2388 17.4281 14.3887C 17.4035 14.4596 17.4249 14.4395 17.3774 14.4564C 17.3533 14.4703 17.2821 14.5 17.1143 14.5L 17.1143 15.5C 17.3893 15.5 17.6502 15.4529 17.8752 15.3237C 18.0769 15.1977 18.2643 14.9685 18.3505 14.775C 18.5091 14.3962 18.5 13.9004 18.5 13.5L 17.5 13.5ZM 17.1143 14.5L 0.885738 14.5L 0.885738 15.5L 17.1143 15.5L 17.1143 14.5ZM 0.885738 14.5C 0.717874 14.5 0.646655 14.4703 0.622551 14.4564C 0.575126 14.4395 0.596477 14.4596 0.571908 14.3887C 0.509103 14.2388 0.5 13.9846 0.5 13.5L -0.5 13.5C -0.5 13.9004 -0.509103 14.3962 -0.350473 14.775C -0.264325 14.9685 -0.0768985 15.1977 0.124791 15.3237C 0.3498 15.4529 0.610734 15.5 0.885738 15.5L 0.885738 14.5ZM 0.5 13.5C 0.5 13.0154 0.509103 12.7612 0.571908 12.6113C 0.596477 12.5404 0.575126 12.5605 0.622551 12.5436C 0.646655 12.5297 0.717874 12.5 0.885738 12.5L 0.885738 11.5C 0.610734 11.5 0.3498 11.5471 0.124791 11.6763C -0.0768985 11.8023 -0.264325 12.0315 -0.350473 12.225C -0.509103 12.6038 -0.5 13.0996 -0.5 13.5L 0.5 13.5Z"/>
<path id="path17_fill" d="M 0 0L 40 0L 40 40L 0 40L 0 0Z"/>
<path id="path18_fill" d="M 15 3.055L 12.1457 0L 0 13L 12.1457 26L 15 22.945L 5.72874 13L 15 3.055Z"/>
</defs>
</svg>
