<svg width="320" height="568" viewBox="0 0 320 568" version="1.1" xmlns="http://www.w3.org/2000/svg" xmlns:xlink="http://www.w3.org/1999/xlink">
<title>exercise</title>
<desc>Created using Figma</desc>
<g id="Canvas" transform="translate(-479 -2522)">
<rect x="479" y="2522" width="320" height="568" fill="#E5E5E5"/>
<clipPath id="clip-0" clip-rule="evenodd">
<path d="M 479 2522L 799 2522L 799 3090L 479 3090L 479 2522Z" fill="#FFFFFF"/>
</clipPath>
<g id="exercise" clip-path="url(#clip-0)">
<path d="M 479 2522L 799 2522L 799 3090L 479 3090L 479 2522Z" fill="#FFFFFF"/>
<g id="item /lowers /action">
<g id="background">
<g id="hint /for=image">
<use xlink:href="#path0_fill" transform="translate(479 2806)" fill="url(#paint0_linear)"/>
</g>
</g>
<g id="title" filter="url(#filter0_d)">
<g id="Samantha Clayton &#228;&#184;&#139;&#232;&#130;&#162;&#232;&#168;&#147;&#231;&#183;&#180;">
<use xlink:href="#path1_fill" transform="translate(533 3019)" fill="#FFFFFF"/>
</g>
</g>
</g>
<g id="item /warmup /action">
<g id="background">
<g id="hint /for=image">
<use xlink:href="#path0_fill" transform="translate(479 2522)" fill="url(#paint2_linear)"/>
</g>
</g>
<g id="title" filter="url(#filter1_d)">
<g id="Samantha Clayton &#231;&#134;&#177;&#232;&#186;&#171;&#233;&#129;&#139;&#229;&#139;&#149;&#231;&#164;&#186;&#231;&#175;&#132;">
<use xlink:href="#path2_fill" transform="translate(533 2735)" fill="#FFFFFF"/>
</g>
</g>
</g>
<g id="back /action=nav">
<g id="click-area-hint">
<use xlink:href="#path3_fill" transform="translate(483 2532)" fill="url(#paint4_linear)"/>
</g>
<g id="Vector" filter="url(#filter2_d)">
<use xlink:href="#path4_fill" transform="translate(495 2539)" fill="#FFFFFF" fill-opacity="0.9"/>
</g>
</g>
</g>
</g>
<defs>
<filter id="filter0_d" filterUnits="userSpaceOnUse" x="537" y="3024" width="202" height="54" color-interpolation-filters="sRGB">
<feFlood flood-opacity="0" result="BackgroundImageFix"/>
<feColorMatrix in="SourceAlpha" type="matrix" values="0 0 0 0 0 0 0 0 0 0 0 0 0 0 0 0 0 0 255 0"/>
<feOffset dx="0" dy="3"/>
<feGaussianBlur stdDeviation="1.5"/>
<feColorMatrix type="matrix" values="0 0 0 0 0 0 0 0 0 0 0 0 0 0 0 0 0 0 0.35 0"/>
<feBlend mode="normal" in2="BackgroundImageFix" result="effect1_dropShadow"/>
<feBlend mode="normal" in="SourceGraphic" in2="effect1_dropShadow" result="shape"/>
</filter>
<filter id="filter1_d" filterUnits="userSpaceOnUse" x="537" y="2740" width="202" height="54" color-interpolation-filters="sRGB">
<feFlood flood-opacity="0" result="BackgroundImageFix"/>
<feColorMatrix in="SourceAlpha" type="matrix" values="0 0 0 0 0 0 0 0 0 0 0 0 0 0 0 0 0 0 255 0"/>
<feOffset dx="0" dy="3"/>
<feGaussianBlur stdDeviation="1.5"/>
<feColorMatrix type="matrix" values="0 0 0 0 0 0 0 0 0 0 0 0 0 0 0 0 0 0 0.35 0"/>
<feBlend mode="normal" in2="BackgroundImageFix" result="effect1_dropShadow"/>
<feBlend mode="normal" in="SourceGraphic" in2="effect1_dropShadow" result="shape"/>
</filter>
<filter id="filter2_d" filterUnits="userSpaceOnUse" x="491" y="2537" width="23" height="34" color-interpolation-filters="sRGB">
<feFlood flood-opacity="0" result="BackgroundImageFix"/>
<feColorMatrix in="SourceAlpha" type="matrix" values="0 0 0 0 0 0 0 0 0 0 0 0 0 0 0 0 0 0 255 0"/>
<feOffset dx="0" dy="2"/>
<feGaussianBlur stdDeviation="2"/>
<feColorMatrix type="matrix" values="0 0 0 0 0 0 0 0 0 0 0 0 0 0 0 0 0 0 0.7 0"/>
<feBlend mode="normal" in2="BackgroundImageFix" result="effect1_dropShadow"/>
<feBlend mode="normal" in="SourceGraphic" in2="effect1_dropShadow" result="shape"/>
</filter>
<linearGradient id="paint0_linear" x1="0" y1="0" x2="1" y2="0" gradientUnits="userSpaceOnUse" gradientTransform="matrix(1.95943e-14 284 -320 1.739e-14 320 -1.739e-14)">
<stop offset="0" stop-color="#000000" stop-opacity="0.01"/>
<stop offset="1" stop-color="#000000" stop-opacity="0"/>
</linearGradient>
<linearGradient id="paint2_linear" x1="0" y1="0" x2="1" y2="0" gradientUnits="userSpaceOnUse" gradientTransform="matrix(1.95943e-14 284 -320 1.739e-14 320 -1.739e-14)">
<stop offset="0" stop-color="#000000" stop-opacity="0.01"/>
<stop offset="1" stop-color="#000000" stop-opacity="0"/>
</linearGradient>
<linearGradient id="paint4_linear" x1="0" y1="0" x2="1" y2="0" gradientUnits="userSpaceOnUse" gradientTransform="matrix(2.44929e-15 40 -40 2.44929e-15 40 -2.44929e-15)">
<stop offset="0.0276243" stop-color="#FFFFFF" stop-opacity="0.01"/>
<stop offset="0.933702" stop-color="#FFFFFF" stop-opacity="0"/>
</linearGradient>
<path id="path0_fill" d="M 0 0L 320 0L 320 284L 0 284L 0 0Z"/>
<path id="path1_fill" d="M 13.1311 22.344C 15.5631 22.344 16.7791 21.512 16.7791 19.848C 16.7791 19.336 16.6671 18.904 16.4431 18.552C 16.2351 18.184 15.9471 17.872 15.5791 17.616C 15.2111 17.344 14.7871 17.112 14.3071 16.92C 13.8431 16.728 13.3471 16.536 12.8191 16.344C 12.2111 16.136 11.6351 15.904 11.0911 15.648C 10.5471 15.376 10.0751 15.064 9.67513 14.712C 9.27513 14.344 8.95512 13.912 8.71513 13.416C 8.49112 12.92 8.37912 12.32 8.37912 11.616C 8.37912 10.16 8.87513 9.024 9.86713 8.208C 10.8591 7.392 12.2271 6.984 13.9711 6.984C 14.9791 6.984 15.8911 7.096 16.7071 7.32C 17.5391 7.528 18.1471 7.76 18.5311 8.016L 17.7871 9.912C 17.4511 9.704 16.9471 9.504 16.2751 9.312C 15.6191 9.104 14.8511 9 13.9711 9C 13.5231 9 13.1071 9.048 12.7231 9.144C 12.3391 9.24 12.0031 9.384 11.7151 9.576C 11.4271 9.768 11.1951 10.016 11.0191 10.32C 10.8591 10.608 10.7791 10.952 10.7791 11.352C 10.7791 11.8 10.8671 12.176 11.0431 12.48C 11.2191 12.784 11.4671 13.056 11.7871 13.296C 12.1071 13.52 12.4751 13.728 12.8911 13.92C 13.3231 14.112 13.7951 14.304 14.3071 14.496C 15.0271 14.784 15.6831 15.072 16.2751 15.36C 16.8831 15.648 17.4031 15.992 17.8351 16.392C 18.2831 16.792 18.6271 17.272 18.8671 17.832C 19.1071 18.376 19.2271 19.04 19.2271 19.824C 19.2271 21.28 18.6911 22.4 17.6191 23.184C 16.5631 23.968 15.0671 24.36 13.1311 24.36C 12.4751 24.36 11.8671 24.312 11.3071 24.216C 10.7631 24.136 10.2751 24.04 9.84312 23.928C 9.41113 23.8 9.03513 23.672 8.71513 23.544C 8.41112 23.4 8.17113 23.28 7.99512 23.184L 8.69112 21.264C 9.05912 21.472 9.61912 21.704 10.3711 21.96C 11.1231 22.216 12.0431 22.344 13.1311 22.344ZM 26.1206 22.392C 26.6486 22.392 27.1126 22.384 27.5126 22.368C 27.9286 22.336 28.2726 22.288 28.5446 22.224L 28.5446 18.504C 28.3846 18.424 28.1206 18.36 27.7526 18.312C 27.4006 18.248 26.9686 18.216 26.4566 18.216C 26.1206 18.216 25.7606 18.24 25.3766 18.288C 25.0086 18.336 24.6646 18.44 24.3446 18.6C 24.0406 18.744 23.7846 18.952 23.5766 19.224C 23.3686 19.48 23.2646 19.824 23.2646 20.256C 23.2646 21.056 23.5206 21.616 24.0326 21.936C 24.5446 22.24 25.2406 22.392 26.1206 22.392ZM 25.9286 11.208C 26.8246 11.208 27.5766 11.328 28.1846 11.568C 28.8086 11.792 29.3046 12.12 29.6726 12.552C 30.0566 12.968 30.3286 13.472 30.4886 14.064C 30.6486 14.64 30.7286 15.28 30.7286 15.984L 30.7286 23.784C 30.5366 23.816 30.2646 23.864 29.9126 23.928C 29.5766 23.976 29.1926 24.024 28.7606 24.072C 28.3286 24.12 27.8566 24.16 27.3446 24.192C 26.8486 24.24 26.3526 24.264 25.8566 24.264C 25.1526 24.264 24.5046 24.192 23.9126 24.048C 23.3206 23.904 22.8086 23.68 22.3766 23.376C 21.9446 23.056 21.6086 22.64 21.3686 22.128C 21.1286 21.616 21.0086 21 21.0086 20.28C 21.0086 19.592 21.1446 19 21.4166 18.504C 21.7046 18.008 22.0886 17.608 22.5686 17.304C 23.0486 17 23.6086 16.776 24.2486 16.632C 24.8886 16.488 25.5606 16.416 26.2646 16.416C 26.4886 16.416 26.7206 16.432 26.9606 16.464C 27.2006 16.48 27.4246 16.512 27.6326 16.56C 27.8566 16.592 28.0486 16.624 28.2086 16.656C 28.3686 16.688 28.4806 16.712 28.5446 16.728L 28.5446 16.104C 28.5446 15.736 28.5046 15.376 28.4246 15.024C 28.3446 14.656 28.2006 14.336 27.9926 14.064C 27.7846 13.776 27.4966 13.552 27.1286 13.392C 26.7766 13.216 26.3126 13.128 25.7366 13.128C 25.0006 13.128 24.3526 13.184 23.7926 13.296C 23.2486 13.392 22.8406 13.496 22.5686 13.608L 22.3046 11.76C 22.5926 11.632 23.0726 11.512 23.7446 11.4C 24.4166 11.272 25.1446 11.208 25.9286 11.208ZM 34.4356 11.88C 34.9476 11.752 35.6196 11.616 36.4516 11.472C 37.2996 11.328 38.2756 11.256 39.3796 11.256C 40.1796 11.256 40.8516 11.368 41.3956 11.592C 41.9396 11.8 42.3956 12.112 42.7636 12.528C 42.8756 12.448 43.0516 12.336 43.2916 12.192C 43.5316 12.048 43.8276 11.912 44.1796 11.784C 44.5316 11.64 44.9236 11.52 45.3556 11.424C 45.7876 11.312 46.2516 11.256 46.7476 11.256C 47.7076 11.256 48.4916 11.4 49.0996 11.688C 49.7076 11.96 50.1796 12.352 50.5156 12.864C 50.8676 13.376 51.0996 13.984 51.2116 14.688C 51.3396 15.392 51.4036 16.16 51.4036 16.992L 51.4036 24L 49.1716 24L 49.1716 17.472C 49.1716 16.736 49.1316 16.104 49.0516 15.576C 48.9876 15.048 48.8516 14.608 48.6436 14.256C 48.4516 13.904 48.1796 13.648 47.8276 13.488C 47.4916 13.312 47.0516 13.224 46.5076 13.224C 45.7556 13.224 45.1316 13.328 44.6356 13.536C 44.1556 13.728 43.8276 13.904 43.6516 14.064C 43.7796 14.48 43.8756 14.936 43.9396 15.432C 44.0036 15.928 44.0356 16.448 44.0356 16.992L 44.0356 24L 41.8036 24L 41.8036 17.472C 41.8036 16.736 41.7636 16.104 41.6836 15.576C 41.6036 15.048 41.4596 14.608 41.2516 14.256C 41.0596 13.904 40.7876 13.648 40.4356 13.488C 40.0996 13.312 39.6676 13.224 39.1396 13.224C 38.9156 13.224 38.6756 13.232 38.4196 13.248C 38.1636 13.264 37.9156 13.288 37.6756 13.32C 37.4516 13.336 37.2436 13.36 37.0516 13.392C 36.8596 13.424 36.7316 13.448 36.6676 13.464L 36.6676 24L 34.4356 24L 34.4356 11.88ZM 59.3315 22.392C 59.8595 22.392 60.3235 22.384 60.7235 22.368C 61.1395 22.336 61.4835 22.288 61.7555 22.224L 61.7555 18.504C 61.5955 18.424 61.3315 18.36 60.9635 18.312C 60.6115 18.248 60.1795 18.216 59.6675 18.216C 59.3315 18.216 58.9715 18.24 58.5875 18.288C 58.2195 18.336 57.8755 18.44 57.5555 18.6C 57.2515 18.744 56.9955 18.952 56.7875 19.224C 56.5795 19.48 56.4755 19.824 56.4755 20.256C 56.4755 21.056 56.7315 21.616 57.2435 21.936C 57.7555 22.24 58.4515 22.392 59.3315 22.392ZM 59.1395 11.208C 60.0355 11.208 60.7875 11.328 61.3955 11.568C 62.0195 11.792 62.5155 12.12 62.8835 12.552C 63.2675 12.968 63.5395 13.472 63.6995 14.064C 63.8595 14.64 63.9395 15.28 63.9395 15.984L 63.9395 23.784C 63.7475 23.816 63.4755 23.864 63.1235 23.928C 62.7875 23.976 62.4035 24.024 61.9715 24.072C 61.5395 24.12 61.0675 24.16 60.5555 24.192C 60.0595 24.24 59.5635 24.264 59.0675 24.264C 58.3635 24.264 57.7155 24.192 57.1235 24.048C 56.5315 23.904 56.0195 23.68 55.5875 23.376C 55.1555 23.056 54.8195 22.64 54.5795 22.128C 54.3395 21.616 54.2195 21 54.2195 20.28C 54.2195 19.592 54.3555 19 54.6275 18.504C 54.9155 18.008 55.2995 17.608 55.7795 17.304C 56.2595 17 56.8195 16.776 57.4595 16.632C 58.0995 16.488 58.7715 16.416 59.4755 16.416C 59.6995 16.416 59.9315 16.432 60.1715 16.464C 60.4115 16.48 60.6355 16.512 60.8435 16.56C 61.0675 16.592 61.2595 16.624 61.4195 16.656C 61.5795 16.688 61.6915 16.712 61.7555 16.728L 61.7555 16.104C 61.7555 15.736 61.7155 15.376 61.6355 15.024C 61.5555 14.656 61.4115 14.336 61.2035 14.064C 60.9955 13.776 60.7075 13.552 60.3395 13.392C 59.9875 13.216 59.5235 13.128 58.9475 13.128C 58.2115 13.128 57.5635 13.184 57.0035 13.296C 56.4595 13.392 56.0515 13.496 55.7795 13.608L 55.5155 11.76C 55.8035 11.632 56.2835 11.512 56.9555 11.4C 57.6275 11.272 58.3555 11.208 59.1395 11.208ZM 67.6466 11.88C 68.1586 11.752 68.8386 11.616 69.6866 11.472C 70.5346 11.328 71.5106 11.256 72.6146 11.256C 73.6066 11.256 74.4306 11.4 75.0866 11.688C 75.7426 11.96 76.2626 12.352 76.6466 12.864C 77.0466 13.36 77.3266 13.96 77.4866 14.664C 77.6466 15.368 77.7266 16.144 77.7266 16.992L 77.7266 24L 75.4946 24L 75.4946 17.472C 75.4946 16.704 75.4386 16.048 75.3266 15.504C 75.2306 14.96 75.0626 14.52 74.8226 14.184C 74.5826 13.848 74.2626 13.608 73.8626 13.464C 73.4626 13.304 72.9666 13.224 72.3746 13.224C 72.1346 13.224 71.8866 13.232 71.6306 13.248C 71.3746 13.264 71.1266 13.288 70.8866 13.32C 70.6626 13.336 70.4546 13.36 70.2626 13.392C 70.0866 13.424 69.9586 13.448 69.8786 13.464L 69.8786 24L 67.6466 24L 67.6466 11.88ZM 83.5158 11.52L 88.2438 11.52L 88.2438 13.392L 83.5158 13.392L 83.5158 19.152C 83.5158 19.776 83.5638 20.296 83.6598 20.712C 83.7558 21.112 83.8998 21.432 84.0918 21.672C 84.2838 21.896 84.5238 22.056 84.8118 22.152C 85.0998 22.248 85.4358 22.296 85.8198 22.296C 86.4918 22.296 87.0278 22.224 87.4278 22.08C 87.8438 21.92 88.1318 21.808 88.2918 21.744L 88.7238 23.592C 88.4998 23.704 88.1078 23.84 87.5478 24C 86.9878 24.176 86.3478 24.264 85.6278 24.264C 84.7798 24.264 84.0758 24.16 83.5158 23.952C 82.9718 23.728 82.5318 23.4 82.1958 22.968C 81.8598 22.536 81.6198 22.008 81.4758 21.384C 81.3478 20.744 81.2838 20.008 81.2838 19.176L 81.2838 8.04L 83.5158 7.656L 83.5158 11.52ZM 91.0841 24L 91.0841 5.76L 93.3161 5.376L 93.3161 11.76C 93.7321 11.6 94.1721 11.48 94.6361 11.4C 95.1161 11.304 95.5881 11.256 96.0521 11.256C 97.0441 11.256 97.8681 11.4 98.5241 11.688C 99.1801 11.96 99.7001 12.352 100.084 12.864C 100.484 13.36 100.764 13.96 100.924 14.664C 101.084 15.368 101.164 16.144 101.164 16.992L 101.164 24L 98.9321 24L 98.9321 17.472C 98.9321 16.704 98.8761 16.048 98.7641 15.504C 98.6681 14.96 98.5001 14.52 98.2601 14.184C 98.0201 13.848 97.7001 13.608 97.3001 13.464C 96.9001 13.304 96.4041 13.224 95.8121 13.224C 95.5721 13.224 95.3241 13.24 95.0681 13.272C 94.8121 13.304 94.5641 13.344 94.3241 13.392C 94.1001 13.424 93.8921 13.464 93.7001 13.512C 93.5241 13.56 93.3961 13.6 93.3161 13.632L 93.3161 24L 91.0841 24ZM 109.019 22.392C 109.547 22.392 110.011 22.384 110.411 22.368C 110.827 22.336 111.171 22.288 111.443 22.224L 111.443 18.504C 111.283 18.424 111.019 18.36 110.651 18.312C 110.299 18.248 109.867 18.216 109.355 18.216C 109.019 18.216 108.659 18.24 108.275 18.288C 107.907 18.336 107.563 18.44 107.243 18.6C 106.939 18.744 106.683 18.952 106.475 19.224C 106.267 19.48 106.163 19.824 106.163 20.256C 106.163 21.056 106.419 21.616 106.931 21.936C 107.443 22.24 108.139 22.392 109.019 22.392ZM 108.827 11.208C 109.723 11.208 110.475 11.328 111.083 11.568C 111.707 11.792 112.203 12.12 112.571 12.552C 112.955 12.968 113.227 13.472 113.387 14.064C 113.547 14.64 113.627 15.28 113.627 15.984L 113.627 23.784C 113.435 23.816 113.163 23.864 112.811 23.928C 112.475 23.976 112.091 24.024 111.659 24.072C 111.227 24.12 110.755 24.16 110.243 24.192C 109.747 24.24 109.251 24.264 108.755 24.264C 108.051 24.264 107.403 24.192 106.811 24.048C 106.219 23.904 105.707 23.68 105.275 23.376C 104.843 23.056 104.507 22.64 104.267 22.128C 104.027 21.616 103.907 21 103.907 20.28C 103.907 19.592 104.043 19 104.315 18.504C 104.603 18.008 104.987 17.608 105.467 17.304C 105.947 17 106.507 16.776 107.147 16.632C 107.787 16.488 108.459 16.416 109.163 16.416C 109.387 16.416 109.619 16.432 109.859 16.464C 110.099 16.48 110.323 16.512 110.531 16.56C 110.755 16.592 110.947 16.624 111.107 16.656C 111.267 16.688 111.379 16.712 111.443 16.728L 111.443 16.104C 111.443 15.736 111.403 15.376 111.323 15.024C 111.243 14.656 111.099 14.336 110.891 14.064C 110.683 13.776 110.395 13.552 110.027 13.392C 109.675 13.216 109.211 13.128 108.635 13.128C 107.899 13.128 107.251 13.184 106.691 13.296C 106.147 13.392 105.739 13.496 105.467 13.608L 105.203 11.76C 105.491 11.632 105.971 11.512 106.643 11.4C 107.315 11.272 108.043 11.208 108.827 11.208ZM 130.185 24.36C 129.017 24.36 127.953 24.168 126.993 23.784C 126.033 23.4 125.209 22.84 124.521 22.104C 123.833 21.368 123.297 20.464 122.913 19.392C 122.545 18.304 122.361 17.064 122.361 15.672C 122.361 14.28 122.569 13.048 122.985 11.976C 123.417 10.888 123.993 9.976 124.713 9.24C 125.433 8.504 126.273 7.944 127.233 7.56C 128.193 7.176 129.217 6.984 130.305 6.984C 130.993 6.984 131.609 7.032 132.153 7.128C 132.713 7.224 133.193 7.336 133.593 7.464C 134.009 7.592 134.345 7.72 134.601 7.848C 134.857 7.976 135.033 8.072 135.129 8.136L 134.457 10.056C 134.313 9.96 134.105 9.856 133.833 9.744C 133.561 9.632 133.249 9.52 132.897 9.408C 132.561 9.296 132.185 9.208 131.769 9.144C 131.369 9.064 130.961 9.024 130.545 9.024C 129.665 9.024 128.873 9.176 128.169 9.48C 127.465 9.784 126.865 10.224 126.369 10.8C 125.873 11.376 125.489 12.08 125.217 12.912C 124.961 13.728 124.833 14.648 124.833 15.672C 124.833 16.664 124.945 17.568 125.169 18.384C 125.409 19.2 125.761 19.904 126.225 20.496C 126.689 21.072 127.265 21.52 127.953 21.84C 128.657 22.16 129.473 22.32 130.401 22.32C 131.473 22.32 132.361 22.208 133.065 21.984C 133.769 21.76 134.297 21.56 134.649 21.384L 135.249 23.304C 135.137 23.384 134.937 23.488 134.649 23.616C 134.361 23.728 134.001 23.84 133.569 23.952C 133.137 24.064 132.633 24.16 132.057 24.24C 131.481 24.32 130.857 24.36 130.185 24.36ZM 141.516 24.24C 140.14 24.208 139.164 23.912 138.588 23.352C 138.012 22.792 137.724 21.92 137.724 20.736L 137.724 5.76L 139.956 5.376L 139.956 20.376C 139.956 20.744 139.988 21.048 140.052 21.288C 140.116 21.528 140.22 21.72 140.364 21.864C 140.508 22.008 140.7 22.12 140.94 22.2C 141.18 22.264 141.476 22.32 141.828 22.368L 141.516 24.24ZM 148.558 22.392C 149.086 22.392 149.55 22.384 149.95 22.368C 150.366 22.336 150.71 22.288 150.982 22.224L 150.982 18.504C 150.822 18.424 150.558 18.36 150.19 18.312C 149.838 18.248 149.406 18.216 148.894 18.216C 148.558 18.216 148.198 18.24 147.814 18.288C 147.446 18.336 147.102 18.44 146.782 18.6C 146.478 18.744 146.222 18.952 146.014 19.224C 145.806 19.48 145.702 19.824 145.702 20.256C 145.702 21.056 145.958 21.616 146.47 21.936C 146.982 22.24 147.678 22.392 148.558 22.392ZM 148.366 11.208C 149.262 11.208 150.014 11.328 150.622 11.568C 151.246 11.792 151.742 12.12 152.11 12.552C 152.494 12.968 152.766 13.472 152.926 14.064C 153.086 14.64 153.166 15.28 153.166 15.984L 153.166 23.784C 152.974 23.816 152.702 23.864 152.35 23.928C 152.014 23.976 151.63 24.024 151.198 24.072C 150.766 24.12 150.294 24.16 149.782 24.192C 149.286 24.24 148.79 24.264 148.294 24.264C 147.59 24.264 146.942 24.192 146.35 24.048C 145.758 23.904 145.246 23.68 144.814 23.376C 144.382 23.056 144.046 22.64 143.806 22.128C 143.566 21.616 143.446 21 143.446 20.28C 143.446 19.592 143.582 19 143.854 18.504C 144.142 18.008 144.526 17.608 145.006 17.304C 145.486 17 146.046 16.776 146.686 16.632C 147.326 16.488 147.998 16.416 148.702 16.416C 148.926 16.416 149.158 16.432 149.398 16.464C 149.638 16.48 149.862 16.512 150.07 16.56C 150.294 16.592 150.486 16.624 150.646 16.656C 150.806 16.688 150.918 16.712 150.982 16.728L 150.982 16.104C 150.982 15.736 150.942 15.376 150.862 15.024C 150.782 14.656 150.638 14.336 150.43 14.064C 150.222 13.776 149.934 13.552 149.566 13.392C 149.214 13.216 148.75 13.128 148.174 13.128C 147.438 13.128 146.79 13.184 146.23 13.296C 145.686 13.392 145.278 13.496 145.006 13.608L 144.742 11.76C 145.03 11.632 145.51 11.512 146.182 11.4C 146.854 11.272 147.582 11.208 148.366 11.208ZM 155.058 26.328C 155.234 26.408 155.458 26.48 155.73 26.544C 156.018 26.624 156.298 26.664 156.57 26.664C 157.45 26.664 158.138 26.464 158.634 26.064C 159.13 25.68 159.578 25.048 159.978 24.168C 158.97 22.248 158.026 20.216 157.146 18.072C 156.282 15.912 155.562 13.728 154.986 11.52L 157.386 11.52C 157.562 12.24 157.77 13.016 158.01 13.848C 158.266 14.68 158.546 15.536 158.85 16.416C 159.154 17.296 159.482 18.176 159.834 19.056C 160.186 19.936 160.554 20.784 160.938 21.6C 161.546 19.92 162.074 18.256 162.522 16.608C 162.97 14.96 163.394 13.264 163.794 11.52L 166.098 11.52C 165.522 13.872 164.882 16.136 164.178 18.312C 163.474 20.472 162.714 22.496 161.898 24.384C 161.578 25.104 161.242 25.72 160.89 26.232C 160.554 26.76 160.178 27.192 159.762 27.528C 159.346 27.864 158.874 28.112 158.346 28.272C 157.834 28.432 157.25 28.512 156.594 28.512C 156.418 28.512 156.234 28.496 156.042 28.464C 155.85 28.448 155.658 28.416 155.466 28.368C 155.29 28.336 155.122 28.296 154.962 28.248C 154.818 28.2 154.714 28.16 154.65 28.128L 155.058 26.328ZM 170.539 11.52L 175.267 11.52L 175.267 13.392L 170.539 13.392L 170.539 19.152C 170.539 19.776 170.587 20.296 170.683 20.712C 170.779 21.112 170.923 21.432 171.115 21.672C 171.307 21.896 171.547 22.056 171.835 22.152C 172.123 22.248 172.459 22.296 172.843 22.296C 173.515 22.296 174.051 22.224 174.451 22.08C 174.867 21.92 175.155 21.808 175.315 21.744L 175.747 23.592C 175.523 23.704 175.131 23.84 174.571 24C 174.011 24.176 173.371 24.264 172.651 24.264C 171.803 24.264 171.099 24.16 170.539 23.952C 169.995 23.728 169.555 23.4 169.219 22.968C 168.883 22.536 168.643 22.008 168.499 21.384C 168.371 20.744 168.307 20.008 168.307 19.176L 168.307 8.04L 170.539 7.656L 170.539 11.52ZM 188.795 17.76C 188.795 18.752 188.651 19.648 188.363 20.448C 188.075 21.248 187.667 21.936 187.139 22.512C 186.627 23.088 186.011 23.536 185.291 23.856C 184.571 24.16 183.787 24.312 182.939 24.312C 182.091 24.312 181.307 24.16 180.587 23.856C 179.867 23.536 179.243 23.088 178.715 22.512C 178.203 21.936 177.803 21.248 177.515 20.448C 177.227 19.648 177.083 18.752 177.083 17.76C 177.083 16.784 177.227 15.896 177.515 15.096C 177.803 14.28 178.203 13.584 178.715 13.008C 179.243 12.432 179.867 11.992 180.587 11.688C 181.307 11.368 182.091 11.208 182.939 11.208C 183.787 11.208 184.571 11.368 185.291 11.688C 186.011 11.992 186.627 12.432 187.139 13.008C 187.667 13.584 188.075 14.28 188.363 15.096C 188.651 15.896 188.795 16.784 188.795 17.76ZM 186.467 17.76C 186.467 16.352 186.147 15.24 185.507 14.424C 184.883 13.592 184.027 13.176 182.939 13.176C 181.851 13.176 180.987 13.592 180.347 14.424C 179.723 15.24 179.411 16.352 179.411 17.76C 179.411 19.168 179.723 20.288 180.347 21.12C 180.987 21.936 181.851 22.344 182.939 22.344C 184.027 22.344 184.883 21.936 185.507 21.12C 186.147 20.288 186.467 19.168 186.467 17.76ZM 191.936 11.88C 192.448 11.752 193.128 11.616 193.976 11.472C 194.824 11.328 195.8 11.256 196.904 11.256C 197.896 11.256 198.72 11.4 199.376 11.688C 200.032 11.96 200.552 12.352 200.936 12.864C 201.336 13.36 201.616 13.96 201.776 14.664C 201.936 15.368 202.016 16.144 202.016 16.992L 202.016 24L 199.784 24L 199.784 17.472C 199.784 16.704 199.728 16.048 199.616 15.504C 199.52 14.96 199.352 14.52 199.112 14.184C 198.872 13.848 198.552 13.608 198.152 13.464C 197.752 13.304 197.256 13.224 196.664 13.224C 196.424 13.224 196.176 13.232 195.92 13.248C 195.664 13.264 195.416 13.288 195.176 13.32C 194.952 13.336 194.744 13.36 194.552 13.392C 194.376 13.424 194.248 13.448 194.168 13.464L 194.168 24L 191.936 24L 191.936 11.88ZM 69.716 36.536C 72.948 38.536 75.98 40.584 78.812 42.68L 77.732 44.192C 76.052 42.624 73.54 40.744 70.196 38.552L 69.74 38.336L 69.716 52.328L 68.084 52.328L 68.084 33.368L 58.844 33.344L 58.844 31.664L 80.156 31.664L 80.156 33.344L 69.74 33.344L 69.716 36.536ZM 78.812 42.68L 78.98 42.824L 78.884 42.632L 78.932 42.512L 78.812 42.68ZM 85.172 43.352L 88.676 43.352L 88.676 39.032L 85.172 39.032L 85.172 43.352ZM 85.172 37.52L 88.676 37.52L 88.676 33.32L 88.436 32.984L 85.46 32.984L 85.172 33.272L 85.172 37.52ZM 87.932 51.104C 88.444 51.088 88.7 50.952 88.7 50.696L 88.7 44.888L 85.124 44.864L 85.124 45.104C 85.124 48.016 84.796 50.416 84.14 52.304L 82.628 51.944C 82.628 51.928 82.668 51.768 82.748 51.464C 82.844 51.16 82.94 50.832 83.036 50.48C 83.132 50.128 83.228 49.72 83.324 49.256C 83.436 48.792 83.524 48.304 83.588 47.792C 83.652 47.264 83.684 46.768 83.684 46.304L 83.756 31.592C 83.772 31.56 83.788 31.544 83.804 31.544L 89.996 31.544C 90.092 31.608 90.148 31.648 90.164 31.664L 90.14 51.728C 89.836 52.32 89.148 52.616 88.076 52.616C 87.996 52.616 87.908 52.616 87.812 52.616L 86.468 52.544L 86.3 50.912L 87.908 51.104L 87.932 51.104ZM 101.78 40.328C 101.78 40.008 101.62 39.768 101.3 39.608L 92.3 39.608L 92.3 38.12L 96.98 38.12L 97.052 34.712L 91.412 34.64L 91.412 33.128L 96.98 33.128L 97.052 30.944L 98.564 30.944L 98.564 33.104L 104.156 33.128L 104.156 34.64L 98.588 34.64L 98.564 38.096L 102.548 38.12L 103.508 38.912C 102.804 41.312 102.1 43.16 101.396 44.456C 100.692 45.752 99.948 46.792 99.164 47.576L 98.972 47.768L 99.164 47.936C 100.476 49.04 102.164 50.144 104.228 51.248L 102.98 52.496C 101.396 51.6 99.724 50.392 97.964 48.872C 96.044 50.536 94.204 51.768 92.444 52.568L 91.268 51.176C 93.492 50.328 95.372 49.208 96.908 47.816C 95.34 46.072 93.892 44.008 92.564 41.624C 92.98 41.384 93.452 41.128 93.98 40.856C 95.068 42.744 95.82 44.016 96.236 44.672C 96.668 45.328 97.188 45.992 97.796 46.664L 97.964 46.856L 98.132 46.664C 99.284 45.416 100.18 44.16 100.82 42.896C 101.46 41.632 101.78 40.776 101.78 40.328ZM 127.892 52.76L 126.452 52.76L 126.452 31.256L 127.892 31.256L 127.892 52.76ZM 123.716 50.792L 122.228 50.792L 122.228 32.576L 123.716 32.576L 123.716 50.792ZM 115.028 33.512L 108.332 33.512L 108.332 32.072L 115.028 32.072L 115.028 33.512ZM 116.324 36.488L 107.108 36.488L 107.108 35.048L 116.324 35.048L 116.324 36.488ZM 117.716 52.568C 117.508 52.536 117.244 52.48 116.924 52.4C 116.62 52.336 116.412 52.304 116.3 52.304C 116.316 52.24 116.396 52.024 116.54 51.656L 116.924 50.552C 117.66 48.456 118.028 46.208 118.028 43.808L 118.028 31.784L 119.492 31.784L 119.492 44.48C 119.492 47.568 118.9 50.264 117.716 52.568ZM 115.1 39.488L 108.236 39.488L 108.236 38.192L 115.1 38.192L 115.1 39.488ZM 115.028 42.464L 108.236 42.464L 108.236 41.168L 115.028 41.168L 115.028 42.464ZM 115.484 44.408L 115.436 51.08L 115.292 51.224L 109.22 51.272L 109.196 52.184L 107.756 52.184L 107.804 44.288C 107.836 44.224 107.9 44.176 107.996 44.144L 115.34 44.168C 115.372 44.184 115.42 44.264 115.484 44.408ZM 113.9 49.664L 113.924 45.824L 113.612 45.512L 109.628 45.512L 109.22 45.752L 109.22 49.88L 113.516 49.88L 113.9 49.664ZM 130.58 51.248C 130.596 51.2 130.716 50.504 130.94 49.16C 131.18 47.8 131.324 46.512 131.372 45.296L 132.716 45.488C 132.556 47.424 132.268 49.44 131.852 51.536C 131.708 51.504 131.54 51.464 131.348 51.416C 131.156 51.384 130.988 51.344 130.844 51.296C 130.7 51.264 130.612 51.248 130.58 51.248ZM 138.716 48.776L 137.42 48.848C 137.196 47.472 136.98 46.328 136.772 45.416L 138.092 45.2L 138.668 48.2C 138.684 48.392 138.7 48.584 138.716 48.776ZM 133.964 41.48C 134.364 41.48 135.236 41.392 136.58 41.216L 136.58 41C 136.58 40.792 136.476 40.328 136.268 39.608L 137.492 39.344C 137.78 40.208 138.092 41.52 138.428 43.28L 137.204 43.448L 137.012 42.608L 136.82 42.608C 136.404 42.608 135.964 42.664 135.5 42.776L 135.5 52.784L 134.06 52.784L 134.06 42.944L 133.82 42.944C 133.692 42.944 132.876 43.04 131.372 43.232L 131.108 43.256C 130.98 43.272 130.892 43.288 130.844 43.304L 130.508 42.032L 131.852 41.84C 132.94 40.464 133.692 39.472 134.108 38.864C 132.924 37.856 131.732 37 130.532 36.296L 131.108 35.096C 131.252 35.16 131.444 35.264 131.684 35.408L 131.9 35.552L 132.02 35.336C 132.692 34.104 133.356 32.768 134.012 31.328L 135.188 31.952C 134.772 32.896 134.012 34.328 132.908 36.248L 134.78 37.76L 134.924 37.52C 135.516 36.432 135.988 35.392 136.34 34.4L 137.588 34.736C 137.38 36.08 136.244 38.04 134.18 40.616L 133.436 41.48L 133.964 41.48ZM 141.836 39.368C 141.996 39.304 142.316 39.176 142.796 38.984C 143.244 39.976 143.564 40.728 143.756 41.24L 142.796 41.528L 141.836 39.368ZM 149.468 39.488L 148.196 41.696L 147.332 41.096C 147.78 40.472 148.196 39.752 148.58 38.936L 149.468 39.488ZM 140.924 42.44L 144.692 42.44L 144.692 37.808L 140.9 37.808L 140.924 42.44ZM 146.228 42.416L 150.404 42.416L 150.38 37.808L 146.228 37.808L 146.228 42.416ZM 146.852 44.216C 148.068 46.504 149.908 48.664 152.372 50.696L 151.124 51.584C 151.012 51.488 150.78 51.28 150.428 50.96C 150.092 50.64 149.876 50.432 149.78 50.336C 149.684 50.256 149.5 50.088 149.228 49.832C 148.956 49.56 148.772 49.376 148.676 49.28C 148.58 49.168 148.42 49 148.196 48.776C 147.988 48.552 147.836 48.376 147.74 48.248C 147.644 48.12 147.516 47.96 147.356 47.768C 147.212 47.576 147.084 47.4 146.972 47.24C 146.876 47.064 146.78 46.88 146.684 46.688L 146.228 45.872L 146.204 52.688L 144.764 52.688L 144.764 46.688L 144.356 46.544C 142.692 48.896 141.1 50.592 139.58 51.632L 138.38 50.6C 140.972 48.6 142.9 46.472 144.164 44.216L 144.356 43.856L 139.484 43.76L 139.484 36.464L 139.508 36.44L 144.692 36.44L 144.764 34.448L 138.98 34.4L 138.98 32.96L 144.692 32.96L 144.764 31.4L 146.204 31.4L 146.204 32.936L 152.228 32.96L 152.228 34.4L 146.228 34.4L 146.204 36.416L 151.796 36.464L 151.796 43.784L 151.772 43.808L 146.852 43.808L 146.852 44.216ZM 136.268 39.608L 136.196 39.344L 136.004 39.656L 136.268 39.608ZM 151.796 36.464L 151.82 36.464L 151.796 36.416L 151.796 36.464ZM 139.484 43.76L 139.292 43.76L 139.508 43.904L 139.484 43.832L 139.484 43.76Z"/>
<path id="path2_fill" d="M 13.1311 22.344C 15.5631 22.344 16.7791 21.512 16.7791 19.848C 16.7791 19.336 16.6671 18.904 16.4431 18.552C 16.2351 18.184 15.9471 17.872 15.5791 17.616C 15.2111 17.344 14.7871 17.112 14.3071 16.92C 13.8431 16.728 13.3471 16.536 12.8191 16.344C 12.2111 16.136 11.6351 15.904 11.0911 15.648C 10.5471 15.376 10.0751 15.064 9.67513 14.712C 9.27513 14.344 8.95512 13.912 8.71513 13.416C 8.49112 12.92 8.37912 12.32 8.37912 11.616C 8.37912 10.16 8.87513 9.024 9.86713 8.208C 10.8591 7.392 12.2271 6.984 13.9711 6.984C 14.9791 6.984 15.8911 7.096 16.7071 7.32C 17.5391 7.528 18.1471 7.76 18.5311 8.016L 17.7871 9.912C 17.4511 9.704 16.9471 9.504 16.2751 9.312C 15.6191 9.104 14.8511 9 13.9711 9C 13.5231 9 13.1071 9.048 12.7231 9.144C 12.3391 9.24 12.0031 9.384 11.7151 9.576C 11.4271 9.768 11.1951 10.016 11.0191 10.32C 10.8591 10.608 10.7791 10.952 10.7791 11.352C 10.7791 11.8 10.8671 12.176 11.0431 12.48C 11.2191 12.784 11.4671 13.056 11.7871 13.296C 12.1071 13.52 12.4751 13.728 12.8911 13.92C 13.3231 14.112 13.7951 14.304 14.3071 14.496C 15.0271 14.784 15.6831 15.072 16.2751 15.36C 16.8831 15.648 17.4031 15.992 17.8351 16.392C 18.2831 16.792 18.6271 17.272 18.8671 17.832C 19.1071 18.376 19.2271 19.04 19.2271 19.824C 19.2271 21.28 18.6911 22.4 17.6191 23.184C 16.5631 23.968 15.0671 24.36 13.1311 24.36C 12.4751 24.36 11.8671 24.312 11.3071 24.216C 10.7631 24.136 10.2751 24.04 9.84312 23.928C 9.41113 23.8 9.03513 23.672 8.71513 23.544C 8.41112 23.4 8.17113 23.28 7.99512 23.184L 8.69112 21.264C 9.05912 21.472 9.61912 21.704 10.3711 21.96C 11.1231 22.216 12.0431 22.344 13.1311 22.344ZM 26.1206 22.392C 26.6486 22.392 27.1126 22.384 27.5126 22.368C 27.9286 22.336 28.2726 22.288 28.5446 22.224L 28.5446 18.504C 28.3846 18.424 28.1206 18.36 27.7526 18.312C 27.4006 18.248 26.9686 18.216 26.4566 18.216C 26.1206 18.216 25.7606 18.24 25.3766 18.288C 25.0086 18.336 24.6646 18.44 24.3446 18.6C 24.0406 18.744 23.7846 18.952 23.5766 19.224C 23.3686 19.48 23.2646 19.824 23.2646 20.256C 23.2646 21.056 23.5206 21.616 24.0326 21.936C 24.5446 22.24 25.2406 22.392 26.1206 22.392ZM 25.9286 11.208C 26.8246 11.208 27.5766 11.328 28.1846 11.568C 28.8086 11.792 29.3046 12.12 29.6726 12.552C 30.0566 12.968 30.3286 13.472 30.4886 14.064C 30.6486 14.64 30.7286 15.28 30.7286 15.984L 30.7286 23.784C 30.5366 23.816 30.2646 23.864 29.9126 23.928C 29.5766 23.976 29.1926 24.024 28.7606 24.072C 28.3286 24.12 27.8566 24.16 27.3446 24.192C 26.8486 24.24 26.3526 24.264 25.8566 24.264C 25.1526 24.264 24.5046 24.192 23.9126 24.048C 23.3206 23.904 22.8086 23.68 22.3766 23.376C 21.9446 23.056 21.6086 22.64 21.3686 22.128C 21.1286 21.616 21.0086 21 21.0086 20.28C 21.0086 19.592 21.1446 19 21.4166 18.504C 21.7046 18.008 22.0886 17.608 22.5686 17.304C 23.0486 17 23.6086 16.776 24.2486 16.632C 24.8886 16.488 25.5606 16.416 26.2646 16.416C 26.4886 16.416 26.7206 16.432 26.9606 16.464C 27.2006 16.48 27.4246 16.512 27.6326 16.56C 27.8566 16.592 28.0486 16.624 28.2086 16.656C 28.3686 16.688 28.4806 16.712 28.5446 16.728L 28.5446 16.104C 28.5446 15.736 28.5046 15.376 28.4246 15.024C 28.3446 14.656 28.2006 14.336 27.9926 14.064C 27.7846 13.776 27.4966 13.552 27.1286 13.392C 26.7766 13.216 26.3126 13.128 25.7366 13.128C 25.0006 13.128 24.3526 13.184 23.7926 13.296C 23.2486 13.392 22.8406 13.496 22.5686 13.608L 22.3046 11.76C 22.5926 11.632 23.0726 11.512 23.7446 11.4C 24.4166 11.272 25.1446 11.208 25.9286 11.208ZM 34.4356 11.88C 34.9476 11.752 35.6196 11.616 36.4516 11.472C 37.2996 11.328 38.2756 11.256 39.3796 11.256C 40.1796 11.256 40.8516 11.368 41.3956 11.592C 41.9396 11.8 42.3956 12.112 42.7636 12.528C 42.8756 12.448 43.0516 12.336 43.2916 12.192C 43.5316 12.048 43.8276 11.912 44.1796 11.784C 44.5316 11.64 44.9236 11.52 45.3556 11.424C 45.7876 11.312 46.2516 11.256 46.7476 11.256C 47.7076 11.256 48.4916 11.4 49.0996 11.688C 49.7076 11.96 50.1796 12.352 50.5156 12.864C 50.8676 13.376 51.0996 13.984 51.2116 14.688C 51.3396 15.392 51.4036 16.16 51.4036 16.992L 51.4036 24L 49.1716 24L 49.1716 17.472C 49.1716 16.736 49.1316 16.104 49.0516 15.576C 48.9876 15.048 48.8516 14.608 48.6436 14.256C 48.4516 13.904 48.1796 13.648 47.8276 13.488C 47.4916 13.312 47.0516 13.224 46.5076 13.224C 45.7556 13.224 45.1316 13.328 44.6356 13.536C 44.1556 13.728 43.8276 13.904 43.6516 14.064C 43.7796 14.48 43.8756 14.936 43.9396 15.432C 44.0036 15.928 44.0356 16.448 44.0356 16.992L 44.0356 24L 41.8036 24L 41.8036 17.472C 41.8036 16.736 41.7636 16.104 41.6836 15.576C 41.6036 15.048 41.4596 14.608 41.2516 14.256C 41.0596 13.904 40.7876 13.648 40.4356 13.488C 40.0996 13.312 39.6676 13.224 39.1396 13.224C 38.9156 13.224 38.6756 13.232 38.4196 13.248C 38.1636 13.264 37.9156 13.288 37.6756 13.32C 37.4516 13.336 37.2436 13.36 37.0516 13.392C 36.8596 13.424 36.7316 13.448 36.6676 13.464L 36.6676 24L 34.4356 24L 34.4356 11.88ZM 59.3315 22.392C 59.8595 22.392 60.3235 22.384 60.7235 22.368C 61.1395 22.336 61.4835 22.288 61.7555 22.224L 61.7555 18.504C 61.5955 18.424 61.3315 18.36 60.9635 18.312C 60.6115 18.248 60.1795 18.216 59.6675 18.216C 59.3315 18.216 58.9715 18.24 58.5875 18.288C 58.2195 18.336 57.8755 18.44 57.5555 18.6C 57.2515 18.744 56.9955 18.952 56.7875 19.224C 56.5795 19.48 56.4755 19.824 56.4755 20.256C 56.4755 21.056 56.7315 21.616 57.2435 21.936C 57.7555 22.24 58.4515 22.392 59.3315 22.392ZM 59.1395 11.208C 60.0355 11.208 60.7875 11.328 61.3955 11.568C 62.0195 11.792 62.5155 12.12 62.8835 12.552C 63.2675 12.968 63.5395 13.472 63.6995 14.064C 63.8595 14.64 63.9395 15.28 63.9395 15.984L 63.9395 23.784C 63.7475 23.816 63.4755 23.864 63.1235 23.928C 62.7875 23.976 62.4035 24.024 61.9715 24.072C 61.5395 24.12 61.0675 24.16 60.5555 24.192C 60.0595 24.24 59.5635 24.264 59.0675 24.264C 58.3635 24.264 57.7155 24.192 57.1235 24.048C 56.5315 23.904 56.0195 23.68 55.5875 23.376C 55.1555 23.056 54.8195 22.64 54.5795 22.128C 54.3395 21.616 54.2195 21 54.2195 20.28C 54.2195 19.592 54.3555 19 54.6275 18.504C 54.9155 18.008 55.2995 17.608 55.7795 17.304C 56.2595 17 56.8195 16.776 57.4595 16.632C 58.0995 16.488 58.7715 16.416 59.4755 16.416C 59.6995 16.416 59.9315 16.432 60.1715 16.464C 60.4115 16.48 60.6355 16.512 60.8435 16.56C 61.0675 16.592 61.2595 16.624 61.4195 16.656C 61.5795 16.688 61.6915 16.712 61.7555 16.728L 61.7555 16.104C 61.7555 15.736 61.7155 15.376 61.6355 15.024C 61.5555 14.656 61.4115 14.336 61.2035 14.064C 60.9955 13.776 60.7075 13.552 60.3395 13.392C 59.9875 13.216 59.5235 13.128 58.9475 13.128C 58.2115 13.128 57.5635 13.184 57.0035 13.296C 56.4595 13.392 56.0515 13.496 55.7795 13.608L 55.5155 11.76C 55.8035 11.632 56.2835 11.512 56.9555 11.4C 57.6275 11.272 58.3555 11.208 59.1395 11.208ZM 67.6466 11.88C 68.1586 11.752 68.8386 11.616 69.6866 11.472C 70.5346 11.328 71.5106 11.256 72.6146 11.256C 73.6066 11.256 74.4306 11.4 75.0866 11.688C 75.7426 11.96 76.2626 12.352 76.6466 12.864C 77.0466 13.36 77.3266 13.96 77.4866 14.664C 77.6466 15.368 77.7266 16.144 77.7266 16.992L 77.7266 24L 75.4946 24L 75.4946 17.472C 75.4946 16.704 75.4386 16.048 75.3266 15.504C 75.2306 14.96 75.0626 14.52 74.8226 14.184C 74.5826 13.848 74.2626 13.608 73.8626 13.464C 73.4626 13.304 72.9666 13.224 72.3746 13.224C 72.1346 13.224 71.8866 13.232 71.6306 13.248C 71.3746 13.264 71.1266 13.288 70.8866 13.32C 70.6626 13.336 70.4546 13.36 70.2626 13.392C 70.0866 13.424 69.9586 13.448 69.8786 13.464L 69.8786 24L 67.6466 24L 67.6466 11.88ZM 83.5158 11.52L 88.2438 11.52L 88.2438 13.392L 83.5158 13.392L 83.5158 19.152C 83.5158 19.776 83.5638 20.296 83.6598 20.712C 83.7558 21.112 83.8998 21.432 84.0918 21.672C 84.2838 21.896 84.5238 22.056 84.8118 22.152C 85.0998 22.248 85.4358 22.296 85.8198 22.296C 86.4918 22.296 87.0278 22.224 87.4278 22.08C 87.8438 21.92 88.1318 21.808 88.2918 21.744L 88.7238 23.592C 88.4998 23.704 88.1078 23.84 87.5478 24C 86.9878 24.176 86.3478 24.264 85.6278 24.264C 84.7798 24.264 84.0758 24.16 83.5158 23.952C 82.9718 23.728 82.5318 23.4 82.1958 22.968C 81.8598 22.536 81.6198 22.008 81.4758 21.384C 81.3478 20.744 81.2838 20.008 81.2838 19.176L 81.2838 8.04L 83.5158 7.656L 83.5158 11.52ZM 91.0841 24L 91.0841 5.76L 93.3161 5.376L 93.3161 11.76C 93.7321 11.6 94.1721 11.48 94.6361 11.4C 95.1161 11.304 95.5881 11.256 96.0521 11.256C 97.0441 11.256 97.8681 11.4 98.5241 11.688C 99.1801 11.96 99.7001 12.352 100.084 12.864C 100.484 13.36 100.764 13.96 100.924 14.664C 101.084 15.368 101.164 16.144 101.164 16.992L 101.164 24L 98.9321 24L 98.9321 17.472C 98.9321 16.704 98.8761 16.048 98.7641 15.504C 98.6681 14.96 98.5001 14.52 98.2601 14.184C 98.0201 13.848 97.7001 13.608 97.3001 13.464C 96.9001 13.304 96.4041 13.224 95.8121 13.224C 95.5721 13.224 95.3241 13.24 95.0681 13.272C 94.8121 13.304 94.5641 13.344 94.3241 13.392C 94.1001 13.424 93.8921 13.464 93.7001 13.512C 93.5241 13.56 93.3961 13.6 93.3161 13.632L 93.3161 24L 91.0841 24ZM 109.019 22.392C 109.547 22.392 110.011 22.384 110.411 22.368C 110.827 22.336 111.171 22.288 111.443 22.224L 111.443 18.504C 111.283 18.424 111.019 18.36 110.651 18.312C 110.299 18.248 109.867 18.216 109.355 18.216C 109.019 18.216 108.659 18.24 108.275 18.288C 107.907 18.336 107.563 18.44 107.243 18.6C 106.939 18.744 106.683 18.952 106.475 19.224C 106.267 19.48 106.163 19.824 106.163 20.256C 106.163 21.056 106.419 21.616 106.931 21.936C 107.443 22.24 108.139 22.392 109.019 22.392ZM 108.827 11.208C 109.723 11.208 110.475 11.328 111.083 11.568C 111.707 11.792 112.203 12.12 112.571 12.552C 112.955 12.968 113.227 13.472 113.387 14.064C 113.547 14.64 113.627 15.28 113.627 15.984L 113.627 23.784C 113.435 23.816 113.163 23.864 112.811 23.928C 112.475 23.976 112.091 24.024 111.659 24.072C 111.227 24.12 110.755 24.16 110.243 24.192C 109.747 24.24 109.251 24.264 108.755 24.264C 108.051 24.264 107.403 24.192 106.811 24.048C 106.219 23.904 105.707 23.68 105.275 23.376C 104.843 23.056 104.507 22.64 104.267 22.128C 104.027 21.616 103.907 21 103.907 20.28C 103.907 19.592 104.043 19 104.315 18.504C 104.603 18.008 104.987 17.608 105.467 17.304C 105.947 17 106.507 16.776 107.147 16.632C 107.787 16.488 108.459 16.416 109.163 16.416C 109.387 16.416 109.619 16.432 109.859 16.464C 110.099 16.48 110.323 16.512 110.531 16.56C 110.755 16.592 110.947 16.624 111.107 16.656C 111.267 16.688 111.379 16.712 111.443 16.728L 111.443 16.104C 111.443 15.736 111.403 15.376 111.323 15.024C 111.243 14.656 111.099 14.336 110.891 14.064C 110.683 13.776 110.395 13.552 110.027 13.392C 109.675 13.216 109.211 13.128 108.635 13.128C 107.899 13.128 107.251 13.184 106.691 13.296C 106.147 13.392 105.739 13.496 105.467 13.608L 105.203 11.76C 105.491 11.632 105.971 11.512 106.643 11.4C 107.315 11.272 108.043 11.208 108.827 11.208ZM 130.185 24.36C 129.017 24.36 127.953 24.168 126.993 23.784C 126.033 23.4 125.209 22.84 124.521 22.104C 123.833 21.368 123.297 20.464 122.913 19.392C 122.545 18.304 122.361 17.064 122.361 15.672C 122.361 14.28 122.569 13.048 122.985 11.976C 123.417 10.888 123.993 9.976 124.713 9.24C 125.433 8.504 126.273 7.944 127.233 7.56C 128.193 7.176 129.217 6.984 130.305 6.984C 130.993 6.984 131.609 7.032 132.153 7.128C 132.713 7.224 133.193 7.336 133.593 7.464C 134.009 7.592 134.345 7.72 134.601 7.848C 134.857 7.976 135.033 8.072 135.129 8.136L 134.457 10.056C 134.313 9.96 134.105 9.856 133.833 9.744C 133.561 9.632 133.249 9.52 132.897 9.408C 132.561 9.296 132.185 9.208 131.769 9.144C 131.369 9.064 130.961 9.024 130.545 9.024C 129.665 9.024 128.873 9.176 128.169 9.48C 127.465 9.784 126.865 10.224 126.369 10.8C 125.873 11.376 125.489 12.08 125.217 12.912C 124.961 13.728 124.833 14.648 124.833 15.672C 124.833 16.664 124.945 17.568 125.169 18.384C 125.409 19.2 125.761 19.904 126.225 20.496C 126.689 21.072 127.265 21.52 127.953 21.84C 128.657 22.16 129.473 22.32 130.401 22.32C 131.473 22.32 132.361 22.208 133.065 21.984C 133.769 21.76 134.297 21.56 134.649 21.384L 135.249 23.304C 135.137 23.384 134.937 23.488 134.649 23.616C 134.361 23.728 134.001 23.84 133.569 23.952C 133.137 24.064 132.633 24.16 132.057 24.24C 131.481 24.32 130.857 24.36 130.185 24.36ZM 141.516 24.24C 140.14 24.208 139.164 23.912 138.588 23.352C 138.012 22.792 137.724 21.92 137.724 20.736L 137.724 5.76L 139.956 5.376L 139.956 20.376C 139.956 20.744 139.988 21.048 140.052 21.288C 140.116 21.528 140.22 21.72 140.364 21.864C 140.508 22.008 140.7 22.12 140.94 22.2C 141.18 22.264 141.476 22.32 141.828 22.368L 141.516 24.24ZM 148.558 22.392C 149.086 22.392 149.55 22.384 149.95 22.368C 150.366 22.336 150.71 22.288 150.982 22.224L 150.982 18.504C 150.822 18.424 150.558 18.36 150.19 18.312C 149.838 18.248 149.406 18.216 148.894 18.216C 148.558 18.216 148.198 18.24 147.814 18.288C 147.446 18.336 147.102 18.44 146.782 18.6C 146.478 18.744 146.222 18.952 146.014 19.224C 145.806 19.48 145.702 19.824 145.702 20.256C 145.702 21.056 145.958 21.616 146.47 21.936C 146.982 22.24 147.678 22.392 148.558 22.392ZM 148.366 11.208C 149.262 11.208 150.014 11.328 150.622 11.568C 151.246 11.792 151.742 12.12 152.11 12.552C 152.494 12.968 152.766 13.472 152.926 14.064C 153.086 14.64 153.166 15.28 153.166 15.984L 153.166 23.784C 152.974 23.816 152.702 23.864 152.35 23.928C 152.014 23.976 151.63 24.024 151.198 24.072C 150.766 24.12 150.294 24.16 149.782 24.192C 149.286 24.24 148.79 24.264 148.294 24.264C 147.59 24.264 146.942 24.192 146.35 24.048C 145.758 23.904 145.246 23.68 144.814 23.376C 144.382 23.056 144.046 22.64 143.806 22.128C 143.566 21.616 143.446 21 143.446 20.28C 143.446 19.592 143.582 19 143.854 18.504C 144.142 18.008 144.526 17.608 145.006 17.304C 145.486 17 146.046 16.776 146.686 16.632C 147.326 16.488 147.998 16.416 148.702 16.416C 148.926 16.416 149.158 16.432 149.398 16.464C 149.638 16.48 149.862 16.512 150.07 16.56C 150.294 16.592 150.486 16.624 150.646 16.656C 150.806 16.688 150.918 16.712 150.982 16.728L 150.982 16.104C 150.982 15.736 150.942 15.376 150.862 15.024C 150.782 14.656 150.638 14.336 150.43 14.064C 150.222 13.776 149.934 13.552 149.566 13.392C 149.214 13.216 148.75 13.128 148.174 13.128C 147.438 13.128 146.79 13.184 146.23 13.296C 145.686 13.392 145.278 13.496 145.006 13.608L 144.742 11.76C 145.03 11.632 145.51 11.512 146.182 11.4C 146.854 11.272 147.582 11.208 148.366 11.208ZM 155.058 26.328C 155.234 26.408 155.458 26.48 155.73 26.544C 156.018 26.624 156.298 26.664 156.57 26.664C 157.45 26.664 158.138 26.464 158.634 26.064C 159.13 25.68 159.578 25.048 159.978 24.168C 158.97 22.248 158.026 20.216 157.146 18.072C 156.282 15.912 155.562 13.728 154.986 11.52L 157.386 11.52C 157.562 12.24 157.77 13.016 158.01 13.848C 158.266 14.68 158.546 15.536 158.85 16.416C 159.154 17.296 159.482 18.176 159.834 19.056C 160.186 19.936 160.554 20.784 160.938 21.6C 161.546 19.92 162.074 18.256 162.522 16.608C 162.97 14.96 163.394 13.264 163.794 11.52L 166.098 11.52C 165.522 13.872 164.882 16.136 164.178 18.312C 163.474 20.472 162.714 22.496 161.898 24.384C 161.578 25.104 161.242 25.72 160.89 26.232C 160.554 26.76 160.178 27.192 159.762 27.528C 159.346 27.864 158.874 28.112 158.346 28.272C 157.834 28.432 157.25 28.512 156.594 28.512C 156.418 28.512 156.234 28.496 156.042 28.464C 155.85 28.448 155.658 28.416 155.466 28.368C 155.29 28.336 155.122 28.296 154.962 28.248C 154.818 28.2 154.714 28.16 154.65 28.128L 155.058 26.328ZM 170.539 11.52L 175.267 11.52L 175.267 13.392L 170.539 13.392L 170.539 19.152C 170.539 19.776 170.587 20.296 170.683 20.712C 170.779 21.112 170.923 21.432 171.115 21.672C 171.307 21.896 171.547 22.056 171.835 22.152C 172.123 22.248 172.459 22.296 172.843 22.296C 173.515 22.296 174.051 22.224 174.451 22.08C 174.867 21.92 175.155 21.808 175.315 21.744L 175.747 23.592C 175.523 23.704 175.131 23.84 174.571 24C 174.011 24.176 173.371 24.264 172.651 24.264C 171.803 24.264 171.099 24.16 170.539 23.952C 169.995 23.728 169.555 23.4 169.219 22.968C 168.883 22.536 168.643 22.008 168.499 21.384C 168.371 20.744 168.307 20.008 168.307 19.176L 168.307 8.04L 170.539 7.656L 170.539 11.52ZM 188.795 17.76C 188.795 18.752 188.651 19.648 188.363 20.448C 188.075 21.248 187.667 21.936 187.139 22.512C 186.627 23.088 186.011 23.536 185.291 23.856C 184.571 24.16 183.787 24.312 182.939 24.312C 182.091 24.312 181.307 24.16 180.587 23.856C 179.867 23.536 179.243 23.088 178.715 22.512C 178.203 21.936 177.803 21.248 177.515 20.448C 177.227 19.648 177.083 18.752 177.083 17.76C 177.083 16.784 177.227 15.896 177.515 15.096C 177.803 14.28 178.203 13.584 178.715 13.008C 179.243 12.432 179.867 11.992 180.587 11.688C 181.307 11.368 182.091 11.208 182.939 11.208C 183.787 11.208 184.571 11.368 185.291 11.688C 186.011 11.992 186.627 12.432 187.139 13.008C 187.667 13.584 188.075 14.28 188.363 15.096C 188.651 15.896 188.795 16.784 188.795 17.76ZM 186.467 17.76C 186.467 16.352 186.147 15.24 185.507 14.424C 184.883 13.592 184.027 13.176 182.939 13.176C 181.851 13.176 180.987 13.592 180.347 14.424C 179.723 15.24 179.411 16.352 179.411 17.76C 179.411 19.168 179.723 20.288 180.347 21.12C 180.987 21.936 181.851 22.344 182.939 22.344C 184.027 22.344 184.883 21.936 185.507 21.12C 186.147 20.288 186.467 19.168 186.467 17.76ZM 191.936 11.88C 192.448 11.752 193.128 11.616 193.976 11.472C 194.824 11.328 195.8 11.256 196.904 11.256C 197.896 11.256 198.72 11.4 199.376 11.688C 200.032 11.96 200.552 12.352 200.936 12.864C 201.336 13.36 201.616 13.96 201.776 14.664C 201.936 15.368 202.016 16.144 202.016 16.992L 202.016 24L 199.784 24L 199.784 17.472C 199.784 16.704 199.728 16.048 199.616 15.504C 199.52 14.96 199.352 14.52 199.112 14.184C 198.872 13.848 198.552 13.608 198.152 13.464C 197.752 13.304 197.256 13.224 196.664 13.224C 196.424 13.224 196.176 13.232 195.92 13.248C 195.664 13.264 195.416 13.288 195.176 13.32C 194.952 13.336 194.744 13.36 194.552 13.392C 194.376 13.424 194.248 13.448 194.168 13.464L 194.168 24L 191.936 24L 191.936 11.88ZM 43.82 48.752C 43.532 50.592 43.284 51.92 43.076 52.736L 41.612 52.352C 41.98 50.928 42.22 49.608 42.332 48.392L 43.82 48.752ZM 49.94 52.472L 48.452 52.688C 48.1 50.944 47.772 49.608 47.468 48.68L 48.932 48.392C 49.46 50.312 49.796 51.672 49.94 52.472ZM 55.124 52.784C 54.148 51.296 53.5 50.328 53.18 49.88C 52.86 49.432 52.532 49.016 52.196 48.632L 53.348 47.768C 54.42 48.968 55.428 50.368 56.372 51.968L 55.124 52.784ZM 44.636 39.104C 44.828 38.784 44.964 38.224 45.044 37.424L 46.292 37.952L 45.908 39.656L 45.764 39.968C 45.572 40.208 45.292 40.336 44.924 40.352L 41.396 40.328C 41.252 40.248 41.132 40.112 41.036 39.92L 41.036 36.656L 38.66 36.656L 38.66 36.896C 38.66 38.576 37.54 39.776 35.3 40.496L 34.7 39.152C 34.748 39.136 34.82 39.112 34.916 39.08C 35.316 38.952 35.612 38.848 35.804 38.768C 36.012 38.688 36.252 38.568 36.524 38.408C 36.812 38.248 37.012 38.056 37.124 37.832C 37.252 37.592 37.316 37.312 37.316 36.992C 37.316 36.96 37.316 36.848 37.316 36.656L 34.652 36.656L 34.652 35.312L 39.092 35.312L 39.14 33.68L 35.324 33.608L 35.324 32.384L 39.092 32.384L 39.14 31.16L 40.556 31.16L 40.556 32.312L 44.42 32.384L 44.42 33.608L 40.604 33.608L 40.556 35.288L 45.044 35.312L 45.044 36.656L 42.476 36.656L 42.428 38.168C 42.444 38.536 42.588 38.832 42.86 39.056L 44.636 39.104ZM 49.94 39.824C 50.948 41.92 51.732 43.736 52.292 45.272L 51.044 45.848L 49.412 42.08L 49.196 42.584C 48.348 44.52 47.316 46.112 46.1 47.36L 44.924 46.496L 45.188 46.232C 46.484 44.968 47.588 42.928 48.5 40.112L 46.532 36.776L 47.804 36.104L 48.644 37.472L 49.004 37.112C 49.084 36.136 49.124 35.416 49.124 34.952L 49.124 34.712L 46.412 34.688L 46.412 33.368L 49.124 33.368L 49.148 31.688L 50.612 31.688L 50.612 33.296L 53.66 33.416C 53.66 33.416 53.66 33.424 53.66 33.44L 53.66 35.456C 53.66 39.632 53.812 42.448 54.116 43.904L 54.332 44.72L 54.524 44.72C 54.7 44.72 54.86 44.648 55.004 44.504C 55.084 44.024 55.18 42.792 55.292 40.808L 56.54 41.024C 56.492 43.072 56.316 44.576 56.012 45.536C 55.724 46.496 55.26 46.976 54.62 46.976C 54.428 46.976 54.244 46.896 54.068 46.736C 53.892 46.576 53.7 46.256 53.492 45.776C 53.3 45.296 53.132 44.672 52.988 43.904C 52.844 43.136 52.724 42.08 52.628 40.736C 52.532 39.376 52.476 37.808 52.46 36.032L 52.46 34.904C 52.156 34.76 51.62 34.688 50.852 34.688L 50.636 34.688C 50.556 35.344 50.484 35.992 50.42 36.632C 50.372 37.272 50.332 37.712 50.3 37.952C 50.284 38.176 50.244 38.448 50.18 38.768C 50.132 39.072 50.052 39.424 49.94 39.824ZM 34.604 51.728C 35.996 50.624 37.044 49.408 37.748 48.08L 39.092 48.752C 38.1 50.512 36.988 51.848 35.756 52.76L 34.604 51.728ZM 34.604 51.728L 34.412 51.584L 34.388 51.56L 34.364 51.92L 34.604 51.728ZM 35.756 52.76L 35.732 52.784L 35.804 52.784L 35.756 52.76ZM 45.044 37.424C 45.076 37.216 45.092 37.104 45.092 37.088L 44.756 37.304L 45.044 37.424ZM 55.292 40.808L 55.292 40.664L 55.292 40.52L 55.004 40.76L 55.292 40.808ZM 53.66 33.416L 53.732 33.416L 53.684 33.392C 53.668 33.392 53.66 33.4 53.66 33.416ZM 47.804 36.104C 47.964 36.024 48.06 35.952 48.092 35.888L 47.684 35.912L 47.804 36.104ZM 44.924 46.496L 44.852 46.424L 44.876 46.544L 44.924 46.496ZM 44.732 46.352C 43.564 46.416 40.252 46.624 34.796 46.976L 34.58 45.464L 38.78 45.296L 38.828 43.04L 35.252 42.944L 35.252 41.648L 38.78 41.648L 38.828 39.944L 40.316 39.944L 40.316 41.624L 44.516 41.648L 44.516 42.968L 40.364 42.968L 40.364 45.176L 44.66 44.96C 44.676 45.376 44.716 45.76 44.78 46.112L 44.852 46.424L 44.732 46.352ZM 62.348 45.152L 75.644 44.24L 75.644 42.224L 62.348 42.224L 62.348 45.152ZM 62.348 40.736L 75.644 40.736L 75.644 38.216L 62.348 38.216L 62.348 40.736ZM 62.348 36.728L 75.644 36.728L 75.644 34.616L 75.452 34.424L 62.636 34.424L 62.348 34.568L 62.348 36.728ZM 80.396 40.616L 80.42 40.64L 80.42 40.568L 80.396 40.616ZM 74.012 51.224C 74.348 51.224 74.628 51.176 74.852 51.08C 75.076 50.984 75.244 50.88 75.356 50.768C 75.468 50.656 75.548 50.48 75.596 50.24C 75.66 50 75.692 49.816 75.692 49.688C 75.708 49.56 75.716 49.36 75.716 49.088C 75.716 48.192 75.692 47.584 75.644 47.264L 75.572 46.832L 75.26 47.096C 74.348 47.864 73.332 48.552 72.212 49.16C 71.108 49.768 70.068 50.256 69.092 50.624C 68.132 51.008 67.036 51.352 65.804 51.656C 64.572 51.96 63.548 52.184 62.732 52.328C 61.916 52.472 60.94 52.624 59.804 52.784L 59.18 51.128C 65.308 50.84 70.26 49.24 74.036 46.328L 74.588 45.896L 73.892 45.896C 73.3 45.896 72.844 45.904 72.524 45.92L 58.82 46.976L 58.604 45.392L 60.812 45.272L 60.86 33.128L 61.028 32.984L 67.364 32.888C 67.844 32.248 68.212 31.672 68.468 31.16L 69.812 31.904L 69.26 32.888L 77.108 32.984C 77.156 32.984 77.204 33.024 77.252 33.104L 77.276 42.056L 77.588 42.368L 79.076 39.824L 80.396 40.616C 79.484 42.104 78.444 43.584 77.276 45.056L 77.252 51.104C 77.252 51.472 76.988 51.88 76.46 52.328L 76.028 52.568C 75.644 52.76 75.108 52.856 74.42 52.856C 73.844 52.856 73.172 52.784 72.404 52.64L 71.66 52.496C 71.628 52.144 71.596 51.56 71.564 50.744L 73.22 51.152C 73.508 51.2 73.772 51.224 74.012 51.224ZM 85.724 45.92C 85.724 45.408 85.716 44.872 85.7 44.312C 85.684 43.736 85.676 43.392 85.676 43.28L 85.676 43.184L 85.388 42.896L 83.108 42.896L 83.108 41.384L 87.212 41.432L 87.26 41.48L 87.332 48.176C 88.372 49.92 90.332 50.8 93.212 50.816L 99.332 50.816L 104.108 50.624L 103.724 52.4L 92.636 52.256C 90.06 52.224 88.124 51.44 86.828 49.904L 86.612 49.64L 86.444 49.928C 85.644 51.16 84.548 52.016 83.156 52.496L 82.532 51.056C 83.124 50.816 83.596 50.592 83.948 50.384C 84.316 50.176 84.62 49.952 84.86 49.712C 85.116 49.472 85.3 49.168 85.412 48.8C 85.54 48.432 85.62 48.04 85.652 47.624C 85.7 47.192 85.724 46.624 85.724 45.92ZM 87.14 38.504L 86.18 39.752C 85.092 38.824 84.028 38.032 82.988 37.376L 83.924 36.104C 84.772 36.648 85.844 37.448 87.14 38.504ZM 87.476 33.704L 86.516 35C 85.428 34.088 84.396 33.36 83.42 32.816L 84.284 31.544C 85.18 32.008 86.244 32.728 87.476 33.704ZM 91.388 43.52L 95.468 43.52L 95.468 41.816L 91.364 41.816L 91.388 43.52ZM 91.364 40.664L 95.468 40.664L 95.468 38.912L 91.364 38.912L 91.364 40.664ZM 96.98 43.472L 101.012 43.472L 101.012 41.816L 96.98 41.816L 96.98 43.472ZM 96.98 40.664L 101.012 40.664L 100.964 38.912L 96.98 38.912L 96.98 40.664ZM 102.428 35.672C 102.732 34.504 102.924 33.68 103.004 33.2L 102.74 32.888L 96.98 32.888L 96.956 34.784L 101.492 34.808L 101.492 36.08L 96.98 36.08L 96.956 37.736L 102.548 37.832L 102.548 44.672L 96.98 44.672L 96.956 46.496L 103.844 46.544L 103.844 47.864L 96.98 47.864L 96.956 50L 95.516 50L 95.516 47.864L 88.844 47.864L 88.844 46.544L 95.468 46.544L 95.516 44.696L 89.852 44.648L 89.852 37.784L 89.876 37.76L 95.468 37.76L 95.516 36.104L 91.052 36.08L 91.052 34.808L 95.468 34.808L 95.516 32.936L 90.068 32.888L 89.78 33.176L 89.78 35.864L 88.364 35.864L 88.364 31.664L 88.412 31.616L 103.22 31.616L 104.54 32.312C 104.492 33.224 104.244 34.488 103.796 36.104C 103.476 36.024 103.02 35.88 102.428 35.672ZM 89.852 44.648L 89.828 44.648L 89.852 44.696L 89.852 44.648ZM 102.548 37.832L 102.62 37.832L 102.548 37.76L 102.548 37.832ZM 108.692 44L 112.292 44L 112.292 42.176L 108.572 42.176L 108.692 44ZM 108.596 41L 112.292 41L 112.292 39.2L 108.596 39.2L 108.596 41ZM 113.684 44L 117.116 43.952L 117.116 42.176L 113.684 42.176L 113.684 44ZM 113.684 41L 117.116 41L 117.116 39.2L 113.684 39.2L 113.684 41ZM 118.58 36.176L 113.684 36.176L 113.66 37.976L 118.508 38L 118.508 45.128L 118.484 45.152L 113.684 45.152L 113.66 47.096L 118.196 47.12L 118.196 48.392L 113.684 48.392L 113.66 50.264L 117.86 49.952L 117.98 51.392L 107.156 52.208L 106.964 50.792L 112.292 50.384L 112.34 48.392L 107.372 48.392L 107.372 47.12L 112.292 47.12L 112.34 45.176L 107.228 45.104L 107.228 38L 112.292 38L 112.34 36.2L 107.18 36.176L 107.18 34.904L 112.292 34.904L 112.34 33.128L 107.708 33.248C 107.628 32.752 107.548 32.328 107.468 31.976C 111.948 31.928 115.42 31.688 117.884 31.256L 118.052 32.456C 117.972 32.472 117.868 32.488 117.74 32.504L 114.668 32.816C 114.588 32.832 114.428 32.856 114.188 32.888C 113.964 32.92 113.796 32.944 113.684 32.96L 113.66 34.88L 118.58 34.904L 118.58 36.176ZM 123.452 36.488C 123.02 42.888 121.988 48.2 120.356 52.424C 120.18 52.392 119.66 52.296 118.796 52.136C 119.372 50.744 119.876 49.152 120.308 47.36C 120.756 45.568 121.084 43.88 121.292 42.296C 121.516 40.712 121.668 39.504 121.748 38.672C 121.844 37.84 121.9 37.216 121.916 36.8L 121.94 36.536L 119.948 36.488L 119.948 35.048L 121.82 35.048L 122.036 34.592L 122.036 31.16L 123.62 31.16L 123.524 35.024L 127.844 35.096C 127.892 35.096 127.956 35.176 128.036 35.336L 128.036 43.832C 128.036 47.736 127.524 50.376 126.5 51.752C 126.068 52.328 125.324 52.616 124.268 52.616C 123.676 52.616 123.076 52.544 122.468 52.4L 122.18 50.624C 122.756 50.784 123.332 50.864 123.908 50.864C 124.244 50.864 124.572 50.848 124.892 50.816C 125.98 50.096 126.524 47.704 126.524 43.64C 126.524 43.576 126.524 43.512 126.524 43.448L 126.524 37.16C 126.492 36.856 126.332 36.632 126.044 36.488L 123.452 36.488ZM 118.052 32.456L 118.076 32.672L 118.268 32.432C 118.236 32.448 118.164 32.456 118.052 32.456ZM 107.708 33.248L 107.588 33.248L 107.492 33.248L 107.732 33.44L 107.708 33.248ZM 107.228 45.104L 107.204 45.104L 107.228 45.128L 107.228 45.104ZM 149.876 32.984L 133.364 32.984L 133.364 31.472L 149.876 31.472L 149.876 32.984ZM 152.444 49.856L 150.98 50.456C 149.54 46.968 148.18 44.12 146.9 41.912L 148.34 41.264C 149.844 43.84 151.212 46.704 152.444 49.856ZM 136.148 49.688C 137.14 49.992 137.9 50.208 138.428 50.336C 138.972 50.464 139.332 50.536 139.508 50.552C 139.7 50.568 139.972 50.576 140.324 50.576L 140.372 50.576C 140.612 50.48 140.828 50.344 141.02 50.168C 141.212 50.008 141.316 49.872 141.332 49.76C 141.38 49.472 141.404 47.168 141.404 42.848C 141.404 41.76 141.404 40.44 141.404 38.888L 131.012 38.864L 131.012 37.352L 151.868 37.352L 151.868 38.864L 143.012 38.864L 142.916 50.384C 142.916 50.736 142.66 51.136 142.148 51.584L 141.908 51.8C 141.508 52.024 140.94 52.136 140.204 52.136C 139.244 52.136 138.028 51.928 136.556 51.512L 136.076 51.392L 136.148 49.688ZM 136.604 41.6C 135.34 45.152 133.82 47.888 132.044 49.808C 131.788 49.664 131.3 49.384 130.58 48.968C 132.644 46.744 134.14 44.128 135.068 41.12L 136.604 41.6ZM 156.596 46.28L 159.308 46.28L 159.308 44.144L 156.548 44.144L 156.596 46.28ZM 156.548 42.92L 159.308 42.92L 159.308 40.832L 156.548 40.832L 156.548 42.92ZM 160.748 46.28L 163.46 46.232L 163.46 44.144L 160.748 44.144L 160.748 46.28ZM 160.748 42.92L 163.46 42.92L 163.436 40.832L 160.748 40.832L 160.748 42.92ZM 165.476 50.336L 160.748 50.336L 160.7 52.88L 159.332 52.88L 159.332 50.384L 154.652 50.336L 154.652 49.04L 159.308 49.04L 159.332 47.456L 155.156 47.384L 155.156 39.68L 159.068 39.68L 159.308 39.68L 159.332 38.336L 154.772 38.264L 154.772 37.064L 159.308 37.064L 159.332 35.72L 160.7 35.72L 160.7 36.992L 165.14 37.064L 165.14 38.264L 160.772 38.264L 160.676 39.656L 164.828 39.68L 164.828 47.432L 160.748 47.432L 160.7 48.992L 165.476 49.04L 165.476 50.336ZM 161.492 35.768C 161.188 34.824 160.94 34.184 160.748 33.848L 157.676 33.848L 155.804 35.624L 154.724 34.688C 156.052 33.664 157.036 32.512 157.676 31.232L 158.948 31.856C 158.884 31.968 158.836 32.08 158.804 32.192L 158.756 32.48L 164.468 32.528L 164.468 33.848L 162.332 33.848L 162.764 35.36L 161.492 35.768ZM 168.548 50.024C 168.548 50.456 168.78 50.752 169.244 50.912C 169.724 51.072 170.54 51.152 171.692 51.152C 172.956 51.152 173.812 51.128 174.26 51.08C 174.372 50.968 174.468 50.832 174.548 50.672C 174.628 50.528 174.684 50.392 174.716 50.264C 174.764 50.152 174.804 49.992 174.836 49.784C 174.868 49.56 174.884 49.4 174.884 49.304C 174.884 49.192 174.884 49 174.884 48.728C 174.9 48.456 174.908 48.28 174.908 48.2L 176.42 48.248C 176.404 50.072 176.22 51.272 175.868 51.848C 175.596 52.296 174.868 52.528 173.684 52.544L 173.18 52.568C 172.524 52.584 171.916 52.592 171.356 52.592C 170.22 52.592 169.38 52.552 168.836 52.472C 168.308 52.408 167.964 52.32 167.804 52.208C 167.644 52.096 167.468 51.88 167.276 51.56C 167.132 51.368 167.06 50.976 167.06 50.384L 167.06 37.208L 174.98 37.208C 175.044 37.272 175.084 37.32 175.1 37.352L 175.052 45.608C 175.052 45.912 174.748 46.248 174.14 46.616L 173.684 46.832C 173.38 46.912 172.996 46.952 172.532 46.952L 170.348 46.808L 170.348 45.368C 171.02 45.48 171.596 45.536 172.076 45.536C 172.652 45.536 173.06 45.456 173.3 45.296L 173.588 44.84L 173.636 39.008L 173.3 38.672L 168.548 38.672L 168.548 50.024ZM 167.948 33.848C 167.516 34.584 167.148 35.136 166.844 35.504L 165.548 34.832C 166.412 33.792 167.036 32.632 167.42 31.352L 168.788 31.712L 168.524 32.48L 175.964 32.528L 175.964 33.848L 172.364 33.848L 172.964 35.072L 171.788 35.72L 170.732 33.896L 167.948 33.848ZM 155.156 47.384L 155.108 47.384L 155.156 47.432L 155.156 47.384ZM 170.348 46.808L 170.132 46.784L 170.108 46.784L 170.348 47.024L 170.348 46.808ZM 172.964 35.072L 173.036 35.168L 173.036 35.24L 173.156 34.976L 172.964 35.072Z"/>
<path id="path3_fill" d="M 0 0L 40 0L 40 40L 0 40L 0 0Z"/>
<path id="path4_fill" d="M 15 3.055L 12.1457 0L 0 13L 12.1457 26L 15 22.945L 5.72874 13L 15 3.055Z"/>
</defs>
</svg>
