<svg width="320" height="1236" viewBox="0 0 320 1236" version="1.1" xmlns="http://www.w3.org/2000/svg" xmlns:xlink="http://www.w3.org/1999/xlink">
<title>pedometer</title>
<desc>Created using Figma</desc>
<g id="Canvas" transform="translate(-1199 -946)">
<rect x="1199" y="946" width="320" height="1236" fill="#E5E5E5"/>
<g id="pedometer">
<path d="M 1519 946L 1519 1514L 1199 1514L 1199 946L 1519 946Z" fill="#FFFFFF"/>
<g id="Rectangle">
<use xlink:href="#path0_fill" transform="matrix(1 1.39128e-16 -1.39128e-16 1 1199 946)" fill="url(#paint0_linear)"/>
</g>
<g id="back /action=nav">
<g id="click-area-hint">
<use xlink:href="#path1_fill" transform="matrix(6.12323e-17 1 -1 6.12323e-17 1506 958)" fill="url(#paint1_linear)"/>
</g>
<g id="Vector" filter="url(#filter0_d)">
<use xlink:href="#path2_fill" transform="matrix(6.12323e-17 1 -1 6.12323e-17 1499 970)" fill="#FFFFFF" fill-opacity="0.9"/>
</g>
</g>
<g id="started">
<g id="&#230;&#173;&#165;">
<use xlink:href="#path3_fill" transform="matrix(6.12323e-17 1 -1 6.12323e-17 1368 1355)" fill="#000000" fill-opacity="0.49"/>
</g>
<g id="count">
<g id="3 /example">
<use xlink:href="#path4_fill" transform="matrix(6.12323e-17 1 -1 6.12323e-17 1407 1095)"/>
</g>
<g id="hint /for=text /style=&#34;font-size: 96px; font-family: Ubuntu Mono; text-align: center; color: #000000; font-weight: 900;&#34; /positioner-style=&#34;display: block;&#34;">
<use xlink:href="#path5_fill" transform="matrix(6.12323e-17 1 -1 6.12323e-17 1427 1095)" fill="url(#paint5_linear)"/>
</g>
</g>
</g>
<g id="start">
<g id="&#232;&#161;&#140;&#229;&#149;&#166;!">
<use xlink:href="#path6_fill" transform="matrix(6.12323e-17 1 -1 6.12323e-17 1382 1187)" fill="#000000" fill-opacity="0.49"/>
</g>
</g>
</g>
</g>
<defs>
<filter id="filter0_d" filterUnits="userSpaceOnUse" x="1469" y="968" width="34" height="23" color-interpolation-filters="sRGB">
<feFlood flood-opacity="0" result="BackgroundImageFix"/>
<feColorMatrix in="SourceAlpha" type="matrix" values="0 0 0 0 0 0 0 0 0 0 0 0 0 0 0 0 0 0 255 0"/>
<feOffset dx="0" dy="2"/>
<feGaussianBlur stdDeviation="2"/>
<feColorMatrix type="matrix" values="0 0 0 0 0 0 0 0 0 0 0 0 0 0 0 0 0 0 0.25 0"/>
<feBlend mode="normal" in2="BackgroundImageFix" result="effect1_dropShadow"/>
<feBlend mode="normal" in="SourceGraphic" in2="effect1_dropShadow" result="shape"/>
</filter>
<linearGradient id="paint0_linear" x1="0" y1="0" x2="1" y2="0" gradientUnits="userSpaceOnUse" gradientTransform="matrix(6.5966e-06 1236 -320 8.46615e-06 320 -4.23307e-06)">
<stop offset="0" stop-color="#E0E0E0"/>
<stop offset="1" stop-color="#E3E3E3"/>
</linearGradient>
<linearGradient id="paint1_linear" x1="0" y1="0" x2="1" y2="0" gradientUnits="userSpaceOnUse" gradientTransform="matrix(2.44929e-15 40 -40 2.44929e-15 40 -2.44929e-15)">
<stop offset="0.0276243" stop-color="#FFFFFF" stop-opacity="0.01"/>
<stop offset="0.933702" stop-color="#FFFFFF" stop-opacity="0"/>
</linearGradient>
<linearGradient id="paint5_linear" x1="0" y1="0" x2="1" y2="0" gradientUnits="userSpaceOnUse" gradientTransform="matrix(1.64715e-14 96 -269 5.8783e-15 269 -5.8783e-15)">
<stop offset="0.0276243" stop-color="#FFFFFF" stop-opacity="0.01"/>
<stop offset="0.933702" stop-color="#FFFFFF" stop-opacity="0"/>
</linearGradient>
<path id="path0_fill" d="M 0 0L 320 0L 320 1236L 0 1236L 0 0Z"/>
<path id="path1_fill" d="M 0 0L 40 0L 40 40L 0 40L 0 0Z"/>
<path id="path2_fill" d="M 15 3.055L 12.1457 0L 0 13L 12.1457 26L 15 22.945L 5.72874 13L 15 3.055Z"/>
<path id="path3_fill" d="M 32.8 15.64L 20.52 15.64L 20.44 24C 20.3333 25.2533 19.8667 26.1333 19.04 26.64L 18.88 26.72C 18.2133 27.04 17.4267 27.2 16.52 27.2C 15.16 27.2 14.0267 27.0133 13.12 26.64L 12.64 26.32C 12.56 26.24 12.52 26.1733 12.52 26.12C 12.4667 25.8267 12.52 25.56 12.68 25.32C 12.7867 25.1867 12.8933 25.08 13 25L 16.28 25.36C 17.72 25.36 18.4533 24.8267 18.48 23.76L 18.56 15.72L 3.92 15.6C 3.49333 15.6 3.32 15.28 3.4 14.64C 3.42667 14.3733 3.49333 14.1733 3.6 14.04L 4.08 13.84L 9.52 13.84L 9.64 5.96C 9.96 5.45333 10.3733 5.33333 10.88 5.6C 11.0933 5.70667 11.2667 5.85333 11.4 6.04L 11.44 13.76L 18.48 13.84L 18.6 4.4C 18.6 4.18667 18.84 3.97333 19.32 3.76C 19.8533 3.86667 20.16 3.96 20.24 4.04C 20.2933 4.12 20.36 4.21333 20.44 4.32L 20.44 7.4L 29.84 7.52C 30.0267 7.6 30.2 7.78667 30.36 8.08C 30.36 8.56 30.2267 8.90667 29.96 9.12L 29.8 9.24L 20.52 9.28L 20.44 13.76L 33.04 13.88C 33.6 14.2 33.72 14.6133 33.4 15.12C 33.32 15.2533 33.2 15.3733 33.04 15.48C 32.9867 15.5333 32.9067 15.5867 32.8 15.64ZM 31.32 19.64C 31.32 20.6267 31 21.6933 30.36 22.84C 27.24 28.5467 21.7067 31.96 13.76 33.08C 11.3067 33.4 9.64 33.52 8.76 33.44C 8.36 33.44 8.05333 33.2533 7.84 32.88C 7.84 32.1333 8 31.6933 8.32 31.56C 15.7867 31.5333 21.4267 29.8267 25.24 26.44C 27 24.8667 28.28 22.9867 29.08 20.8L 29.48 19.56C 29.64 19.2933 29.88 19.1333 30.2 19.08C 30.4667 19.0533 30.7467 19.1467 31.04 19.36C 31.1733 19.44 31.2667 19.5333 31.32 19.64ZM 12.64 19.4C 11.0133 21.96 9.10667 24.1067 6.92 25.84C 6.30667 26.32 5.72 26.72 5.16 27.04C 5.05333 27.0933 4.74667 27.12 4.24 27.12C 3.97333 27.0133 3.77333 26.8267 3.64 26.56C 3.53333 26.08 4.02667 25.4933 5.12 24.8C 5.54667 24.5333 5.81333 24.36 5.92 24.28C 7.49333 22.92 8.69333 21.72 9.52 20.68L 11 18.44C 11.2933 18.0933 11.6667 18.0133 12.12 18.2C 12.3867 18.3067 12.56 18.48 12.64 18.72L 12.64 19.4Z"/>
<path id="path4_fill" d="M 130.957 80.245C 129.488 80.245 127.924 80.1173 126.264 79.8619C 124.668 79.6704 123.104 79.415 121.571 79.0958C 120.103 78.7765 118.73 78.4254 117.453 78.0423C 116.177 77.6593 115.187 77.3081 114.485 76.9889L 116.783 67.1249C 118.251 67.7633 120.135 68.4337 122.433 69.136C 124.796 69.8383 127.605 70.1894 130.861 70.1894C 134.883 70.1894 137.692 69.3275 139.288 67.6037C 140.948 65.8799 141.778 63.7411 141.778 61.1873C 141.778 58.0589 140.533 55.8882 138.043 54.6751C 135.553 53.3982 132.393 52.7598 128.562 52.7598L 124.923 52.7598L 124.923 42.9915L 129.329 42.9915C 130.542 42.9915 131.755 42.8638 132.968 42.6085C 134.181 42.3531 135.266 41.9381 136.224 41.3635C 137.181 40.7889 137.948 40.0228 138.522 39.0651C 139.161 38.1074 139.48 36.8944 139.48 35.4259C 139.48 33.2552 138.81 31.5633 137.469 30.3503C 136.192 29.0734 134.404 28.4349 132.106 28.4349C 129.871 28.4349 127.637 28.818 125.402 29.5841C 123.231 30.2864 121.348 31.1802 119.752 32.2656L 115.538 23.6466C 117.262 22.4974 119.528 21.3481 122.338 20.1989C 125.211 18.9859 128.435 18.3794 132.01 18.3794C 135.33 18.3794 138.203 18.7944 140.629 19.6243C 143.119 20.4543 145.162 21.6355 146.758 23.1677C 148.354 24.6362 149.535 26.3919 150.302 28.4349C 151.068 30.478 151.451 32.6806 151.451 35.0429C 151.451 37.4051 150.78 39.6716 149.44 41.8423C 148.099 44.0131 146.311 45.673 144.077 46.8222C 147.141 48.0991 149.504 49.9825 151.163 52.4725C 152.887 54.9624 153.749 57.9312 153.749 61.3788C 153.749 64.1242 153.302 66.646 152.408 68.9444C 151.515 71.2429 150.142 73.254 148.29 74.9778C 146.439 76.6377 144.077 77.9466 141.204 78.9042C 138.331 79.7981 134.915 80.245 130.957 80.245Z"/>
<path id="path5_fill" d="M 0 0L 269 0L 269 96L 0 96L 0 0Z"/>
<path id="path6_fill" d="M 32.2 11.32L 15.56 11.32C 14.8933 11.08 14.72 10.68 15.04 10.12C 15.1733 9.90667 15.3733 9.72 15.64 9.56L 32.2 9.64C 32.5467 9.64 32.72 9.88 32.72 10.36L 32.56 10.92C 32.48 11.1067 32.36 11.24 32.2 11.32ZM 33.64 19.04L 28.96 19.04L 28.88 34.76C 28.88 35.56 28.5467 36.28 27.88 36.92C 27.7467 37.0533 27.6133 37.16 27.48 37.24C 26.6 37.8533 25.4267 38.16 23.96 38.16C 22.5467 38.16 20.7067 37.8533 18.44 37.24C 18.04 37.1333 17.72 37.04 17.48 36.96C 16.92 36.7467 16.7733 36.3733 17.04 35.84C 17.12 35.6267 17.2667 35.4533 17.48 35.32C 17.8267 35.32 18.76 35.48 20.28 35.8C 20.4133 35.8267 20.5333 35.8533 20.64 35.88C 22.8533 36.2 24.3467 36.3333 25.12 36.28C 25.1733 36.28 25.24 36.2667 25.32 36.24C 25.8533 36.16 26.32 35.8 26.72 35.16C 26.8533 34.8933 26.9333 34.6667 26.96 34.48L 27 19.08L 13.8 19.04C 13.32 18.8533 13.12 18.48 13.2 17.92C 13.2533 17.7333 13.3333 17.5733 13.44 17.44L 13.92 17.2L 33.68 17.28C 34.16 17.4933 34.2933 17.88 34.08 18.44C 34 18.7067 33.8533 18.9067 33.64 19.04ZM 10.68 9.36C 8.49333 14.0533 6.34667 17.08 4.24 18.44C 4.05333 18.5467 3.81333 18.5867 3.52 18.56C 3.38667 18.5333 3.26667 18.4933 3.16 18.44C 2.84 18.2533 2.72 17.9333 2.8 17.48C 2.82667 17.3467 2.88 17.2133 2.96 17.08C 4.93333 15.2933 6.52 13.3333 7.72 11.2L 8.92 8.64C 8.94667 8.58667 8.96 8.54667 8.96 8.52C 9.06667 8.38667 9.30667 8.22667 9.68 8.04C 10.1867 8.09333 10.52 8.26667 10.68 8.56L 10.68 9.36ZM 9.28 21.92L 9.2 37.68C 9.2 37.8933 9 38.0933 8.6 38.28C 7.98667 38.28 7.61333 38.1067 7.48 37.76L 7.4 24.32L 7.32 24.24C 5.98667 25.68 4.97333 26.6 4.28 27L 3.8 27.24C 3.21333 27.1067 2.92 26.7733 2.92 26.24C 2.94667 26.1333 2.96 26.0133 2.96 25.88C 5.73333 23.5067 7.96 20.8667 9.64 17.96L 11.2 14.88C 11.3867 14.5333 11.72 14.44 12.2 14.6C 12.4933 14.68 12.68 14.8267 12.76 15.04C 12.84 15.1733 12.88 15.3067 12.88 15.44C 12.88 15.9467 11.8133 17.9067 9.68 21.32C 9.52 21.5867 9.38667 21.7867 9.28 21.92ZM 70.1569 13.36C 70.1569 13.7333 70.0769 14.0667 69.9169 14.36L 69.4769 14.56L 57.5969 14.52C 57.0635 14.52 56.9169 14.1333 57.1569 13.36C 57.1835 13.2267 57.2235 13.1067 57.2769 13L 57.7169 12.76L 62.5569 12.76L 62.6769 8.88C 62.6769 8.77333 62.8635 8.62667 63.2369 8.44C 63.7435 8.44 64.1035 8.52 64.3169 8.68L 64.5569 9.12L 64.5569 12.68L 69.7169 12.8C 69.8769 12.8 70.0235 12.9867 70.1569 13.36ZM 69.8369 37L 56.1569 37C 55.7302 37 55.5702 36.6533 55.6769 35.96C 55.7035 35.8267 55.7435 35.7067 55.7969 35.6L 56.1569 35.28L 64.0769 35.24C 64.9835 32.2533 65.9035 27.6133 66.8369 21.32C 67.0769 19.6133 67.2769 18.2933 67.4369 17.36C 67.5169 16.6667 67.7835 16.3333 68.2369 16.36C 68.4769 16.36 68.7302 16.4933 68.9969 16.76C 69.1569 17.08 69.1835 17.6533 69.0769 18.48L 68.9969 19.04L 67.0369 30.8C 66.7435 32.4 66.4369 33.8667 66.1169 35.2L 69.8769 35.28C 70.3035 35.52 70.4369 35.9067 70.2769 36.44C 70.1969 36.7067 70.0502 36.8933 69.8369 37ZM 61.1569 32.92C 60.7569 33.1067 60.4102 33.16 60.1169 33.08C 60.0635 33.0533 60.0235 33.0267 59.9969 33C 59.8902 33 59.7702 32.84 59.6369 32.52C 59.6369 28.7333 59.1969 23.6667 58.3169 17.32C 58.5302 16.6533 58.9169 16.4133 59.4769 16.6C 59.5835 16.6267 59.7035 16.68 59.8369 16.76L 60.0769 17.2L 61.2369 27.76C 61.5035 30.08 61.4769 31.8 61.1569 32.92ZM 57.3969 23.48C 56.6235 24.1733 55.4369 24.9733 53.8369 25.88L 53.7169 35.6C 53.7169 36.5333 53.3969 37.28 52.7569 37.84C 52.6235 37.9467 52.4902 38.0267 52.3569 38.08C 51.3169 38.5333 49.7569 38.5067 47.6769 38L 47.2369 37.92L 47.1969 37.88L 46.6769 37.36L 46.6769 37.32C 46.6769 36.8933 46.7169 36.5733 46.7969 36.36C 47.1435 36.0933 47.9169 36.0933 49.1169 36.36C 50.3169 36.6267 51.0902 36.56 51.4369 36.16C 51.7569 35.8133 51.9169 35.2267 51.9169 34.4L 51.9169 26.88L 49.2769 27.76L 48.5169 27.8C 48.3835 27.7733 48.2902 27.7333 48.2369 27.68C 48.0235 27.44 47.9435 27.1467 47.9969 26.8C 47.9969 26.7467 48.0102 26.68 48.0369 26.6L 48.3569 26.24L 51.8369 24.84L 51.9169 16.04L 48.9169 15.96L 48.1969 15.76C 47.9302 15.4667 47.8502 15.1333 47.9569 14.76C 48.0102 14.4933 48.1569 14.32 48.3969 14.24L 51.8369 14.16L 52.0369 8.92C 52.0369 8.78667 52.2769 8.62667 52.7569 8.44C 53.1569 8.49333 53.4102 8.57333 53.5169 8.68L 53.7169 9L 53.7569 14.12L 56.4769 14.24C 56.7702 14.24 56.9302 14.4667 56.9569 14.92C 56.9835 15.4267 56.8102 15.7733 56.4369 15.96L 53.8369 16L 53.7569 23.72L 53.8369 23.76C 53.9969 23.7067 54.4769 23.4 55.2769 22.84C 56.0235 22.3333 56.6369 22.2267 57.1169 22.52C 57.3035 22.6533 57.3969 22.9733 57.3969 23.48ZM 47.5169 12.52L 47.5169 33.08C 47.5169 33.5867 47.1835 34.0533 46.5169 34.48C 46.2502 34.6133 46.0235 34.6933 45.8369 34.72C 45.4369 34.7733 44.4902 34.8 42.9969 34.8C 41.5835 34.8 40.7035 34.3867 40.3569 33.56C 40.1969 32.9467 40.1702 26.2267 40.2769 13.4C 40.2769 12.9733 40.2769 12.6533 40.2769 12.44L 40.4769 11.88C 40.9569 11.1867 41.8102 10.84 43.0369 10.84C 44.5569 10.84 45.5169 10.8667 45.9169 10.92C 46.4769 10.9733 46.9702 11.4133 47.3969 12.24L 47.5169 12.52ZM 44.9969 12.8L 43.2369 12.68C 42.7569 12.7333 42.4369 12.9467 42.2769 13.32L 42.1569 31.64C 42.1569 32.4933 42.5435 32.9333 43.3169 32.96L 44.8769 32.88C 45.2235 32.72 45.4635 32.4933 45.5969 32.2L 45.6369 13.56C 45.6369 13.3467 45.4235 13.0933 44.9969 12.8ZM 80.4738 17C 80.4738 18.1467 80.4471 19.2267 80.3938 20.24C 80.3671 21.2267 80.3137 22.1867 80.2337 23.12C 80.1538 24.0533 80.0604 24.96 79.9537 25.84C 79.8738 26.72 79.7804 27.6 79.6737 28.48L 78.4738 28.48C 78.2337 26.6933 78.0338 24.9067 77.8738 23.12C 77.7404 21.3333 77.6737 19.2933 77.6737 17L 77.6737 9.28L 80.4738 9.28L 80.4738 17ZM 81.2738 35.28C 81.2738 35.8933 81.0738 36.4133 80.6738 36.84C 80.3004 37.2667 79.7671 37.48 79.0737 37.48C 78.3804 37.48 77.8337 37.2667 77.4338 36.84C 77.0604 36.4133 76.8738 35.8933 76.8738 35.28C 76.8738 34.6667 77.0604 34.1467 77.4338 33.72C 77.8337 33.2933 78.3804 33.08 79.0737 33.08C 79.7671 33.08 80.3004 33.2933 80.6738 33.72C 81.0738 34.1467 81.2738 34.6667 81.2738 35.28Z"/>
</defs>
</svg>
